<svg id="envelope" xmlns="http://www.w3.org/2000/svg" width="38.937" height="29.631" viewBox="0 0 38.937 29.631">
  <g id="Group_160" data-name="Group 160" transform="translate(0 0)">
    <path id="Path_126" data-name="Path 126" d="M34.183,57.75H4.761A4.765,4.765,0,0,0,0,62.511V82.62a4.765,4.765,0,0,0,4.761,4.761H34.175a4.765,4.765,0,0,0,4.761-4.761v-20.1A4.76,4.76,0,0,0,34.183,57.75Zm2.586,24.87a2.589,2.589,0,0,1-2.586,2.586H4.761A2.589,2.589,0,0,1,2.175,82.62v-20.1a2.589,2.589,0,0,1,2.586-2.586H34.175a2.589,2.589,0,0,1,2.586,2.586v20.1Z" transform="translate(0 -57.75)" fill="#8b8b8b"/>
    <path id="Path_127" data-name="Path 127" d="M75.816,119.347l9.523-8.54a1.09,1.09,0,0,0-1.458-1.619L70.749,120.975l-2.562-2.288c-.008-.008-.016-.016-.016-.024a1.612,1.612,0,0,0-.177-.153L57.569,109.18a1.09,1.09,0,1,0-1.45,1.627l9.635,8.612-9.6,8.983a1.092,1.092,0,0,0-.048,1.539,1.113,1.113,0,0,0,.8.346,1.09,1.09,0,0,0,.741-.29l9.74-9.112,2.642,2.361a1.085,1.085,0,0,0,1.45-.008l2.715-2.433,9.684,9.2a1.09,1.09,0,0,0,1.539-.04,1.092,1.092,0,0,0-.04-1.539Z" transform="translate(-51.261 -104.781)" fill="#8b8b8b"/>
  </g>
</svg>
