<svg id="book" xmlns="http://www.w3.org/2000/svg" width="59" height="59" viewBox="0 0 59 59">
  <g id="Group_245" data-name="Group 245">
    <path id="Path_85" data-name="Path 85" d="M29.5,0H16.717a.983.983,0,0,0-.983.983V7.867H.983A.983.983,0,0,0,0,8.85V58.017A.983.983,0,0,0,.983,59H29.5a.983.983,0,0,0,.983-.983V.983A.983.983,0,0,0,29.5,0Zm-.983,51.133H17.7V49.167H28.517ZM1.967,14.75H15.733v29.5H1.967Zm26.55-3.933H17.7V7.867H28.517Zm-26.55,35.4H15.733v2.95H1.967ZM17.7,47.2V12.783H28.517V47.2ZM28.517,1.967V5.9H17.7V1.967ZM15.733,9.833v2.95H1.967V9.833ZM1.967,51.133H15.733v5.9H1.967Zm15.733,5.9V53.1H28.517v3.933Zm0,0" fill="#fff"/>
    <path id="Path_86" data-name="Path 86" d="M276.483,109.97l-11.8-45.233a.982.982,0,0,0-1.205-.7l-14.75,3.933a.983.983,0,0,0-.7,1.2l11.8,45.233a.981.981,0,0,0,1.205.7l14.75-3.933A.983.983,0,0,0,276.483,109.97ZM251.746,75.622,264.6,72.2l.462,1.77L252.21,77.4Zm13.809.252,5.7,21.877-12.845,3.427L252.71,79.3Zm6.2,23.781,1.007,3.859-12.85,3.426-1-3.857Zm-8.73-33.466,1.071,4.105-12.85,3.425-1.07-4.1Zm-1.546,46.757-1.071-4.105,12.85-3.427,1.07,4.1Zm0,0" transform="translate(-217.514 -56.134)" fill="#fff"/>
    <path id="Path_87" data-name="Path 87" d="M40.85,144H32.983a.983.983,0,0,0-.983.983v7.867a.983.983,0,0,0,.983.983H40.85a.983.983,0,0,0,.983-.983v-7.867A.983.983,0,0,0,40.85,144Zm-.983,7.867h-5.9v-5.9h5.9Zm0,0" transform="translate(-28.067 -126.3)" fill="#fff"/>
  </g>
</svg>
