<svg xmlns="http://www.w3.org/2000/svg" width="59.5" height="59.5" viewBox="0 0 59.5 59.5">
  <g id="Group_57" data-name="Group 57" transform="translate(0 0)">
    <g id="Group_56" data-name="Group 56" transform="translate(0 0)">
      <path id="Path_64" data-name="Path 64" d="M203.21,86.118a6.353,6.353,0,0,0,2.975-.819,6.353,6.353,0,0,0,2.975.819,6.087,6.087,0,0,0,4.792-2.425,16.185,16.185,0,0,0,2.15-8.484,6.949,6.949,0,0,0-6.942-6.942,6.461,6.461,0,0,0-2.975.849,6.462,6.462,0,0,0-2.975-.849,6.949,6.949,0,0,0-6.942,6.942c0,5.876,1.828,8.158,2.225,8.584A6.434,6.434,0,0,0,203.21,86.118Zm0-15.867a5.273,5.273,0,0,1,2.478.858.989.989,0,0,0,.994,0,5.273,5.273,0,0,1,2.478-.858,4.964,4.964,0,0,1,4.958,4.958,14.485,14.485,0,0,1-1.827,7.4,4.2,4.2,0,0,1-3.132,1.527,4.6,4.6,0,0,1-2.383-.8.99.99,0,0,0-1.184,0,4.586,4.586,0,0,1-2.383.8,4.445,4.445,0,0,1-3.182-1.6c-.02-.026-.054-.063-.076-.087s-1.7-1.862-1.7-7.239A4.964,4.964,0,0,1,203.21,70.251Z" transform="translate(-173.46 -60.335)" fill="#fff"/>
      <path id="Path_65" data-name="Path 65" d="M250.583,6.461a.991.991,0,1,0,1.7-1.021L249.308.481a.992.992,0,1,0-1.7,1.021Z" transform="translate(-218.708 0)" fill="#fff"/>
      <path id="Path_66" data-name="Path 66" d="M294.453,6.334a5.248,5.248,0,0,0,1.539.226h0a4.106,4.106,0,0,0,2.98-1.168,4.654,4.654,0,0,0,.941-4.521,1,1,0,0,0-.627-.627,5.268,5.268,0,0,0-1.541-.226,4.106,4.106,0,0,0-2.98,1.167,4.657,4.657,0,0,0-.941,4.521A.993.993,0,0,0,294.453,6.334Zm1.716-3.747A2.141,2.141,0,0,1,297.746,2a3.335,3.335,0,0,1,.389.023,2.366,2.366,0,0,1-.564,1.965,2.143,2.143,0,0,1-1.578.587,3.552,3.552,0,0,1-.389-.023A2.368,2.368,0,0,1,296.168,2.587Z" transform="translate(-259.482 -0.016)" fill="#fff"/>
      <path id="Path_67" data-name="Path 67" d="M71.611,238.935h-47.6a2.979,2.979,0,0,0-2.975,2.975v3.967a.992.992,0,0,0,1.983,0V241.91a.993.993,0,0,1,.992-.992h2.975v4.958a.992.992,0,1,0,1.983,0v-4.958H54.753v4.958a.992.992,0,1,0,1.983,0v-4.958h9.917v4.958a.992.992,0,1,0,1.983,0v-4.958h2.975a.993.993,0,0,1,.992.992v6.942H69.628a.992.992,0,0,0-.992.992v8.925h-.992a.992.992,0,1,0,0,1.983H70.62v6.942a.993.993,0,0,1-.992.992H38.886v-4.958a.992.992,0,1,0-1.983,0v4.958H34.92v-4.958a.992.992,0,1,0-1.983,0v4.958H30.953v-4.958a.992.992,0,1,0-1.983,0v4.958H20.045a.993.993,0,0,1-.992-.992v-3.967a.992.992,0,0,0-1.983,0v3.967a2.979,2.979,0,0,0,2.975,2.975H69.628a2.979,2.979,0,0,0,2.975-2.975v-6.942a1.942,1.942,0,0,0-1.983-1.983v-7.933H72.6a1.942,1.942,0,0,0,1.983-1.983V241.91A2.979,2.979,0,0,0,71.611,238.935Z" transform="translate(-15.086 -211.168)" fill="#fff"/>
      <path id="Path_68" data-name="Path 68" d="M38.677,336.169a.992.992,0,0,0,0-1.983H27.769v-7.933H41.652v14.875a.992.992,0,0,0,1.542.825l2.425-1.616,2.425,1.616a.992.992,0,0,0,1.542-.825V326.252h.992a.992.992,0,0,0,0-1.983H2.977A2.944,2.944,0,0,0,0,327.244v5.95a2.979,2.979,0,0,0,2.975,2.975h35.7Zm4.958-9.917H47.6v13.022l-1.433-.955a.993.993,0,0,0-1.1,0l-1.433.955V326.252Zm-31.733,0H25.785v7.933H11.9Zm-9.917,6.942v-5.95a.97.97,0,0,1,.992-.992H9.918v7.933H2.977A.981.981,0,0,1,1.985,333.194Z" transform="translate(-0.002 -286.585)" fill="#fff"/>
      <path id="Path_69" data-name="Path 69" d="M171.66,358.4a.992.992,0,0,0-.992.992v1.983a.992.992,0,1,0,1.983,0v-1.983A.992.992,0,0,0,171.66,358.4Z" transform="translate(-150.835 -316.751)" fill="#fff"/>
      <path id="Path_70" data-name="Path 70" d="M137.526,358.4a.992.992,0,0,0-.992.992v1.983a.992.992,0,1,0,1.983,0v-1.983A.992.992,0,0,0,137.526,358.4Z" transform="translate(-120.667 -316.751)" fill="#fff"/>
    </g>
  </g>
</svg>
