<svg xmlns="http://www.w3.org/2000/svg" width="62.667" height="55.859" viewBox="0 0 62.667 55.859">
  <g id="Group_139" data-name="Group 139" transform="translate(-155 -5533)">
    <g id="atom" transform="translate(155 5507.472)">
      <path id="Path_62" data-name="Path 62" d="M53.141,44.26c-1.18-.454-2.439-.866-3.763-1.235.342-1.331.615-2.627.812-3.876,1.025-6.5-.108-11.061-3.19-12.841a6.036,6.036,0,0,0-3.061-.78c-3.584,0-8.113,2.662-12.682,7.157-1-.98-2-1.881-3-2.689-5.117-4.138-9.633-5.437-12.715-3.658-1.981,1.144-3.185,3.479-3.483,6.754a1,1,0,0,0,1.992.181c.165-1.813.731-4.186,2.492-5.2,2.281-1.317,6.093-.049,10.458,3.481.952.77,1.909,1.629,2.861,2.564a64.768,64.768,0,0,0-5.655,6.98,64.336,64.336,0,0,0-9.105,1.46,36.32,36.32,0,0,1-1-5.444,1,1,0,0,0-1.99.2,38.249,38.249,0,0,0,1.056,5.751c-1.279.361-2.5.762-3.641,1.2C3.383,46.623,0,49.884,0,53.443s3.383,6.82,9.525,9.183c1.18.454,2.439.866,3.763,1.235-.342,1.331-.615,2.627-.812,3.876-1.025,6.5.108,11.061,3.19,12.841a6.036,6.036,0,0,0,3.061.78c3.543,0,8.009-2.6,12.525-7,.967.945,1.939,1.815,2.907,2.6,3.621,2.929,6.941,4.435,9.665,4.435a6.008,6.008,0,0,0,3.05-.777c3.082-1.78,4.215-6.34,3.19-12.841-.2-1.249-.47-2.545-.811-3.876A38.431,38.431,0,0,0,54.882,61.9a1,1,0,1,0-.826-1.822,36.5,36.5,0,0,1-5.339,1.892,64.354,64.354,0,0,0-3.2-8.374,64.641,64.641,0,0,0,3.326-8.658c7.422,2.078,11.82,5.36,11.82,8.507,0,2.033-1.773,3.71-3.26,4.759a1,1,0,1,0,1.153,1.634c2.687-1.9,4.107-4.106,4.107-6.394,0-3.559-3.383-6.82-9.525-9.183Zm-9.2-16.732A4.065,4.065,0,0,1,46,28.04c2.282,1.317,3.089,5.253,2.214,10.8-.187,1.188-.447,2.421-.772,3.689A64.668,64.668,0,0,0,38.3,41.082a64.5,64.5,0,0,0-5.65-6.967q.531-.524,1.062-1.014c3.9-3.594,7.531-5.573,10.223-5.573ZM31.26,35.548A60.661,60.661,0,0,1,35.7,40.9c-1.436-.078-2.895-.119-4.37-.119-1.524,0-3.032.043-4.514.126A61.864,61.864,0,0,1,31.26,35.548ZM31.253,71.5a60.551,60.551,0,0,1-4.6-5.529c1.535.09,3.1.136,4.679.136,1.523,0,3.031-.044,4.516-.129a61.514,61.514,0,0,1-4.6,5.522Zm.08-7.393c-2.149,0-4.21-.083-6.175-.238-1.1-1.61-2.171-3.3-3.188-5.065-1-1.733-1.921-3.481-2.754-5.221.865-1.821,1.828-3.655,2.879-5.477,1.019-1.764,2.1-3.475,3.224-5.108,1.917-.147,3.924-.226,6.014-.226,2.036,0,3.994.075,5.866.215,1.125,1.636,2.212,3.358,3.247,5.15,1.047,1.813,2,3.637,2.867,5.45-.829,1.726-1.745,3.461-2.741,5.186-1.017,1.761-2.1,3.469-3.217,5.1-1.962.154-3.977.235-6.02.235Zm-8.749-.487a59.769,59.769,0,0,1-6.827-1.175,60.422,60.422,0,0,1,2.391-6.505q.98,1.938,2.091,3.865Q21.372,61.771,22.585,63.623Zm.159-20.377q-1.222,1.864-2.38,3.865-1.187,2.055-2.224,4.124a61.34,61.34,0,0,1-2.505-6.767,59.782,59.782,0,0,1,7.108-1.222ZM2,53.443c0-3.13,4.351-6.393,11.7-8.473a65.261,65.261,0,0,0,3.307,8.62A64.315,64.315,0,0,0,13.82,61.95C6.4,59.872,2,56.59,2,53.443ZM18.727,79.358a4.065,4.065,0,0,1-2.061-.512c-2.282-1.317-3.089-5.253-2.214-10.8.187-1.188.447-2.421.772-3.689a64.315,64.315,0,0,0,8.823,1.416,64.452,64.452,0,0,0,5.8,7.153q-.451.44-.9.856C25.05,77.379,21.419,79.358,18.727,79.358ZM48.089,68.08c.875,5.544.067,9.48-2.214,10.8s-6.093.049-10.458-3.481c-.919-.743-1.842-1.569-2.762-2.467a64.5,64.5,0,0,0,5.808-7.144,65.3,65.3,0,0,0,8.852-1.4C47.642,65.655,47.9,66.891,48.089,68.08Zm-1.311-5.62a61.382,61.382,0,0,1-6.845,1.166q1.217-1.857,2.37-3.849,1.1-1.911,2.077-3.834a60.427,60.427,0,0,1,2.4,6.518ZM44.389,51.241q-1.03-2.052-2.212-4.1-1.164-2.016-2.41-3.913a60.12,60.12,0,0,1,7.142,1.211A60.759,60.759,0,0,1,44.389,51.241Z" transform="translate(0)" fill="#fff"/>
      <path id="Path_63" data-name="Path 63" d="M202.5,197.392a5,5,0,1,0,5,5A5.006,5.006,0,0,0,202.5,197.392Zm0,8a3,3,0,1,1,3-3A3,3,0,0,1,202.5,205.392Z" transform="translate(-171.167 -148.949)" fill="#fff"/>
    </g>
  </g>
</svg>
