<svg xmlns="http://www.w3.org/2000/svg" width="55.359" height="55.359" viewBox="0 0 55.359 55.359">
  <g id="Group_244" data-name="Group 244" transform="translate(-887 -3837.5)">
    <g id="copywriting" transform="translate(887 3837.5)">
      <path id="Path_71" data-name="Path 71" d="M1.622,35.789a1.622,1.622,0,0,0,1.622-1.622V32.545h2.9L3.5,43.118a4.874,4.874,0,0,0-.145,1.18v6.2a4.871,4.871,0,0,0,4.866,4.866H47.142a4.871,4.871,0,0,0,4.866-4.866V44.3a4.878,4.878,0,0,0-.145-1.18L49.219,32.545h2.9v1.622a1.622,1.622,0,0,0,3.244,0V27.68a1.622,1.622,0,1,0-3.244,0V29.3h-6.6V11.353a1.625,1.625,0,0,0-.475-1.147L35.314.475A1.628,1.628,0,0,0,34.167,0H11.461A1.622,1.622,0,0,0,9.839,1.622V29.3h-6.6V27.68A1.622,1.622,0,1,0,0,27.68v6.487a1.622,1.622,0,0,0,1.622,1.622ZM35.789,5.538l4.194,4.194H35.789ZM13.083,3.244H32.545v8.109a1.622,1.622,0,0,0,1.622,1.622h8.109V29.3H13.083ZM6.6,44.3a1.625,1.625,0,0,1,.049-.393l2.84-11.359H45.876L48.715,43.9a1.625,1.625,0,0,1,.049.393v6.2a1.624,1.624,0,0,1-1.622,1.622H8.217A1.624,1.624,0,0,1,6.6,50.494Zm0,0" transform="translate(0 0)" fill="#fff"/>
      <path id="Path_72" data-name="Path 72" d="M124.217,332.622A1.622,1.622,0,1,1,122.595,331,1.622,1.622,0,0,1,124.217,332.622Zm0,0" transform="translate(-107.893 -295.211)" fill="#fff"/>
      <path id="Path_73" data-name="Path 73" d="M184.217,332.622A1.622,1.622,0,1,1,182.595,331,1.622,1.622,0,0,1,184.217,332.622Zm0,0" transform="translate(-161.405 -295.211)" fill="#fff"/>
      <path id="Path_74" data-name="Path 74" d="M244.217,332.622A1.622,1.622,0,1,1,242.595,331,1.622,1.622,0,0,1,244.217,332.622Zm0,0" transform="translate(-214.918 -295.211)" fill="#fff"/>
      <path id="Path_75" data-name="Path 75" d="M304.217,332.622A1.622,1.622,0,1,1,302.595,331,1.622,1.622,0,0,1,304.217,332.622Zm0,0" transform="translate(-268.431 -295.211)" fill="#fff"/>
      <path id="Path_76" data-name="Path 76" d="M124.217,392.622A1.622,1.622,0,1,1,122.595,391,1.622,1.622,0,0,1,124.217,392.622Zm0,0" transform="translate(-107.893 -348.724)" fill="#fff"/>
      <path id="Path_77" data-name="Path 77" d="M184.217,392.622A1.622,1.622,0,1,1,182.595,391,1.622,1.622,0,0,1,184.217,392.622Zm0,0" transform="translate(-161.405 -348.724)" fill="#fff"/>
      <path id="Path_78" data-name="Path 78" d="M244.217,392.622A1.622,1.622,0,1,1,242.595,391,1.622,1.622,0,0,1,244.217,392.622Zm0,0" transform="translate(-214.918 -348.724)" fill="#fff"/>
      <path id="Path_79" data-name="Path 79" d="M304.217,392.622A1.622,1.622,0,1,1,302.595,391,1.622,1.622,0,0,1,304.217,392.622Zm0,0" transform="translate(-268.431 -348.724)" fill="#fff"/>
      <path id="Path_80" data-name="Path 80" d="M364.217,332.622A1.622,1.622,0,1,1,362.595,331,1.622,1.622,0,0,1,364.217,332.622Zm0,0" transform="translate(-321.943 -295.211)" fill="#fff"/>
      <path id="Path_81" data-name="Path 81" d="M364.217,392.622A1.622,1.622,0,1,1,362.595,391,1.622,1.622,0,0,1,364.217,392.622Zm0,0" transform="translate(-321.943 -348.724)" fill="#fff"/>
      <path id="Path_82" data-name="Path 82" d="M172.084,210H152.622a1.622,1.622,0,1,0,0,3.244h19.462a1.622,1.622,0,0,0,0-3.244Zm0,0" transform="translate(-134.673 -187.294)" fill="#fff"/>
      <path id="Path_83" data-name="Path 83" d="M152.622,153.244h19.462a1.622,1.622,0,0,0,0-3.244H152.622a1.622,1.622,0,1,0,0,3.244Zm0,0" transform="translate(-134.673 -133.781)" fill="#fff"/>
      <path id="Path_84" data-name="Path 84" d="M152.622,93.244h9.731a1.622,1.622,0,1,0,0-3.244h-9.731a1.622,1.622,0,0,0,0,3.244Zm0,0" transform="translate(-134.673 -80.269)" fill="#fff"/>
    </g>
  </g>
</svg>
