<svg xmlns="http://www.w3.org/2000/svg" width="10.492" height="15" viewBox="0 0 10.492 15">
  <g id="Group_124" data-name="Group 124" transform="translate(-1167.334 -7281.638)" opacity="0.5">
    <g id="odnoklassniki" transform="translate(1167.333 7281.638)">
      <g id="Group_121" data-name="Group 121" transform="translate(1.496)">
        <g id="Group_120" data-name="Group 120" transform="translate(0)">
          <path id="Path_114" data-name="Path 114" d="M131.752,0a3.75,3.75,0,1,0,3.75,3.75A3.754,3.754,0,0,0,131.752,0Zm0,5.625a1.875,1.875,0,1,1,1.875-1.875A1.877,1.877,0,0,1,131.752,5.625Z" transform="translate(-128.002)" fill="#656565"/>
        </g>
      </g>
      <g id="Group_123" data-name="Group 123" transform="translate(0 7.121)">
        <g id="Group_122" data-name="Group 122" transform="translate(0)">
          <path id="Path_115" data-name="Path 115" d="M87.14,243.339a.936.936,0,0,0-1.326,0,5.163,5.163,0,0,1-7.292,0,.938.938,0,0,0-1.326,1.327,6.988,6.988,0,0,0,4.169,2l-2.673,2.673a.937.937,0,1,0,1.326,1.326l2.15-2.15,2.15,2.15a.937.937,0,1,0,1.326-1.326l-2.673-2.673a6.988,6.988,0,0,0,4.169-2A.938.938,0,0,0,87.14,243.339Z" transform="translate(-76.922 -243.064)" fill="#656565"/>
        </g>
      </g>
    </g>
  </g>
</svg>
