<svg xmlns="http://www.w3.org/2000/svg" width="16.666" height="13.538" viewBox="0 0 16.666 13.538">
  <g id="twitter-logo-silhouette_1_" data-name="twitter-logo-silhouette (1)" transform="translate(-0.001 -57.441)" opacity="0.5">
    <g id="Group_125" data-name="Group 125" transform="translate(0.001 57.441)">
      <path id="Path_116" data-name="Path 116" d="M16.667,59.043a6.828,6.828,0,0,1-1.963.538,3.433,3.433,0,0,0,1.5-1.89,6.892,6.892,0,0,1-2.172.83,3.422,3.422,0,0,0-5.826,3.117,9.707,9.707,0,0,1-7.046-3.572A3.423,3.423,0,0,0,2.22,62.63,3.419,3.419,0,0,1,.672,62.2v.043A3.422,3.422,0,0,0,3.414,65.6a3.463,3.463,0,0,1-.9.12,3.282,3.282,0,0,1-.644-.064,3.421,3.421,0,0,0,3.193,2.375A6.86,6.86,0,0,1,.816,69.488,7.265,7.265,0,0,1,0,69.441a9.664,9.664,0,0,0,5.241,1.538,9.66,9.66,0,0,0,9.727-9.727l-.011-.443A6.827,6.827,0,0,0,16.667,59.043Z" transform="translate(-0.001 -57.441)" fill="#656565"/>
    </g>
  </g>
</svg>
