<svg xmlns="http://www.w3.org/2000/svg" width="46" height="52.57" viewBox="0 0 46 52.57">
  <g id="Group_410" data-name="Group 410" transform="translate(-1104 -658)">
    <path id="Path_275" data-name="Path 275" d="M127.214,417.643H96v1.643h31.214a1.648,1.648,0,0,0,1.643-1.643V416A1.648,1.648,0,0,1,127.214,417.643Z" transform="translate(1014.571 284.713)" fill="#cad1d8"/>
    <g id="Group_404" data-name="Group 404">
      <path id="Path_268" data-name="Path 268" d="M99.286,0A3.3,3.3,0,0,0,96,3.286v46a3.3,3.3,0,0,0,3.286,3.286h32.857a3.3,3.3,0,0,0,3.286-3.286V13.143L122.286,0Z" transform="translate(1014.571 658)" fill="#e2e5e7"/>
      <path id="Path_269" data-name="Path 269" d="M355.286,13.143h9.857L352,0V9.857A3.3,3.3,0,0,0,355.286,13.143Z" transform="translate(784.857 658)" fill="#b0b7bd"/>
      <path id="Path_270" data-name="Path 270" d="M393.857,137.857,384,128h9.857Z" transform="translate(756.143 543.143)" fill="#cad1d8"/>
      <path id="Path_271" data-name="Path 271" d="M71.429,258.071a1.648,1.648,0,0,1-1.643,1.643H33.643A1.648,1.648,0,0,1,32,258.071V241.643A1.648,1.648,0,0,1,33.643,240H69.786a1.648,1.648,0,0,1,1.643,1.643Z" transform="translate(1072 442.642)" fill="#4397bc"/>
      <path id="Path_289" data-name="Path 289" d="M3.3-1.68a1.992,1.992,0,0,0,.8-.162,2.082,2.082,0,0,0,.648-.438,1.969,1.969,0,0,0,.432-.66,2.211,2.211,0,0,0,.156-.84,2.225,2.225,0,0,0-.156-.834,1.956,1.956,0,0,0-.432-.666A2.082,2.082,0,0,0,4.1-5.718a1.992,1.992,0,0,0-.8-.162H2.46v4.2ZM.72-7.56H3.3a3.7,3.7,0,0,1,1.476.294,3.8,3.8,0,0,1,1.2.81,3.8,3.8,0,0,1,.81,1.2A3.7,3.7,0,0,1,7.08-3.78,3.7,3.7,0,0,1,6.786-2.3a3.8,3.8,0,0,1-.81,1.2,3.8,3.8,0,0,1-1.2.81A3.7,3.7,0,0,1,3.3,0H.72ZM13.5-3.78a2.337,2.337,0,0,0-.156-.864,2.129,2.129,0,0,0-.426-.684,1.955,1.955,0,0,0-.63-.45,1.85,1.85,0,0,0-.768-.162,1.85,1.85,0,0,0-.768.162,1.955,1.955,0,0,0-.63.45,2.129,2.129,0,0,0-.426.684,2.337,2.337,0,0,0-.156.864,2.337,2.337,0,0,0,.156.864,2.129,2.129,0,0,0,.426.684,1.955,1.955,0,0,0,.63.45,1.85,1.85,0,0,0,.768.162,1.85,1.85,0,0,0,.768-.162,1.955,1.955,0,0,0,.63-.45,2.129,2.129,0,0,0,.426-.684A2.337,2.337,0,0,0,13.5-3.78Zm1.74,0a3.846,3.846,0,0,1-.294,1.512,3.945,3.945,0,0,1-.8,1.218,3.636,3.636,0,0,1-1.182.816A3.6,3.6,0,0,1,11.52.06a3.6,3.6,0,0,1-1.446-.294A3.636,3.636,0,0,1,8.892-1.05a3.945,3.945,0,0,1-.8-1.218A3.846,3.846,0,0,1,7.8-3.78a3.859,3.859,0,0,1,.294-1.506,3.927,3.927,0,0,1,.8-1.224,3.636,3.636,0,0,1,1.182-.816A3.6,3.6,0,0,1,11.52-7.62a3.6,3.6,0,0,1,1.446.294,3.636,3.636,0,0,1,1.182.816,3.927,3.927,0,0,1,.8,1.224A3.859,3.859,0,0,1,15.24-3.78Zm4.44,2.16a1.728,1.728,0,0,0,1.134-.342,1.609,1.609,0,0,0,.546-.8l1.8.12a3.628,3.628,0,0,1-.432,1.032,3.394,3.394,0,0,1-.744.858,3.635,3.635,0,0,1-1.026.588A3.558,3.558,0,0,1,19.68.06a3.6,3.6,0,0,1-1.446-.294,3.636,3.636,0,0,1-1.182-.816,3.945,3.945,0,0,1-.8-1.218A3.846,3.846,0,0,1,15.96-3.78a3.859,3.859,0,0,1,.294-1.506,3.927,3.927,0,0,1,.8-1.224,3.636,3.636,0,0,1,1.182-.816A3.6,3.6,0,0,1,19.68-7.62a3.393,3.393,0,0,1,1.242.222,3.59,3.59,0,0,1,1.008.588,3.452,3.452,0,0,1,.738.858A3.628,3.628,0,0,1,23.1-4.92l-1.8.12a1.777,1.777,0,0,0-.2-.432,1.43,1.43,0,0,0-.336-.36,1.725,1.725,0,0,0-.474-.252,1.8,1.8,0,0,0-.606-.1,1.85,1.85,0,0,0-.768.162,1.955,1.955,0,0,0-.63.45,2.129,2.129,0,0,0-.426.684,2.337,2.337,0,0,0-.156.864,2.337,2.337,0,0,0,.156.864,2.129,2.129,0,0,0,.426.684,1.955,1.955,0,0,0,.63.45A1.85,1.85,0,0,0,19.68-1.62Z" transform="translate(1112 697)" fill="#fff"/>
    </g>
  </g>
</svg>
