<svg xmlns="http://www.w3.org/2000/svg" width="13.6" height="10.35" viewBox="0 0 13.6 10.35">
  <g id="envelope" transform="translate(0 -57.75)">
    <g id="Group_160" data-name="Group 160" transform="translate(0 57.75)">
      <path id="Path_126" data-name="Path 126" d="M11.94,57.75H1.663A1.665,1.665,0,0,0,0,59.413v7.024A1.665,1.665,0,0,0,1.663,68.1H11.937A1.665,1.665,0,0,0,13.6,66.437V59.416A1.663,1.663,0,0,0,11.94,57.75Zm.9,8.687a.9.9,0,0,1-.9.9H1.663a.9.9,0,0,1-.9-.9V59.416a.9.9,0,0,1,.9-.9H11.937a.9.9,0,0,1,.9.9v7.021Z" transform="translate(0 -57.75)" fill="#8b8b8b"/>
      <path id="Path_127" data-name="Path 127" d="M62.761,112.551l3.326-2.983a.381.381,0,1,0-.509-.566l-4.587,4.117-.895-.8s-.006-.006-.006-.008a.564.564,0,0,0-.062-.053L56.387,109a.381.381,0,1,0-.507.568l3.366,3.008-3.351,3.138a.381.381,0,0,0-.017.537.389.389,0,0,0,.279.121.381.381,0,0,0,.259-.1l3.4-3.183.923.825a.379.379,0,0,0,.507,0l.948-.85,3.382,3.214a.381.381,0,0,0,.537-.014.381.381,0,0,0-.014-.537Z" transform="translate(-54.184 -107.463)" fill="#8b8b8b"/>
    </g>
  </g>
</svg>
