<svg xmlns="http://www.w3.org/2000/svg" width="55" height="55" fill="" viewBox="0 0 55 55">
  <g id="Group_244" data-name="Group 244" transform="translate(-248 -3242)">
    <g id="Ellipse_20" data-name="Ellipse 20" transform="translate(248 3242)" fill="rgba(109,151,215,0)" stroke="#8b8b8b" stroke-width="1">
      <circle cx="27.5" cy="27.5" r="27.5" stroke="none"/>
      <circle cx="27.5" cy="27.5" r="27" fill="none"/>
    </g>
    <g id="view" transform="translate(263 3249.356)">
      <path id="Path_109" data-name="Path 109" d="M21.39,16.379a12.787,12.787,0,0,0-18.063,0L0,19.705l3.409,3.409a12.787,12.787,0,0,0,18.064,0L24.8,19.788Zm-.51,6.143A11.949,11.949,0,0,1,4,22.522L1.185,19.705l2.734-2.734a11.949,11.949,0,0,1,16.879,0l2.817,2.817Z" fill="#8b8b8b"/>
      <path id="Path_110" data-name="Path 110" d="M24.5,21.57A2.935,2.935,0,0,0,21.572,24.5a.419.419,0,0,0,.838,0A2.1,2.1,0,0,1,24.5,22.408a.419.419,0,0,0,0-.838Z" transform="translate(-12.536 -5.187)" fill="#8b8b8b"/>
      <path id="Path_111" data-name="Path 111" d="M22.018,16.57a5.446,5.446,0,1,0,5.446,5.446A5.452,5.452,0,0,0,22.018,16.57Zm0,10.053a4.608,4.608,0,1,1,4.608-4.608A4.613,4.613,0,0,1,22.018,26.623Z" transform="translate(-9.63 -2.281)" fill="#8b8b8b"/>
    </g>
  </g>
</svg>
