<svg xmlns="http://www.w3.org/2000/svg" width="25.806" height="25.806" viewBox="0 0 25.806 25.806">
  <g id="Group_896" data-name="Group 896" transform="translate(0)">
    <g id="Rectangle_759" data-name="Rectangle 759" transform="translate(0)" fill="#fff" stroke="#9e9e9e" stroke-width="1">
      <rect width="25.806" height="25.806" rx="3" stroke="none"/>
      <rect x="0.5" y="0.5" width="24.806" height="24.806" rx="2.5" fill="none"/>
    </g>
    <path id="facebook" d="M5.423,14.041H3.174a.682.682,0,0,1-.681-.681V8.288H1.181A.682.682,0,0,1,.5,7.607V5.434a.682.682,0,0,1,.681-.681H2.493V3.664a3.706,3.706,0,0,1,.98-2.655A3.529,3.529,0,0,1,6.075,0L7.79,0a.682.682,0,0,1,.68.681V2.7a.682.682,0,0,1-.681.681H6.634c-.352,0-.442.071-.461.092s-.069.137-.069.417v.86H7.7a.692.692,0,0,1,.337.086.684.684,0,0,1,.35.6V7.607a.682.682,0,0,1-.681.681H6.1V13.36a.682.682,0,0,1-.681.681Zm-2.107-.823H5.281V7.92a.455.455,0,0,1,.455-.455h1.83V5.576H5.736a.455.455,0,0,1-.455-.455V3.893a1.4,1.4,0,0,1,.275-.962A1.4,1.4,0,0,1,6.634,2.56H7.647V.825l-1.572,0A2.6,2.6,0,0,0,3.316,3.664V5.121a.455.455,0,0,1-.455.455H1.323V7.465H2.862a.455.455,0,0,1,.455.455ZM7.788.826h0Zm0,0" transform="translate(8.328 6.332)" fill="#9e9e9e"/>
  </g>
</svg>
