<svg xmlns="http://www.w3.org/2000/svg" width="24.146" height="21.164" viewBox="0 0 24.146 21.164">
  <g id="gallery" transform="translate(0 -26.576)">
    <g id="Group_424" data-name="Group 424" transform="translate(0 26.576)">
      <g id="Group_423" data-name="Group 423" transform="translate(0 0)">
        <path id="Path_290" data-name="Path 290" d="M176.452,159.668a2.463,2.463,0,1,0,2.463,2.463A2.463,2.463,0,0,0,176.452,159.668Zm0,3.753a1.29,1.29,0,0,1,0-2.58h0a1.29,1.29,0,0,1,0,2.58Z" transform="translate(-164.224 -152.198)" fill="#606060"/>
        <path id="Path_291" data-name="Path 291" d="M22.051,28.416,6.041,26.6a2.2,2.2,0,0,0-1.73.5,2.228,2.228,0,0,0-.85,1.525l-.293,2.4H2.259A2.356,2.356,0,0,0,0,33.459V45.452A2.229,2.229,0,0,0,2.17,47.738H18.356a2.407,2.407,0,0,0,2.463-2.287v-.469a2.932,2.932,0,0,0,1.114-.469,2.434,2.434,0,0,0,.85-1.583l1.349-11.9A2.375,2.375,0,0,0,22.051,28.416Zm-2.4,17.036a1.235,1.235,0,0,1-1.29,1.114H2.259a1.056,1.056,0,0,1-1.086-1.024q0-.045,0-.09v-2.17l4.545-3.343a1.407,1.407,0,0,1,1.818.088l3.2,2.815a2.757,2.757,0,0,0,1.73.645,2.668,2.668,0,0,0,1.407-.381l5.776-3.343v5.689Zm0-7.067-6.392,3.724a1.5,1.5,0,0,1-1.73-.147L8.3,39.118A2.61,2.61,0,0,0,5.044,39L1.174,41.816V33.459A1.184,1.184,0,0,1,2.259,32.2h16.1a1.349,1.349,0,0,1,1.29,1.261Zm3.315-7.518v.012l-1.378,11.9a1,1,0,0,1-.381.792c-.117.117-.381.176-.381.235V33.459a2.522,2.522,0,0,0-2.463-2.434H4.34L4.6,28.738a1.349,1.349,0,0,1,.44-.762,1.349,1.349,0,0,1,.88-.235L21.9,29.588A1.173,1.173,0,0,1,22.961,30.867Z" transform="translate(0 -26.576)" fill="#606060"/>
      </g>
    </g>
  </g>
</svg>
