<svg xmlns="http://www.w3.org/2000/svg" width="15" height="15" viewBox="0 0 15 15">
  <path id="Path_125" data-name="Path 125" d="M23.8,13.2A7.494,7.494,0,1,0,26,18.5,7.444,7.444,0,0,0,23.8,13.2Zm1.518,4.965H22.412a13.022,13.022,0,0,0-.474-3.26,7.438,7.438,0,0,0,1.546-1.065A6.811,6.811,0,0,1,25.32,18.163Zm-6.484.673h2.905a12.31,12.31,0,0,1-.426,3,7.571,7.571,0,0,0-2.48-.539ZM23,13.369a6.82,6.82,0,0,1-1.273.885,7.82,7.82,0,0,0-.395-.918,5.4,5.4,0,0,0-.986-1.408A6.8,6.8,0,0,1,23,13.369Zm-4.163-1.592a3.174,3.174,0,0,1,1.895,1.855,7.651,7.651,0,0,1,.386.909,6.87,6.87,0,0,1-2.281.511Zm2.483,3.41a12.312,12.312,0,0,1,.419,2.979h-2.9V15.73a7.575,7.575,0,0,0,2.483-.542Zm-3.156,2.976H15.258a12.312,12.312,0,0,1,.419-2.979,7.436,7.436,0,0,0,2.483.539v2.44Zm0-6.386v3.276a6.853,6.853,0,0,1-2.281-.511,7.651,7.651,0,0,1,.386-.909A3.174,3.174,0,0,1,18.166,11.778Zm-1.509.15a5.448,5.448,0,0,0-.986,1.408,9,9,0,0,0-.395.918A6.922,6.922,0,0,1,14,13.369,6.8,6.8,0,0,1,16.657,11.928Zm-3.138,1.91A7.557,7.557,0,0,0,15.065,14.9a12.9,12.9,0,0,0-.474,3.26H11.683A6.811,6.811,0,0,1,13.519,13.838Zm-1.837,5h2.908a13.006,13.006,0,0,0,.481,3.279,7.37,7.37,0,0,0-1.54,1.059,6.8,6.8,0,0,1-1.849-4.338Zm2.333,4.806a6.846,6.846,0,0,1,1.267-.879,8.3,8.3,0,0,0,.389.9,5.468,5.468,0,0,0,.986,1.411A6.833,6.833,0,0,1,14.015,23.643Zm4.151,1.58a3.174,3.174,0,0,1-1.895-1.855,7.869,7.869,0,0,1-.38-.891,6.757,6.757,0,0,1,2.274-.508v3.254Zm-2.48-3.389a12.311,12.311,0,0,1-.426-3h2.905v2.458A7.418,7.418,0,0,0,15.687,21.834Zm3.153,3.389V21.968a6.831,6.831,0,0,1,2.274.508,7.869,7.869,0,0,1-.38.891,3.174,3.174,0,0,1-1.895,1.855Zm1.509-.15a5.416,5.416,0,0,0,.986-1.411,8.3,8.3,0,0,0,.389-.9,6.846,6.846,0,0,1,1.267.879,6.753,6.753,0,0,1-2.642,1.433Zm3.129-1.9a7.489,7.489,0,0,0-1.54-1.059,13.027,13.027,0,0,0,.481-3.279h2.908a6.833,6.833,0,0,1-1.849,4.338Z" transform="translate(-11 -11)" fill="#fff"/>
</svg>
