<svg id="language" xmlns="http://www.w3.org/2000/svg" width="15" height="15" viewBox="0 0 15 15" opacity="0.75">
  <path id="Path_26" data-name="Path 26" d="M7.5,0A7.5,7.5,0,1,0,15,7.5,7.522,7.522,0,0,0,7.5,0Zm5.175,4.5H10.5A11.854,11.854,0,0,0,9.45,1.8,6.037,6.037,0,0,1,12.675,4.5ZM7.5,1.5a10.071,10.071,0,0,1,1.425,3H6.075A11.027,11.027,0,0,1,7.5,1.5ZM1.725,9A4.836,4.836,0,0,1,1.5,7.5,4.836,4.836,0,0,1,1.725,6h2.55A10.052,10.052,0,0,0,4.2,7.5c0,.525.075.975.075,1.5Zm.6,1.5H4.5a11.854,11.854,0,0,0,1.05,2.7A6.037,6.037,0,0,1,2.325,10.5ZM4.5,4.5H2.325A6.321,6.321,0,0,1,5.55,1.8,11.854,11.854,0,0,0,4.5,4.5Zm3,9a10.071,10.071,0,0,1-1.425-3h2.85A11.027,11.027,0,0,1,7.5,13.5ZM9.225,9H5.775a10.164,10.164,0,0,1-.15-1.5A10.164,10.164,0,0,1,5.775,6H9.3a10.164,10.164,0,0,1,.15,1.5A10.353,10.353,0,0,1,9.225,9Zm.225,4.2a10.641,10.641,0,0,0,1.05-2.7h2.175A6.037,6.037,0,0,1,9.45,13.2ZM10.8,9a10.052,10.052,0,0,0,.075-1.5c0-.525-.075-.975-.075-1.5h2.55a4.836,4.836,0,0,1,.225,1.5A4.837,4.837,0,0,1,13.35,9Z" fill="#fff"/>
</svg>
