<svg xmlns="http://www.w3.org/2000/svg" width="680.079" height="195" viewBox="0 0 680.079 195">
  <path id="Path_53" data-name="Path 53" d="M1344,2514.667c10.868,5.333,22.823,10.667,34.779,8s47.821-4,53.255-8,27.171,0,52.168,8,82.6,5.333,91.294,8,30.431,22.667,46.734,22.667,85.86,6.667,110.857,14.667,40.756,11.333,57.33,8.333c.4-.072.791-.137,1.425-.231,15.15-4.769,24.183,6.692,37.973,11.9,14.129,5.333,13.857,7.667,13.857,7.667s11.14-31.667-13.857-34.333-23.91-16-23.91-16,21.737,8,33.692,0,40.213,0,40.213,0,37.767-5.333,46.462,0,35.05,6,42.658-8-25-14.667-25-14.667L1881.709,2521s-30.16-13.667-34.507-11-34.779,27.333-34.779,27.333a51.653,51.653,0,0,1-20.584-5.667c-9.781-5.333-52.234,5.667-52.234,5.667s-20.65-25.333-28.258-22.667-30.431,0-30.431,0S1641.792,2500,1622.229,2500h-52.168c-27.171,0-39.126,8-48.907,0s-43.473-6.667-47.821-14.667-8.695-14.667-16.3-17.333-2.174-2.667,8.695-6.667-9.781-6.667-23.91-6.667S1415.731,2468,1404.863,2468s-47.821,9.333-47.821,9.333Z" transform="translate(-1317 -2427.667)" fill="#5e5e5e" opacity="0.31"/>
</svg>
