<svg xmlns="http://www.w3.org/2000/svg" width="94.5" height="108" viewBox="0 0 94.5 108">
  <g id="mpg" transform="translate(-32)">
    <path id="Path_244" data-name="Path 244" d="M102.75,0A6.77,6.77,0,0,0,96,6.75v94.5a6.77,6.77,0,0,0,6.75,6.75h67.5a6.77,6.77,0,0,0,6.75-6.75V27L150,0Z" transform="translate(-50.5)" fill="#e2e5e7"/>
    <path id="Path_245" data-name="Path 245" d="M358.75,27H379L352,0V20.25A6.77,6.77,0,0,0,358.75,27Z" transform="translate(-252.5)" fill="#b0b7bd"/>
    <path id="Path_246" data-name="Path 246" d="M404.25,148.25,384,128h20.25Z" transform="translate(-277.75 -101)" fill="#cad1d8"/>
    <path id="Path_247" data-name="Path 247" d="M113,277.125a3.385,3.385,0,0,1-3.375,3.375H35.375A3.385,3.385,0,0,1,32,277.125v-33.75A3.385,3.385,0,0,1,35.375,240h74.25A3.385,3.385,0,0,1,113,243.375Z" transform="translate(0 -189.375)" fill="#f7b84e"/>
    <g id="Group_393" data-name="Group 393" transform="translate(43.502 61.844)">
      <path id="Path_248" data-name="Path 248" d="M90.089,301.378v9.983a1.861,1.861,0,0,1-1.944,1.863,1.674,1.674,0,0,1-1.617-1.863V296.17a1.8,1.8,0,0,1,1.617-1.866,2.228,2.228,0,0,1,1.7.975l5.94,8.012,6.149-8.313a1.753,1.753,0,0,1,3.078,1.191v15.191a1.678,1.678,0,0,1-1.623,1.863,1.7,1.7,0,0,1-1.728-1.863v-9.983l-4.479,5.667a1.769,1.769,0,0,1-3.075,0Z" transform="translate(-86.528 -294.068)" fill="#fff"/>
      <path id="Path_249" data-name="Path 249" d="M196.5,296.17a1.86,1.86,0,0,1,1.836-1.866h6.234a6.747,6.747,0,0,1,0,13.493H200.06v3.564a1.7,1.7,0,0,1-1.728,1.863,1.822,1.822,0,0,1-1.836-1.863Zm3.564,1.536v6.72h4.506a3.362,3.362,0,0,0,0-6.72Z" transform="translate(-173.3 -294.068)" fill="#fff"/>
      <path id="Path_250" data-name="Path 250" d="M296.648,310.265a10.242,10.242,0,0,1-6.639,2.268c-5.67,0-9.69-3.24-9.69-9.663a9.62,9.62,0,0,1,9.929-9.686,8.837,8.837,0,0,1,6.153,2.376,1.75,1.75,0,0,1-2.346,2.592,5.687,5.687,0,0,0-3.807-1.7,6.43,6.43,0,0,0-6.419,6.419c0,4,2.643,6.423,6.18,6.423a6.866,6.866,0,0,0,4.047-1.215v-3.314H290.01a1.65,1.65,0,1,1,0-3.3h5.4a1.849,1.849,0,0,1,1.914,1.6v5.748A2.164,2.164,0,0,1,296.648,310.265Z" transform="translate(-239.442 -293.184)" fill="#fff"/>
    </g>
    <path id="Path_251" data-name="Path 251" d="M160.125,419.375H96v3.375h64.125a3.385,3.385,0,0,0,3.375-3.375V416A3.385,3.385,0,0,1,160.125,419.375Z" transform="translate(-50.5 -328.25)" fill="#cad1d8"/>
  </g>
</svg>
