<svg xmlns="http://www.w3.org/2000/svg" width="11.192" height="16" viewBox="0 0 11.192 16">
  <g id="Group_124" data-name="Group 124" transform="translate(-1167.333 -7281.638)">
    <g id="odnoklassniki" transform="translate(1167.333 7281.638)">
      <g id="Group_121" data-name="Group 121" transform="translate(1.596)">
        <g id="Group_120" data-name="Group 120" transform="translate(0)">
          <path id="Path_114" data-name="Path 114" d="M132,0a4,4,0,1,0,4,4A4,4,0,0,0,132,0Zm0,6a2,2,0,1,1,2-2A2,2,0,0,1,132,6Z" transform="translate(-128.002)" fill="#8b8b8b"/>
        </g>
      </g>
      <g id="Group_123" data-name="Group 123" transform="translate(0 7.596)">
        <g id="Group_122" data-name="Group 122" transform="translate(0)">
          <path id="Path_115" data-name="Path 115" d="M87.822,243.357a1,1,0,0,0-1.414,0,5.508,5.508,0,0,1-7.779,0,1,1,0,0,0-1.414,1.415,7.454,7.454,0,0,0,4.447,2.138l-2.851,2.851a1,1,0,0,0,1.414,1.414l2.293-2.293,2.293,2.293a1,1,0,1,0,1.414-1.414l-2.851-2.851a7.454,7.454,0,0,0,4.447-2.138A1,1,0,0,0,87.822,243.357Z" transform="translate(-76.922 -243.064)" fill="#8b8b8b"/>
        </g>
      </g>
    </g>
  </g>
</svg>
