<svg xmlns="http://www.w3.org/2000/svg" width="165.727" height="35.169" viewBox="0 0 165.727 35.169">
  <g id="Group_236" data-name="Group 236" transform="translate(-1350 -7273)">
    <path id="Разработано-в-OKS-Te" d="M41.733,4.934a3.534,3.534,0,1,1,0,7.066H40.187v3.239H37.832V4.934Zm0,4.858a1.259,1.259,0,0,0,1.251-1.325,1.259,1.259,0,0,0-1.251-1.325H40.187v2.65ZM51.787,7.879h2.208v7.36H51.787v-.692a2.765,2.765,0,0,1-2.193.9,3.7,3.7,0,0,1-3.518-3.886,3.7,3.7,0,0,1,3.518-3.886,2.765,2.765,0,0,1,2.193.9Zm-1.752,5.476a1.681,1.681,0,0,0,1.752-1.8,1.752,1.752,0,1,0-3.5,0A1.681,1.681,0,0,0,50.035,13.355ZM60.089,11.5a1.875,1.875,0,0,0,.78-1.619c0-1.163-1.03-2.208-2.826-2.208A3.113,3.113,0,0,0,55.1,9.395L56.88,10.41a1.239,1.239,0,0,1,1.207-.854c.412,0,.692.177.692.53,0,.324-.221.5-.692.5h-.795v1.855h1.03c.486,0,.692.191.692.515,0,.368-.324.574-.869.574a1.31,1.31,0,0,1-1.34-.9l-1.781,1.06a3.117,3.117,0,0,0,3.091,1.752c1.987,0,3.047-.986,3.047-2.208A1.909,1.909,0,0,0,60.089,11.5Zm6.58-3.827a3.7,3.7,0,0,1,3.518,3.886,3.7,3.7,0,0,1-3.518,3.886,2.765,2.765,0,0,1-2.193-.9v3.636H62.268V7.879h2.208V8.57A2.765,2.765,0,0,1,66.669,7.672Zm-.442,5.682a1.681,1.681,0,0,0,1.752-1.8,1.752,1.752,0,1,0-3.5,0A1.681,1.681,0,0,0,66.228,13.355ZM76.782,7.879H78.99v7.36H76.782v-.692a2.765,2.765,0,0,1-2.193.9,3.7,3.7,0,0,1-3.518-3.886,3.7,3.7,0,0,1,3.518-3.886,2.765,2.765,0,0,1,2.193.9Zm-1.752,5.476a1.681,1.681,0,0,0,1.752-1.8,1.752,1.752,0,1,0-3.5,0A1.681,1.681,0,0,0,75.031,13.355Zm9.141,2.09a3.774,3.774,0,0,1-3.93-4c0-2.37.456-3.621,2.812-4.784,1.575-.78,2.223-.972,2.65-2.017l1.825,1.045c-.294,1.237-1.207,1.781-2.767,2.37-1.31.486-1.693.913-1.9,1.428a3,3,0,0,1,2.017-.692A3.131,3.131,0,0,1,87.926,12,3.421,3.421,0,0,1,84.172,15.445Zm-.015-1.987A1.46,1.46,0,0,0,85.718,12a1.5,1.5,0,0,0-1.6-1.487,1.476,1.476,0,0,0-1.56,1.428A1.518,1.518,0,0,0,84.157,13.458Zm8.332,1.987a3.886,3.886,0,1,1,3.9-3.886A3.858,3.858,0,0,1,92.489,15.445Zm0-2.149a1.651,1.651,0,0,0,1.693-1.737,1.693,1.693,0,1,0-3.386,0A1.651,1.651,0,0,0,92.489,13.3ZM103.6,7.879H96.979V10H99.2v5.241h2.208V10H103.6Zm6.3,0h2.208v7.36H109.9v-.692a2.765,2.765,0,0,1-2.193.9,3.7,3.7,0,0,1-3.518-3.886,3.7,3.7,0,0,1,3.518-3.886,2.765,2.765,0,0,1,2.193.9Zm-1.752,5.476a1.681,1.681,0,0,0,1.752-1.8,1.752,1.752,0,1,0-3.5,0A1.681,1.681,0,0,0,108.152,13.355Zm10.29-5.476v2.65h-2.5V7.879h-2.208v7.36h2.208v-2.65h2.5v2.65h2.208V7.879Zm7.36,7.566a3.886,3.886,0,1,1,3.9-3.886A3.858,3.858,0,0,1,125.8,15.445Zm0-2.149a1.651,1.651,0,0,0,1.693-1.737,1.693,1.693,0,1,0-3.386,0A1.651,1.651,0,0,0,125.8,13.3Zm14.323-1.825a1.793,1.793,0,0,1,.986,1.663c0,1.222-.869,2.105-2.5,2.105h-3.975V7.879h3.68c1.634,0,2.5.883,2.5,2.105A1.765,1.765,0,0,1,140.125,11.47Zm-2.046-1.825H136.7v1.03h1.384c.4,0,.648-.147.648-.5S138.476,9.645,138.079,9.645Zm.236,3.768c.383,0,.648-.177.648-.545s-.265-.515-.648-.515H136.7v1.06ZM42.748,29.033a5.358,5.358,0,1,1,5.358-5.358A5.312,5.312,0,0,1,42.748,29.033Zm0-2.3a2.931,2.931,0,0,0,3-3.062,3,3,0,1,0-6.006,0A2.931,2.931,0,0,0,42.748,26.737Zm15.015,2.09-3.621-5.285,3.474-5.02H54.937L51.787,23V18.523H49.431v10.3h2.355V24.058l3.3,4.769Zm4.49.206c2.238,0,3.827-1.178,3.827-3.165,0-2.179-1.752-2.723-3.312-3.194-1.6-.486-1.855-.81-1.855-1.281,0-.412.368-.78,1.1-.78A1.806,1.806,0,0,1,63.8,21.805l1.987-1.163a4,4,0,0,0-3.768-2.326,3.223,3.223,0,0,0-3.459,3.135c0,1.973,1.5,2.709,3.032,3.135s2.134.677,2.134,1.31c0,.4-.28.839-1.4.839a2.158,2.158,0,0,1-2.164-1.428l-2.031,1.178A4.058,4.058,0,0,0,62.253,29.033Zm15.6-10.51H70.2V20.79h2.65v8.037h2.355V20.79h2.65Zm2.929,7.507a1.675,1.675,0,0,0,1.766,1.03,1.922,1.922,0,0,0,1.413-.559l1.766,1.016a3.735,3.735,0,0,1-3.209,1.516,3.889,3.889,0,1,1-.162-7.772A3.716,3.716,0,0,1,86.1,25.147a4.279,4.279,0,0,1-.088.883Zm-.044-1.649h3.165a1.658,1.658,0,0,0-3.165,0Zm10.142,4.652a3.758,3.758,0,0,0,3.327-1.9l-1.928-1.1a1.509,1.509,0,0,1-1.428.824,1.708,1.708,0,0,1,0-3.415,1.524,1.524,0,0,1,1.428.824l1.928-1.119a3.89,3.89,0,1,0-3.327,5.888Zm8.6-7.772a2.517,2.517,0,0,0-2.105.9V18.523H95.168v10.3h2.208V24.808c0-1.045.559-1.516,1.369-1.516a1.214,1.214,0,0,1,1.281,1.34v4.2h2.208V24.308A2.753,2.753,0,0,0,99.481,21.261Zm8.582,0a2.517,2.517,0,0,0-2.105.9v-.692H103.75v7.36h2.208V24.808c0-1.045.559-1.516,1.369-1.516a1.214,1.214,0,0,1,1.281,1.34v4.2h2.208V24.308A2.753,2.753,0,0,0,108.064,21.261Zm7.8,7.772a3.886,3.886,0,1,1,3.9-3.886A3.858,3.858,0,0,1,115.865,29.033Zm0-2.149a1.738,1.738,0,1,0-1.693-1.737A1.651,1.651,0,0,0,115.865,26.884Zm5.152,1.943h2.208V18.081h-2.208Zm7.36.206a3.886,3.886,0,1,1,3.9-3.886A3.858,3.858,0,0,1,128.378,29.033Zm0-2.149a1.738,1.738,0,1,0-1.693-1.737A1.651,1.651,0,0,0,128.378,26.884Zm10.555-5.417h2.149v6.992c0,2.473-1.928,3.518-3.886,3.518a3.765,3.765,0,0,1-3.489-1.781l1.884-1.089a1.682,1.682,0,0,0,1.678.927,1.467,1.467,0,0,0,1.663-1.575v-.677a2.615,2.615,0,0,1-2.149.957,3.741,3.741,0,0,1,0-7.478,2.615,2.615,0,0,1,2.149.957Zm-1.781,5.241A1.709,1.709,0,1,0,135.37,25,1.666,1.666,0,0,0,137.151,26.707Zm6.654-5.888a1.325,1.325,0,1,0-1.325-1.325A1.338,1.338,0,0,0,143.805,20.819Zm-1.1,8.008h2.208v-7.36H142.7Zm5.8-2.8a1.675,1.675,0,0,0,1.766,1.03,1.922,1.922,0,0,0,1.413-.559l1.766,1.016a3.735,3.735,0,0,1-3.209,1.516,3.889,3.889,0,1,1-.162-7.772,3.716,3.716,0,0,1,3.739,3.886,4.279,4.279,0,0,1-.088.883Zm-.044-1.649h3.165a1.658,1.658,0,0,0-3.165,0Zm8.7-.765c0-.265.236-.412.618-.412a1.069,1.069,0,0,1,.986.648l1.884-1.016a3.22,3.22,0,0,0-2.871-1.575c-1.531,0-2.885.81-2.885,2.414,0,2.547,3.621,2.12,3.621,2.929,0,.294-.265.456-.795.456a1.209,1.209,0,0,1-1.251-.869l-1.914,1.089a3.224,3.224,0,0,0,3.165,1.752c1.59,0,3.062-.721,3.062-2.414C160.778,23.9,157.157,24.455,157.157,23.616Z" transform="translate(1354.949 7273.614)" fill="#8b8b8b" fill-rule="evenodd" opacity="0.9"/>
    <g id="Group-65" transform="translate(1350 7273)">
      <ellipse id="Oval" cx="17.59" cy="17.585" rx="17.59" ry="17.585" fill="#8b8b8b"/>
      <path id="Combined-Shape" d="M10.834,9.706h.143a1.857,1.857,0,0,1,1.881,1.841V21.579a1.857,1.857,0,0,1-1.881,1.842h-.143V22.127h.143a.557.557,0,0,0,.561-.549V11.547A.57.57,0,0,0,10.977,11h-.143V9.706ZM9.658,11a.561.561,0,0,0-.561.548V21.579a.549.549,0,0,0,.561.549h.154v1.294H9.658a1.879,1.879,0,0,1-1.891-1.842V11.547A1.879,1.879,0,0,1,9.658,9.706h.154V11Zm8.1,6.623,1.56,5.8H17.958l-1.561-5.8Zm-3.4-3.195V9.706h1.319v4.72Zm1.319,2.2v6.8H14.364V15.426h1.814l1.8-5.721h1.363l-2.067,6.112.231.8Zm8.18.55a3.131,3.131,0,0,1,.68,2.075v2.332a1.87,1.87,0,0,1-1.88,1.842H21.74a1.856,1.856,0,0,1-1.88-1.842v-2.1H21.18v2.1a.556.556,0,0,0,.561.549h.922a.557.557,0,0,0,.562-.549V19.247a1.885,1.885,0,0,0-.429-1.312l-.077-.1V15.818Zm-2.166-.55L20.52,15.21a3.167,3.167,0,0,1-.66-2.075V11.547a1.882,1.882,0,0,1,1.88-1.841h.922a1.87,1.87,0,0,1,1.88,1.841v1.529H23.225V11.547A.57.57,0,0,0,22.663,11H21.74a.57.57,0,0,0-.561.548v1.588a1.961,1.961,0,0,0,.418,1.312l.1.117Z" transform="translate(1.028 1.285)" fill="#eff0f6" fill-rule="evenodd"/>
    </g>
  </g>
</svg>
