<svg xmlns="http://www.w3.org/2000/svg" width="46" height="52.57" viewBox="0 0 46 52.57">
  <g id="Group_407" data-name="Group 407" transform="translate(-1104 -658)">
    <path id="Path_268" data-name="Path 268" d="M99.286,0A3.3,3.3,0,0,0,96,3.286v46a3.3,3.3,0,0,0,3.286,3.286h32.857a3.3,3.3,0,0,0,3.286-3.286V13.143L122.286,0Z" transform="translate(1014.571 658)" fill="#e2e5e7"/>
    <path id="Path_269" data-name="Path 269" d="M355.286,13.143h9.857L352,0V9.857A3.3,3.3,0,0,0,355.286,13.143Z" transform="translate(784.857 658)" fill="#b0b7bd"/>
    <path id="Path_270" data-name="Path 270" d="M393.857,137.857,384,128h9.857Z" transform="translate(756.143 543.143)" fill="#cad1d8"/>
    <path id="Path_271" data-name="Path 271" d="M71.429,258.071a1.648,1.648,0,0,1-1.643,1.643H33.643A1.648,1.648,0,0,1,32,258.071V241.643A1.648,1.648,0,0,1,33.643,240H69.786a1.648,1.648,0,0,1,1.643,1.643Z" transform="translate(1072 442.642)" fill="#f15642"/>
    <path id="Path_285" data-name="Path 285" d="M3.66-7.56a2.867,2.867,0,0,1,1.08.2,2.567,2.567,0,0,1,.852.552,2.6,2.6,0,0,1,.564.822,2.5,2.5,0,0,1,.2,1.008,2.5,2.5,0,0,1-.2,1.008,2.6,2.6,0,0,1-.564.822A2.567,2.567,0,0,1,4.74-2.6a2.867,2.867,0,0,1-1.08.2H2.46V0H.72V-7.56Zm0,3.48a.94.94,0,0,0,.684-.27.855.855,0,0,0,.276-.63.855.855,0,0,0-.276-.63.94.94,0,0,0-.684-.27H2.46v1.8Zm7.44,2.4a1.992,1.992,0,0,0,.8-.162,2.082,2.082,0,0,0,.648-.438,1.969,1.969,0,0,0,.432-.66,2.211,2.211,0,0,0,.156-.84,2.225,2.225,0,0,0-.156-.834,1.956,1.956,0,0,0-.432-.666,2.082,2.082,0,0,0-.648-.438,1.992,1.992,0,0,0-.8-.162h-.84v4.2ZM8.52-7.56H11.1a3.7,3.7,0,0,1,1.476.294,3.8,3.8,0,0,1,1.2.81,3.8,3.8,0,0,1,.81,1.2A3.7,3.7,0,0,1,14.88-3.78,3.7,3.7,0,0,1,14.586-2.3a3.8,3.8,0,0,1-.81,1.2,3.8,3.8,0,0,1-1.2.81A3.7,3.7,0,0,1,11.1,0H8.52Zm8.52,0h5.22v1.68H18.78v1.56H21.6v1.68H18.78V0H17.04Z" transform="translate(1112 697)" fill="#fff"/>
  </g>
</svg>
