<svg xmlns="http://www.w3.org/2000/svg" width="13.9" height="13.905" viewBox="0 0 13.9 13.905">
  <g id="old-handphone" transform="translate(-0.003 0)" opacity="0.6">
    <path id="Path_25" data-name="Path 25" d="M4.368,4.6,1.157,1.391,2.4.146A.493.493,0,0,1,3.1.14l2.5,2.5a.5.5,0,0,1,0,.7l-.548.547-.51.51A1.4,1.4,0,0,0,4.368,4.6ZM7.01,9.836C6.484,9.384,5.98,8.9,5.49,8.415S4.523,7.42,4.07,6.892a1.582,1.582,0,0,1-.25-1.571l-3.3-3.3C-.242,2.813-.144,4.768.7,6.486A12.368,12.368,0,0,0,2.008,8.537a18.387,18.387,0,0,0,1.57,1.793,17.515,17.515,0,0,0,1.789,1.576,12.372,12.372,0,0,0,2.048,1.31c1.72.84,3.676.932,4.464.164l-3.3-3.3A1.589,1.589,0,0,1,7.01,9.836Zm6.752.973-2.5-2.5a.5.5,0,0,0-.7,0h0l-.55.549L9.5,9.367a1.538,1.538,0,0,1-.2.169l3.21,3.212q.623-.624,1.246-1.244A.489.489,0,0,0,13.762,10.809Z" transform="translate(0 0)" fill="#fff"/>
  </g>
</svg>
