<svg xmlns="http://www.w3.org/2000/svg" width="97.125" height="111" viewBox="0 0 97.125 111">
  <g id="ppt" transform="translate(-32)">
    <path id="Path_260" data-name="Path 260" d="M102.938,0A6.958,6.958,0,0,0,96,6.938v97.125A6.958,6.958,0,0,0,102.938,111h69.375a6.958,6.958,0,0,0,6.938-6.937V27.75L151.5,0Z" transform="translate(-50.125)" fill="#e2e5e7"/>
    <path id="Path_261" data-name="Path 261" d="M358.938,27.75H379.75L352,0V20.813A6.958,6.958,0,0,0,358.938,27.75Z" transform="translate(-250.625)" fill="#b0b7bd"/>
    <path id="Path_262" data-name="Path 262" d="M404.813,148.813,384,128h20.813Z" transform="translate(-275.688 -100.25)" fill="#cad1d8"/>
    <path id="Path_263" data-name="Path 263" d="M115.25,278.156a3.479,3.479,0,0,1-3.469,3.469H35.469A3.479,3.479,0,0,1,32,278.156V243.469A3.479,3.479,0,0,1,35.469,240h76.313a3.479,3.479,0,0,1,3.469,3.469Z" transform="translate(0 -187.969)" fill="#f15642"/>
    <g id="Group_399" data-name="Group 399" transform="translate(47.925 63.808)">
      <path id="Path_264" data-name="Path 264" d="M105.456,296.235a1.909,1.909,0,0,1,1.884-1.915h6.407a6.934,6.934,0,0,1,0,13.868h-4.631v3.663a1.739,1.739,0,0,1-1.773,1.911,1.869,1.869,0,0,1-1.884-1.911V296.235Zm3.66,1.578v6.91h4.631a3.457,3.457,0,0,0,0-6.91Z" transform="translate(-105.456 -294.32)" fill="#fff"/>
      <path id="Path_265" data-name="Path 265" d="M191.616,296.235a1.909,1.909,0,0,1,1.887-1.915h6.407a6.934,6.934,0,0,1,0,13.868h-4.631v3.663a1.741,1.741,0,0,1-1.776,1.911,1.872,1.872,0,0,1-1.887-1.911Zm3.66,1.578v6.91h4.631a3.457,3.457,0,0,0,0-6.91Z" transform="translate(-172.937 -294.32)" fill="#fff"/>
      <path id="Path_266" data-name="Path 266" d="M277.62,298.653h-4.849a1.775,1.775,0,1,1,0-3.549h13.115a1.776,1.776,0,1,1,0,3.549h-4.6v14.007a1.831,1.831,0,0,1-3.663,0Z" transform="translate(-235.079 -294.934)" fill="#fff"/>
    </g>
    <path id="Path_267" data-name="Path 267" d="M161.906,419.469H96v3.469h65.906a3.479,3.479,0,0,0,3.469-3.469V416A3.479,3.479,0,0,1,161.906,419.469Z" transform="translate(-50.125 -325.813)" fill="#cad1d8"/>
  </g>
</svg>
