<svg xmlns="http://www.w3.org/2000/svg" width="16.792" height="17.667" viewBox="0 0 16.792 17.667">
  <g id="printer" transform="translate(-11.95)" opacity="0.5">
    <g id="Group_173" data-name="Group 173" transform="translate(11.95)">
      <path id="Path_129" data-name="Path 129" d="M26.131,3.621h-.454V2.611A2.614,2.614,0,0,0,23.066,0H17.585a2.614,2.614,0,0,0-2.611,2.611V3.621h-.414A2.614,2.614,0,0,0,11.95,6.232v4.211a2.614,2.614,0,0,0,2.611,2.611h.41v3.31a1.306,1.306,0,0,0,1.3,1.3h8.1a1.306,1.306,0,0,0,1.3-1.3v-3.31h.458a2.614,2.614,0,0,0,2.611-2.611V6.232A2.614,2.614,0,0,0,26.131,3.621ZM15.959,2.611A1.625,1.625,0,0,1,17.581.989h5.478a1.625,1.625,0,0,1,1.622,1.622V3.621H15.959Zm8.725,13.76a.317.317,0,0,1-.315.315h-8.1a.317.317,0,0,1-.315-.315V10.911h8.725Zm3.068-5.924a1.625,1.625,0,0,1-1.622,1.622h-.454V10.911h.652a.494.494,0,1,0,0-.989H14.246a.494.494,0,1,0,0,.989h.729v1.157h-.414a1.625,1.625,0,0,1-1.622-1.622V6.236a1.625,1.625,0,0,1,1.622-1.622h11.57a1.625,1.625,0,0,1,1.622,1.622Z" transform="translate(-11.95)" fill="#656565"/>
      <path id="Path_130" data-name="Path 130" d="M141.144,338.389h6.294a.494.494,0,0,0,0-.989h-6.294a.494.494,0,0,0,0,.989Z" transform="translate(-135.938 -325.046)" fill="#656565"/>
      <path id="Path_131" data-name="Path 131" d="M148.442,392.6h-6.3a.494.494,0,1,0,0,.989h6.294a.494.494,0,0,0,0-.989Z" transform="translate(-136.901 -378.225)" fill="#656565"/>
      <path id="Path_132" data-name="Path 132" d="M359.548,151.9h-1a.494.494,0,1,0,0,.989h1a.494.494,0,1,0,0-.989Z" transform="translate(-345.378 -146.338)" fill="#656565"/>
    </g>
  </g>
</svg>
