<svg xmlns="http://www.w3.org/2000/svg" width="36.209" height="39.83" viewBox="0 0 36.209 39.83">
  <g id="quill-drawing-a-line" transform="translate(-13.762)">
    <path id="Path_140" data-name="Path 140" d="M15.765,297.689l.532-2.123-1.466-.579-1.007,1.659a3.822,3.822,0,0,1-.061,2.709A4.011,4.011,0,0,1,15.765,297.689Zm-.985-.974a.356.356,0,0,1,.463.188.346.346,0,0,1-.191.455.356.356,0,0,1-.463-.188A.345.345,0,0,1,14.78,296.715Z" transform="translate(0 -259.526)" fill="#7d7d7d"/>
    <path id="Path_141" data-name="Path 141" d="M46.7,30.919c-4.221,3.462-9.748,10.594-14.434,18.924l0,0-.819,1.446.874.336.462-1.216c2.5-4.507,9.283-16.277,21.686-24.1a79.924,79.924,0,0,0,9.167-6.554,49.052,49.052,0,0,1-4.478,2.835C56.044,24.555,52.206,26.4,46.7,30.919Z" transform="translate(-15.556 -17.38)" fill="#7d7d7d"/>
    <path id="Path_142" data-name="Path 142" d="M27.472,25.89c-.96,3.393-.9,5.977-.534,6.687h.581c1.6-3.321,9.325-15.35,14.131-19.116A72.667,72.667,0,0,1,53.7,5.634,23.982,23.982,0,0,0,57.05,3.476c1.274-1,2.566-2.08,3.7-3.132l-3.279,2.15L58.93.258,56.139,3.1,57.955,0a24.641,24.641,0,0,0-8.285,2.538,23.263,23.263,0,0,0-2.88,4.9,11.316,11.316,0,0,1,.975-3.784C47.012,4,44.15,5.634,44.15,5.634c-1.4,1.161-1.835,4.215-1.835,4.215-.266-1.2.664-3.526.664-3.526A25.639,25.639,0,0,0,36.067,12.6c-1.994,3.913-.354,6.967-.975,6.236s-.487-3.4-.487-3.4c-4.209,4.043-4.652,5.977-4.652,5.977a39.182,39.182,0,0,0-1.329,6.322c-.4-.43,0-2.838,0-2.838a6.867,6.867,0,0,0-.532,4.171C27.605,28.9,27.472,25.89,27.472,25.89Z" transform="translate(-11.373)" fill="#7d7d7d"/>
    <path id="Path_143" data-name="Path 143" d="M79.683,14.191a43.563,43.563,0,0,1-3.7,3.132c-3.255,2.568-6.39,4.667-6.39,4.667-12.28,7.256-19.122,19.1-21.384,23.158h1.2c.425-.341,1.063-.6,3.728-1.369a13.386,13.386,0,0,0,5.376-3.01S55.447,42.489,54,42.317a10.731,10.731,0,0,0-3.393.373s-.743-.344,2.92-.889,9.689-4.644,9.689-4.644a11.135,11.135,0,0,1-3.367.86c-1.063-.086-3.692,0-3.692,0,1.742-.4,3.367-.172,6.026-1.176s2.511-.917,2.511-.917A7.758,7.758,0,0,0,68.957,31.8,17.259,17.259,0,0,1,62.8,32a12.692,12.692,0,0,0-4.464,0,7.5,7.5,0,0,1,3.9-.516,19.077,19.077,0,0,0,6.912-1.29c4.165-1.433,5.346-3.211,5.346-3.211l-2.809.375a13.868,13.868,0,0,0,3.9-1.522,23.429,23.429,0,0,1-3.25.516,14.814,14.814,0,0,0,3.633-1.233,7.629,7.629,0,0,0,2.688-4.128,11.71,11.71,0,0,1-5.553.573c4.254-.286,5.435-1.376,6.026-1.634s.834-1.326.834-1.326a18.452,18.452,0,0,1-4.586.9,15.584,15.584,0,0,0,4.9-1.742V16.427a14.184,14.184,0,0,1-2.813,1.032l2.791-1.806A1.6,1.6,0,0,0,79.683,14.191Z" transform="translate(-30.309 -12.485)" fill="#7d7d7d"/>
    <path id="Path_144" data-name="Path 144" d="M23.551,285.193l1.66.665.309-.735-1.66-.665Z" transform="translate(-8.612 -250.263)" fill="#7d7d7d"/>
  </g>
</svg>
