<svg id="Group_898" data-name="Group 898" xmlns="http://www.w3.org/2000/svg" width="25.806" height="25.806" viewBox="0 0 25.806 25.806">
  <g id="Rectangle_757" data-name="Rectangle 757" transform="translate(0)" fill="#fff" stroke="#9e9e9e" stroke-width="1">
    <rect width="25.806" height="25.806" rx="3" stroke="none"/>
    <rect x="0.5" y="0.5" width="24.806" height="24.806" rx="2.5" fill="none"/>
  </g>
  <g id="printer_1_" data-name="printer (1)" transform="translate(5.734 5.358)">
    <g id="Group_851" data-name="Group 851" transform="translate(0)">
      <path id="Path_867" data-name="Path 867" d="M24.548,3.217h-.4v-.9A2.322,2.322,0,0,0,21.825,0H16.956a2.322,2.322,0,0,0-2.319,2.319v.9h-.368A2.322,2.322,0,0,0,11.95,5.536V9.277A2.322,2.322,0,0,0,14.269,11.6h.364v2.94a1.161,1.161,0,0,0,1.158,1.158h7.192a1.161,1.161,0,0,0,1.158-1.158V11.6h.407a2.322,2.322,0,0,0,2.319-2.319V5.536A2.322,2.322,0,0,0,24.548,3.217Zm-9.036-.9A1.444,1.444,0,0,1,16.953.878h4.866A1.444,1.444,0,0,1,23.26,2.319v.9H15.512Zm7.751,12.224a.282.282,0,0,1-.28.28H15.791a.282.282,0,0,1-.28-.28V9.693h7.751ZM25.989,9.28a1.444,1.444,0,0,1-1.441,1.441h-.4V9.693h.579a.439.439,0,1,0,0-.878H13.989a.439.439,0,1,0,0,.878h.647v1.028h-.368A1.444,1.444,0,0,1,12.828,9.28V5.539A1.444,1.444,0,0,1,14.269,4.1H24.548a1.444,1.444,0,0,1,1.441,1.441Z" transform="translate(-11.95)" fill="#9e9e9e"/>
      <path id="Path_868" data-name="Path 868" d="M141.089,338.278h5.591a.439.439,0,1,0,0-.878h-5.591a.439.439,0,1,0,0,.878Z" transform="translate(-136.464 -326.425)" fill="#9e9e9e"/>
      <path id="Path_869" data-name="Path 869" d="M147.684,392.6h-5.595a.439.439,0,1,0,0,.878h5.591a.439.439,0,0,0,0-.878Z" transform="translate(-137.431 -379.83)" fill="#9e9e9e"/>
      <path id="Path_870" data-name="Path 870" d="M359.38,151.9h-.891a.439.439,0,1,0,0,.878h.891a.439.439,0,0,0,0-.878Z" transform="translate(-346.792 -146.959)" fill="#9e9e9e"/>
    </g>
  </g>
</svg>
