<svg xmlns="http://www.w3.org/2000/svg" width="14.5" height="14.5" viewBox="0 0 14.5 14.5">
  <g id="small-calendar" opacity="0.5">
    <g id="calendar_1_">
      <path id="Path_128" data-name="Path 128" d="M13.292,1.359H11.328V.453a.453.453,0,0,0-.906,0v.906H7.7V.453a.453.453,0,0,0-.906,0v.906H4.078V.453a.453.453,0,0,0-.906,0v.906H1.208A1.208,1.208,0,0,0,0,2.567V13.292A1.208,1.208,0,0,0,1.208,14.5H13.292A1.208,1.208,0,0,0,14.5,13.292V2.567A1.208,1.208,0,0,0,13.292,1.359Zm.3,11.932a.3.3,0,0,1-.3.3H1.208a.3.3,0,0,1-.3-.3V2.567a.3.3,0,0,1,.3-.3H3.172v.906a.453.453,0,0,0,.906,0V2.266H6.8v.906a.453.453,0,0,0,.906,0V2.266h2.719v.906a.453.453,0,0,0,.906,0V2.266h1.964a.3.3,0,0,1,.3.3Z" fill="#656565"/>
      <rect id="Rectangle_281" data-name="Rectangle 281" width="1.813" height="1.359" transform="translate(3.172 5.438)" fill="#656565"/>
      <rect id="Rectangle_282" data-name="Rectangle 282" width="1.813" height="1.359" transform="translate(3.172 7.703)" fill="#656565"/>
      <rect id="Rectangle_283" data-name="Rectangle 283" width="1.813" height="1.359" transform="translate(3.172 9.969)" fill="#656565"/>
      <rect id="Rectangle_284" data-name="Rectangle 284" width="1.813" height="1.359" transform="translate(6.344 9.969)" fill="#656565"/>
      <rect id="Rectangle_285" data-name="Rectangle 285" width="1.813" height="1.359" transform="translate(6.344 7.703)" fill="#656565"/>
      <rect id="Rectangle_286" data-name="Rectangle 286" width="1.813" height="1.359" transform="translate(6.344 5.438)" fill="#656565"/>
      <rect id="Rectangle_287" data-name="Rectangle 287" width="1.813" height="1.359" transform="translate(9.516 9.969)" fill="#656565"/>
      <rect id="Rectangle_288" data-name="Rectangle 288" width="1.813" height="1.359" transform="translate(9.516 7.703)" fill="#656565"/>
      <rect id="Rectangle_289" data-name="Rectangle 289" width="1.813" height="1.359" transform="translate(9.516 5.438)" fill="#656565"/>
    </g>
  </g>
</svg>
