<svg xmlns="http://www.w3.org/2000/svg" width="37.843" height="34" viewBox="0 0 37.843 34">
  <g id="speech-bubble" transform="translate(0 0)">
    <path id="Path_145" data-name="Path 145" d="M246.739,100a.739.739,0,1,0,.739.739A.739.739,0,0,0,246.739,100Zm0,0" transform="translate(-227.818 -92.609)" fill="#7d7d7d"/>
    <path id="Path_146" data-name="Path 146" d="M80.739,261.478a.739.739,0,1,0-.739-.739A.739.739,0,0,0,80.739,261.478Zm0,0" transform="translate(-74.087 -240.783)" fill="#7d7d7d"/>
    <path id="Path_147" data-name="Path 147" d="M24.834,0C18.18,0,12.719,4.587,12.3,10.366,5.959,10.684,0,15.254,0,21.434A10.328,10.328,0,0,0,2.883,28.5a4.5,4.5,0,0,1-1.188,4.235A.739.739,0,0,0,2.217,34a8.153,8.153,0,0,0,5.649-2.283,16.843,16.843,0,0,0,5.142.8c6.653,0,12.114-4.587,12.538-10.364a16.62,16.62,0,0,0,4.431-.788,8.153,8.153,0,0,0,5.649,2.283.739.739,0,0,0,.523-1.262,4.5,4.5,0,0,1-1.188-4.235,10.328,10.328,0,0,0,2.883-7.068C37.843,4.664,31.424,0,24.834,0ZM13.009,31.043a14.941,14.941,0,0,1-5.064-.872.739.739,0,0,0-.819.188,6.669,6.669,0,0,1-3.317,1.968,5.977,5.977,0,0,0,.451-4.4.738.738,0,0,0-.181-.312,8.882,8.882,0,0,1-2.6-6.181c0-5.208,5.28-9.609,11.53-9.609,5.9,0,11.087,4.1,11.087,9.609,0,5.3-4.973,9.609-11.087,9.609ZM33.764,17.267a.741.741,0,0,0-.181.312,5.977,5.977,0,0,0,.451,4.4,6.667,6.667,0,0,1-3.317-1.968.74.74,0,0,0-.819-.188,14.56,14.56,0,0,1-4.354.854A10.58,10.58,0,0,0,21.55,13.3h9.641a.739.739,0,1,0,0-1.478H19.279a13.785,13.785,0,0,0-5.5-1.457C14.2,5.4,19,1.478,24.834,1.478c6.25,0,11.53,4.4,11.53,9.609a8.882,8.882,0,0,1-2.6,6.181Zm0,0" fill="#7d7d7d"/>
    <path id="Path_148" data-name="Path 148" d="M130.052,260h-9.313a.739.739,0,1,0,0,1.478h9.313a.739.739,0,1,0,0-1.478Zm0,0" transform="translate(-111.131 -240.783)" fill="#7d7d7d"/>
    <path id="Path_149" data-name="Path 149" d="M93.009,320H80.739a.739.739,0,1,0,0,1.478H93.009a.739.739,0,1,0,0-1.478Zm0,0" transform="translate(-74.087 -296.349)" fill="#7d7d7d"/>
    <path id="Path_150" data-name="Path 150" d="M296.052,100h-9.313a.739.739,0,1,0,0,1.478h9.313a.739.739,0,0,0,0-1.478Zm0,0" transform="translate(-264.861 -92.609)" fill="#7d7d7d"/>
  </g>
</svg>
