<svg xmlns="http://www.w3.org/2000/svg" width="17.228" height="15" viewBox="0 0 17.228 15">
  <path id="XMLID_497_" d="M.3,26.593l3.97,1.482,1.537,4.941a.467.467,0,0,0,.742.223l2.213-1.8a.66.66,0,0,1,.8-.022l3.991,2.9a.468.468,0,0,0,.733-.283l2.924-14.063a.468.468,0,0,0-.627-.532L.3,25.718A.468.468,0,0,0,.3,26.593Zm5.259.693,7.758-4.778a.135.135,0,0,1,.163.214l-6.4,5.952a1.327,1.327,0,0,0-.411.794l-.218,1.616a.2.2,0,0,1-.392.028l-.839-2.947A.781.781,0,0,1,5.563,27.286Z" transform="translate(0 -19.4)" fill="#8b8b8b"/>
</svg>
