<svg xmlns="http://www.w3.org/2000/svg" width="15.549" height="13.538" viewBox="0 0 15.549 13.538">
  <g id="telegram_1_" data-name="telegram (1)" transform="translate(0 -19.401)" opacity="0.5">
    <path id="XMLID_497_" d="M.275,25.892l3.583,1.337,1.387,4.46a.422.422,0,0,0,.67.2l2-1.628a.6.6,0,0,1,.726-.02l3.6,2.615A.422.422,0,0,0,12.9,32.6L15.54,19.909a.422.422,0,0,0-.565-.48L.271,25.1A.423.423,0,0,0,.275,25.892Zm4.746.625,7-4.313a.122.122,0,0,1,.147.193L6.391,27.769a1.2,1.2,0,0,0-.371.717l-.2,1.459a.181.181,0,0,1-.353.026l-.757-2.66A.705.705,0,0,1,5.021,26.517Z" transform="translate(0 0)" fill="#656565"/>
  </g>
</svg>
