<svg xmlns="http://www.w3.org/2000/svg" width="17.815" height="10.205" viewBox="0 0 17.815 10.205">
  <g id="view" transform="translate(0 -12.644)" opacity="0.5">
    <path id="Path_109" data-name="Path 109" d="M15.366,15.328a9.186,9.186,0,0,0-12.976,0L0,17.717l2.449,2.449a9.186,9.186,0,0,0,12.976,0l2.39-2.39ZM15,19.74a8.584,8.584,0,0,1-12.125,0L.851,17.717l1.964-1.964a8.584,8.584,0,0,1,12.125,0l2.023,2.023Z" fill="#656565"/>
    <path id="Path_110" data-name="Path 110" d="M23.678,21.57a2.109,2.109,0,0,0-2.106,2.106.3.3,0,1,0,.6,0,1.506,1.506,0,0,1,1.5-1.5.3.3,0,0,0,0-.6Z" transform="translate(-15.08 -6.24)" fill="#656565"/>
    <path id="Path_111" data-name="Path 111" d="M20.484,16.57A3.912,3.912,0,1,0,24.4,20.482,3.917,3.917,0,0,0,20.484,16.57Zm0,7.222a3.31,3.31,0,1,1,3.31-3.31A3.314,3.314,0,0,1,20.484,23.792Z" transform="translate(-11.585 -2.744)" fill="#656565"/>
  </g>
</svg>
