<svg xmlns="http://www.w3.org/2000/svg" width="21" height="14" viewBox="0 0 21 14">
  <path id="vk_1_" data-name="vk (1)" d="M18.775,4.951A18.334,18.334,0,0,0,21,0H16.836s-.3,1.3-.386,1.531c-.8,2.056-2.594,5.142-3.679,5.457-1.068.311-.927-2.881-.861-4.264A13.241,13.241,0,0,0,11.932.774a.666.666,0,0,0-.516-.6A12.156,12.156,0,0,0,8.842.031L7.876.071c.381,1.077.638.747.778,1.992.158,1.458.1,5.006-1.04,5.006C5.793,7.07,3.749.156,3.684,0H0L.337,1.066c2.717,8.6,6.115,12.58,10.764,12.912l.6.022.043-.743c.065-1.147.521-2.8,1.328-2.8,1.193,0,1.537.439,2.324,1.668C16.158,13.305,16.679,14,17.9,14H21l-.442-1.124a22.738,22.738,0,0,0-2.617-4.127,1.768,1.768,0,0,1-.189-1.474,13.83,13.83,0,0,1,1.023-2.324Zm0,0" transform="translate(0)" fill="#8b8b8b"/>
</svg>
