<svg xmlns="http://www.w3.org/2000/svg" width="46" height="52.57" viewBox="0 0 46 52.57">
  <g id="Group_406" data-name="Group 406" transform="translate(-1104 -658)">
    <path id="Path_268" data-name="Path 268" d="M99.286,0A3.3,3.3,0,0,0,96,3.286v46a3.3,3.3,0,0,0,3.286,3.286h32.857a3.3,3.3,0,0,0,3.286-3.286V13.143L122.286,0Z" transform="translate(1014.571 658)" fill="#e2e5e7"/>
    <path id="Path_269" data-name="Path 269" d="M355.286,13.143h9.857L352,0V9.857A3.3,3.3,0,0,0,355.286,13.143Z" transform="translate(784.857 658)" fill="#b0b7bd"/>
    <path id="Path_270" data-name="Path 270" d="M393.857,137.857,384,128h9.857Z" transform="translate(756.143 543.143)" fill="#cad1d8"/>
    <path id="Path_271" data-name="Path 271" d="M71.429,258.071a1.648,1.648,0,0,1-1.643,1.643H33.643A1.648,1.648,0,0,1,32,258.071V241.643A1.648,1.648,0,0,1,33.643,240H69.786a1.648,1.648,0,0,1,1.643,1.643Z" transform="translate(1072 442.642)" fill="#84bd5a"/>
    <path id="Path_286" data-name="Path 286" d="M2.04-7.56,3.48-5.1,4.92-7.56H6.84L4.56-3.84,6.96,0H5.04L3.48-2.58,1.92,0H0L2.4-3.84.12-7.56Zm6.72,0H10.5v5.88h3.42V0H8.76Zm6.78,2.1a1.886,1.886,0,0,1,.186-.822,2.039,2.039,0,0,1,.534-.684,2.739,2.739,0,0,1,.846-.474,3.323,3.323,0,0,1,1.134-.18,3.145,3.145,0,0,1,1.1.18,2.4,2.4,0,0,1,.828.5,2.249,2.249,0,0,1,.528.762,2.415,2.415,0,0,1,.186.954L19.2-5.1a.957.957,0,0,0-.252-.708.957.957,0,0,0-.708-.252.939.939,0,0,0-.654.222.66.66,0,0,0-.246.5.454.454,0,0,0,.276.42,4.075,4.075,0,0,0,.69.27l.894.27a3.553,3.553,0,0,1,.894.408,2.247,2.247,0,0,1,.69.7A2.042,2.042,0,0,1,21.06-2.16a2.019,2.019,0,0,1-.186.858,2,2,0,0,1-.546.7,2.765,2.765,0,0,1-.888.48,3.709,3.709,0,0,1-1.2.18,3.52,3.52,0,0,1-1.164-.18,2.43,2.43,0,0,1-.87-.51,2.206,2.206,0,0,1-.54-.78,2.567,2.567,0,0,1-.186-.99l1.68-.12q0,1.02,1.08,1.02A1.1,1.1,0,0,0,19-1.734a.717.717,0,0,0,.258-.546.487.487,0,0,0-.276-.444,3.7,3.7,0,0,0-.69-.288q-.414-.132-.894-.276a3.682,3.682,0,0,1-.894-.4,2.231,2.231,0,0,1-.69-.678A1.956,1.956,0,0,1,15.54-5.46Z" transform="translate(1112 697)" fill="#fff"/>
  </g>
</svg>
