<?xml version="1.0" encoding="UTF-8"?>
<svg width="14px" height="7px" viewBox="0 0 14 7" version="1.1" xmlns="http://www.w3.org/2000/svg" xmlns:xlink="http://www.w3.org/1999/xlink">
    <!-- Generator: Sketch 51.3 (57544) - http://www.bohemiancoding.com/sketch -->
    <title>@2xnext copy</title>
    <desc>Created with Sketch.</desc>
    <defs></defs>
    <g id="Page-1" stroke="none" stroke-width="1" fill="none" fill-rule="evenodd">
        <g id="index-copy" transform="translate(-782.000000, -2179.000000)" fill="#000000" fill-rule="nonzero">
            <g id="Group-11" transform="translate(129.000000, 2049.000000)">
                <g id="Group-25" transform="translate(0.000000, 105.000000)">
                    <g id="next-copy" transform="translate(659.612648, 28.500000) rotate(90.000000) translate(-659.612648, -28.500000) translate(656.112648, 21.887352)">
                        <path d="M6.88188538,6.33804348 L0.653822134,0.109980237 C0.507181818,-0.0366600791 0.272003953,-0.0366600791 0.125363636,0.109980237 C-0.0212766798,0.256620553 -0.0212766798,0.491798419 0.125363636,0.638438735 L6.08781423,6.60088933 L0.125363636,12.5633399 C-0.0212766798,12.7099802 -0.0212766798,12.9451581 0.125363636,13.0917984 C0.197300395,13.1637352 0.29413834,13.2024704 0.388209486,13.2024704 C0.482280632,13.2024704 0.579118577,13.166502 0.651055336,13.0917984 L6.87911858,6.86373518 C7.02575889,6.71986166 7.02575889,6.481917 6.88188538,6.33804348 Z" id="Shape"></path>
                    </g>
                </g>
            </g>
        </g>
    </g>
</svg>