<?xml version="1.0" encoding="UTF-8"?>
<svg width="22px" height="26px" viewBox="0 0 22 26" version="1.1" xmlns="http://www.w3.org/2000/svg" xmlns:xlink="http://www.w3.org/1999/xlink">
    <!-- Generator: Sketch 51.3 (57544) - http://www.bohemiancoding.com/sketch -->
    <title>graduation</title>
    <desc>Created with Sketch.</desc>
    <defs></defs>
    <g id="Page-1" stroke="none" stroke-width="1" fill="none" fill-rule="evenodd">
        <g id="02" transform="translate(-793.000000, -3285.000000)" fill="#FFFFFF" fill-rule="nonzero">
            <g id="Group-16" transform="translate(126.000000, 3186.000000)">
                <g id="graduation" transform="translate(667.000000, 99.000000)">
                    <path d="M15.3710403,14.1165097 L14.8424658,14.1165097 C16.1238763,12.9969677 16.9345926,11.3517944 16.9345926,9.52061929 L16.9345926,1.50684932 L18.3333333,1.50684932 L18.3333333,5.82648402 L19.8401826,5.82648402 L19.8401826,1.50684932 L21.1712329,1.50684932 L21.1712329,0 L0.828767123,0 L0.828767123,1.50684932 L4.72911317,1.50684932 L4.72911317,9.52061929 C4.72911317,11.3517944 5.54002568,12.9969677 6.82124004,14.1165097 L6.62895974,14.1165097 C2.97367295,14.1165097 0,17.0903788 0,20.7454695 L0,25.716895 L22,25.716895 L22,20.7454695 C22,17.0903788 19.0263271,14.1165097 15.3710403,14.1165097 Z M15.4277433,1.50684932 L15.4277433,6.47945205 L6.23596248,6.47945205 L6.23596248,1.50684932 L15.4277433,1.50684932 Z M6.23596248,9.52061929 L6.23596248,7.98630137 L15.4277433,7.98630137 L15.4277433,9.52061929 C15.4277433,12.0547945 13.3660281,14.1165097 10.8318529,14.1165097 C8.29767767,14.1165097 6.23596248,12.0547945 6.23596248,9.52061929 Z M14.1842002,15.623359 L11,19.9292594 L7.81579981,15.623359 L14.1842002,15.623359 Z M20.4931507,24.2100457 L1.50684932,24.2100457 L1.50684932,20.7454695 C1.50684932,18.1436037 3.45712043,15.9884953 5.97246005,15.6653467 L11,22.4634346 L16.02754,15.6653467 C18.5428796,15.9884953 20.4931507,18.1436037 20.4931507,20.7454695 L20.4931507,24.2100457 Z" id="Shape"></path>
                </g>
            </g>
        </g>
    </g>
</svg>