<?xml version="1.0" encoding="UTF-8"?>
<svg width="24px" height="30px" viewBox="0 0 24 30" version="1.1" xmlns="http://www.w3.org/2000/svg" xmlns:xlink="http://www.w3.org/1999/xlink">
    <!-- Generator: Sketch 51.3 (57544) - http://www.bohemiancoding.com/sketch -->
    <title>reception</title>
    <desc>Created with Sketch.</desc>
    <defs></defs>
    <g id="Page-1" stroke="none" stroke-width="1" fill="none" fill-rule="evenodd">
        <g id="02" transform="translate(-792.000000, -3503.000000)" fill="#FFFFFF" fill-rule="nonzero">
            <g id="Group-16" transform="translate(126.000000, 3186.000000)">
                <g id="reception" transform="translate(666.000000, 317.000000)">
                    <path d="M12.0028406,0 C10.1129855,0 8.57095652,1.53623188 8.57095652,3.43188406 C8.57095652,5.32173913 10.1129855,6.85797101 12.0028406,6.85797101 C13.8926957,6.85797101 15.4347246,5.32173913 15.4347246,3.42608696 C15.4347246,1.53623188 13.8926957,0 12.0028406,0 Z M12.0028406,5.22318841 C11.0115362,5.22318841 10.2115362,4.4173913 10.2115362,3.43188406 C10.2115362,2.44057971 11.0115362,1.63478261 12.0028406,1.63478261 C12.9941449,1.63478261 13.7941449,2.44057971 13.7941449,3.43188406 C13.7941449,4.42318841 12.9883478,5.22318841 12.0028406,5.22318841 Z" id="Shape"></path>
                    <path d="M23.1854493,15.0086957 L17.5854493,15.0086957 C17.5738551,14.0927536 17.6202319,11.715942 17.6202319,11.1826087 C17.6202319,8.64927536 14.5245797,8.35942029 13.8405217,8.25507246 C13.4926957,8.20289855 13.1448696,8.37681159 12.9883478,8.69565217 L12.0028406,10.6376812 L11.0231304,8.69565217 C10.8666087,8.3826087 10.5245797,8.20289855 10.1709565,8.25507246 C9.48110145,8.35942029 6.39124638,8.62608696 6.39124638,11.1884058 C6.39124638,11.7043478 6.43762319,14.0753623 6.42602899,15.0086957 L0.820231884,15.0086957 C0.368057971,15.0086957 0.00284057971,15.373913 0.00284057971,15.826087 C0.00284057971,16.2782609 0.368057971,16.6434783 0.820231884,16.6434783 L2.20573913,16.6434783 L2.20573913,28.626087 C2.20573913,29.0782609 2.57095652,29.4434783 3.02313043,29.4434783 C3.47530435,29.4434783 3.84052174,29.0782609 3.84052174,28.626087 L3.84052174,16.6492754 L20.1593623,16.6492754 L20.1593623,28.6318841 C20.1593623,29.084058 20.5245797,29.4492754 20.9767536,29.4492754 C21.4289275,29.4492754 21.7941449,29.084058 21.7941449,28.6318841 L21.7941449,16.6492754 L23.1796522,16.6492754 C23.6318261,16.6492754 23.9970435,16.284058 23.9970435,15.8318841 C24.0028406,15.3797101 23.6376232,15.0086957 23.1854493,15.0086957 Z M15.9448696,15.0086957 L8.05501449,15.0086957 C8.0666087,14.0637681 8.02023188,11.6927536 8.02023188,11.1942029 C8.02023188,10.1681159 9.44052174,10.0637681 9.83472464,9.97681159 L11.2724058,12.8173913 C11.4115362,13.0898551 11.6955942,13.2637681 12.0028406,13.2637681 C12.310087,13.2637681 12.5941449,13.0898551 12.7332754,12.8173913 L14.1651594,9.97681159 C14.5593623,10.057971 15.9796522,10.2318841 15.9796522,11.1884058 C15.9796522,11.7043478 15.9332754,14.0753623 15.9448696,15.0086957 Z" id="Shape"></path>
                    <rect id="Rectangle-path" x="11.2955942" y="21.2695652" width="1.41449275" height="4.3884058"></rect>
                    <circle id="Oval" cx="12.0028406" cy="19.6289855" r="1"></circle>
                </g>
            </g>
        </g>
    </g>
</svg>