<?xml version="1.0" encoding="UTF-8"?>
<svg width="30px" height="30px" viewBox="0 0 30 30" version="1.1" xmlns="http://www.w3.org/2000/svg" xmlns:xlink="http://www.w3.org/1999/xlink">
    <!-- Generator: Sketch 51.3 (57544) - http://www.bohemiancoding.com/sketch -->
    <title>university</title>
    <desc>Created with Sketch.</desc>
    <defs></defs>
    <g id="Page-1" stroke="none" stroke-width="1" fill="none" fill-rule="evenodd">
        <g id="02" transform="translate(-789.000000, -3394.000000)" fill="#FFFFFF" fill-rule="nonzero">
            <g id="Group-16" transform="translate(126.000000, 3186.000000)">
                <g id="university" transform="translate(663.000000, 208.000000)">
                    <path d="M29.9246163,19.9664199 L28.9850603,15.2684119 C28.9030519,14.8585983 28.5430373,14.5634594 28.1247716,14.5634594 L21.4855172,14.5634594 L21.4855172,13.9688414 L21.5478801,13.9688414 C21.9291392,13.9688414 22.2667672,13.7223593 22.3830409,13.359375 C22.4995432,12.9961623 22.3679642,12.5993695 22.0577485,12.3777869 L15.8479532,7.94225146 L15.8479532,5.51260965 L19.6687683,5.51260965 C20.1530519,5.51260965 20.5459613,5.11992871 20.5459613,4.63541667 L20.5459613,0.877192982 C20.5459613,0.392680936 20.1530519,-2.84217094e-14 19.6687683,-2.84217094e-14 L14.9707602,-2.84217094e-14 C14.4862482,-2.84217094e-14 14.0935673,0.392680936 14.0935673,0.877192982 L14.0935673,7.94225146 L7.88400035,12.3777869 C7.57355626,12.5993695 7.44197731,12.9961623 7.55847953,13.359375 C7.67475327,13.7223593 8.01238123,13.9688414 8.39386877,13.9688414 L8.45600327,13.9688414 L8.45600327,14.5634594 L1.81674889,14.5634594 C1.39871164,14.5634594 1.03869702,14.8585983 0.956688596,15.2684119 L0.0171326901,19.9664199 C-0.0344938012,20.2240954 0.0322094152,20.4913651 0.198739064,20.6944444 C0.365497076,20.8977522 0.61449193,21.015625 0.877192982,21.015625 L0.939555906,21.015625 L0.939555906,26.7153235 C0.939555906,28.4943805 2.38669591,29.9415205 4.16575292,29.9415205 L25.775996,29.9415205 C27.5548246,29.9415205 29.0019646,28.4943805 29.0019646,26.7153235 L29.0019646,21.015625 L29.0643275,21.015625 C29.327257,21.015625 29.5760234,20.8977522 29.7427814,20.6944444 C29.9093111,20.4913651 29.9760143,20.2240954 29.9246163,19.9664199 Z M27.4056561,16.3178454 L27.9943348,19.2612391 L21.4855172,19.2612391 L21.4855172,16.3178454 L27.4056561,16.3178454 Z M15.8479532,1.75438596 L18.7915753,1.75438596 L18.7915753,3.75822368 L15.8479532,3.75822368 L15.8479532,1.75438596 Z M14.9707602,9.47185673 L18.8105354,12.2144554 L11.130985,12.2144554 L14.9707602,9.47185673 Z M2.53586439,16.3178454 L8.4562317,16.3178454 L8.4562317,19.2612391 L1.94718567,19.2612391 L2.53586439,16.3178454 Z M2.69394187,26.7153235 L2.69394187,21.015625 L8.4562317,21.015625 L8.4562317,28.1871345 L4.16575292,28.1871345 C3.35412099,28.1871345 2.69394187,27.5269554 2.69394187,26.7153235 Z M10.2106177,20.138432 L10.2106177,13.9688414 L19.7311312,13.9688414 L19.7311312,28.1871345 L17.727065,28.1871345 L17.727065,24.3665479 C17.727065,23.8820358 17.3343842,23.4893549 16.849872,23.4893549 L13.0916484,23.4893549 C12.6071363,23.4893549 12.2144554,23.8820358 12.2144554,24.3665479 L12.2144554,28.1871345 L10.2106177,28.1871345 L10.2106177,20.138432 Z M13.9688414,28.1871345 L13.9688414,25.2437409 L15.9726791,25.2437409 L15.9726791,28.1871345 L13.9688414,28.1871345 Z M27.2475786,26.7153235 C27.2475786,27.5269554 26.5873995,28.1871345 25.775996,28.1871345 L21.4855172,28.1871345 L21.4855172,21.015625 L27.2475786,21.015625 L27.2475786,26.7153235 Z" id="Shape"></path>
                    <path d="M14.9707602,21.4855172 C16.4905427,21.4855172 17.727065,20.2489949 17.727065,18.7289839 C17.727065,17.2092014 16.4905427,15.9726791 14.9707602,15.9726791 C13.4509777,15.9726791 12.2144554,17.2092014 12.2144554,18.7289839 C12.2144554,20.2489949 13.4509777,21.4855172 14.9707602,21.4855172 Z M14.9707602,17.727065 C15.5231177,17.727065 15.9726791,18.1766264 15.9726791,18.7289839 C15.9726791,19.2815698 15.5231177,19.7311312 14.9707602,19.7311312 C14.4184028,19.7311312 13.9688414,19.2815698 13.9688414,18.7289839 C13.9688414,18.1766264 14.4184028,17.727065 14.9707602,17.727065 Z" id="Shape"></path>
                </g>
            </g>
        </g>
    </g>
</svg>