<?xml version="1.0" encoding="UTF-8"?>
<svg width="48px" height="42px" viewBox="0 0 48 42" version="1.1" xmlns="http://www.w3.org/2000/svg" xmlns:xlink="http://www.w3.org/1999/xlink">
    <!-- Generator: Sketch 51.3 (57544) - http://www.bohemiancoding.com/sketch -->
    <title>gallery</title>
    <desc>Created with Sketch.</desc>
    <defs></defs>
    <g id="Page-1" stroke="none" stroke-width="1" fill="none" fill-rule="evenodd">
        <g id="Artboard" transform="translate(-366.000000, -277.000000)" fill="#C2C2C2" fill-rule="nonzero">
            <g id="gallery" transform="translate(366.000000, 277.000000)">
                <path d="M24,15 C21.238641,15 19,17.2385271 19,20 C19,22.761359 21.2385271,25 24,25 C26.761359,25 29,22.7614729 29,20 C29,17.2385271 26.7614729,15 24,15 Z M24,22.6189445 C22.553525,22.6189445 21.3809415,21.446361 21.3809415,19.9998861 C21.3809415,18.5534111 22.553525,17.3808276 24,17.3808276 C25.446475,17.3808276 26.6190585,18.5534111 26.6190585,19.9998861 C26.6190585,21.446361 25.446475,22.6189445 24,22.6189445 Z" id="Shape"></path>
                <path d="M43.8346516,3.65126092 L12.009086,0.0434696117 C10.7739162,-0.13184648 9.52245741,0.228141835 8.57011259,1.03276918 C7.61787933,1.76989872 7.00749056,2.86256127 6.87974515,4.05869819 L6.29691369,8.83043686 L4.48984607,8.83043686 C1.92511987,8.83043686 0.00157521978,11.0998558 0.00157521978,13.6603172 L0.00157521978,37.4606461 C-0.0630226778,39.9022624 1.86721606,41.933991 4.31301072,41.9984815 C4.37191865,42.0000409 4.43093815,42.000375 4.48984607,41.9995953 L36.4902388,41.9995953 C39.054965,41.9995953 41.386514,40.0211076 41.386514,37.4606461 L41.386514,36.5295996 C42.1816594,36.3762259 42.935971,36.0591198 43.6014744,35.5985531 C44.5458979,34.8047299 45.1505967,33.6805461 45.2918418,32.4562294 L47.9731566,8.83043686 C48.2464983,6.26407214 46.4017207,3.95544659 43.8346516,3.65126092 Z M39.054965,37.4606461 C39.054965,38.7408768 37.7726019,39.6719234 36.4902388,39.6719234 L4.48984607,39.6719234 C3.33143507,39.705895 2.36480953,38.7958998 2.33078128,37.6394151 C2.32899619,37.5798254 2.32977717,37.5202358 2.33312421,37.4606461 L2.33312421,33.1544864 L11.3679044,26.5206547 C12.4532384,25.6887386 13.9819437,25.7626966 14.9818165,26.6951911 L21.3352819,32.2815816 C22.3001224,33.0903301 23.5146521,33.5424317 24.7743669,33.5618123 C25.7592896,33.5738416 26.7280349,33.3119813 27.5722703,32.8053022 L39.0550766,26.1714705 L39.0550766,37.4606461 L39.054965,37.4606461 Z M39.054965,23.4364726 L26.3480342,30.8268144 C25.2568987,31.4721648 23.8757979,31.3553245 22.9089492,30.5358833 L16.4972453,24.8912398 C14.659608,23.3148429 11.9737189,23.2181629 10.0271912,24.6584503 L2.33312421,30.2448407 L2.33312421,13.6603172 C2.33312421,12.3800865 3.20748297,11.1581088 4.48984607,11.1581088 L36.4902388,11.1581088 C37.8602944,11.2148025 38.9667147,12.2943219 39.054965,13.6603172 L39.054965,23.4364726 Z M45.643839,8.51622676 C45.643058,8.52391216 45.6423886,8.53170893 45.6414961,8.53939433 L42.9019427,32.1651868 C42.9066286,32.7777907 42.6268159,33.3579823 42.1441726,33.7363487 C41.9109954,33.9691382 41.3864024,34.0855329 41.3864024,34.2019276 L41.3864024,13.6603172 C41.2943588,11.0093018 39.1464508,8.89047204 36.4901272,8.83043686 L8.62835111,8.83043686 L9.15294405,4.29148766 C9.26674346,3.70372209 9.57455969,3.17109086 10.0273028,2.77846747 C10.5385076,2.42560763 11.1565946,2.26109565 11.7760203,2.31288852 L43.5433474,5.97893288 C44.8250411,6.10045122 45.7655597,7.23644157 45.643839,8.51622676 Z" id="Shape"></path>
            </g>
        </g>
    </g>
</svg>