<?xml version="1.0" encoding="UTF-8"?>
<svg width="42px" height="16px" viewBox="0 0 42 16" version="1.1" xmlns="http://www.w3.org/2000/svg" xmlns:xlink="http://www.w3.org/1999/xlink">
    <!-- Generator: Sketch 51.3 (57544) - http://www.bohemiancoding.com/sketch -->
    <title>right-arrow</title>
    <desc>Created with Sketch.</desc>
    <defs></defs>
    <g id="Page-1" stroke="none" stroke-width="1" fill="none" fill-rule="evenodd">
        <g id="12" transform="translate(-1166.000000, -464.000000)" fill="#1E201D" fill-rule="nonzero">
            <g id="right-arrow" transform="translate(1166.000000, 464.000000)">
                <path d="M35.0813445,0.89578901 C34.7956163,0.60007033 34.3200687,0.60007033 34.02435,0.89578901 C33.7386218,1.18151719 33.7386218,1.6570648 34.02435,1.94212695 L39.3839181,7.30169502 L1.67145727,7.30169502 C1.2591828,7.30236105 0.931494534,7.63004932 0.931494534,8.04232379 C0.931494534,8.45459825 1.2591828,8.79294305 1.67145727,8.79294305 L39.3839181,8.79294305 L34.02435,14.1425206 C33.7386218,14.4382393 33.7386218,14.9144529 34.02435,15.1995151 C34.3200687,15.4952338 34.7962823,15.4952338 35.0813445,15.1995151 L41.7097055,8.57115404 C42.0054242,8.28542585 42.0054242,7.80987825 41.7097055,7.52481609 L35.0813445,0.89578901 Z" id="Shape"></path>
            </g>
        </g>
    </g>
</svg>