<?xml version="1.0" encoding="UTF-8"?>
<svg width="13px" height="24px" viewBox="0 0 13 24" version="1.1" xmlns="http://www.w3.org/2000/svg" xmlns:xlink="http://www.w3.org/1999/xlink">
    <!-- Generator: Sketch 51.3 (57544) - http://www.bohemiancoding.com/sketch -->
    <title>facebook-logo (1)</title>
    <desc>Created with Sketch.</desc>
    <defs></defs>
    <g id="Page-1" stroke="none" stroke-width="1" fill="none" fill-rule="evenodd" opacity="1">
        <g id="02" transform="translate(-946.000000, -4916.000000)" fill="#FFFFFF" fill-rule="nonzero">
            <g id="facebook-logo-(1)" transform="translate(946.000000, 4916.000000)">
                <path d="M12.2859811,0.00490566038 L9.2285283,0 C5.79358491,0 3.57377358,2.27745283 3.57377358,5.80241509 L3.57377358,8.47771698 L0.499641509,8.47771698 C0.234,8.47771698 0.0188867925,8.69307547 0.0188867925,8.95871698 L0.0188867925,12.8349245 C0.0188867925,13.100566 0.234245283,13.3156792 0.499641509,13.3156792 L3.57377358,13.3156792 L3.57377358,23.0965849 C3.57377358,23.3622264 3.78888679,23.5773396 4.0545283,23.5773396 L8.06539623,23.5773396 C8.33103774,23.5773396 8.54615094,23.3619811 8.54615094,23.0965849 L8.54615094,13.3156792 L12.1405283,13.3156792 C12.4061698,13.3156792 12.621283,13.100566 12.621283,12.8349245 L12.6227547,8.95871698 C12.6227547,8.83116981 12.5719811,8.70901887 12.4819623,8.61875472 C12.3919434,8.52849057 12.2693019,8.47771698 12.1417547,8.47771698 L8.54615094,8.47771698 L8.54615094,6.20983019 C8.54615094,5.11979245 8.80590566,4.56643396 10.2258491,4.56643396 L12.2854906,4.56569811 C12.5508868,4.56569811 12.766,4.35033962 12.766,4.0849434 L12.766,0.485660377 C12.766,0.220509434 12.5511321,0.00539622642 12.2859811,0.00490566038 Z" id="Shape"></path>
            </g>
        </g>
    </g>
</svg>