<?xml version="1.0" encoding="UTF-8"?>
<svg width="76px" height="80px" viewBox="0 0 76 80" version="1.1" xmlns="http://www.w3.org/2000/svg" xmlns:xlink="http://www.w3.org/1999/xlink">
    <!-- Generator: Sketch 51.3 (57544) - http://www.bohemiancoding.com/sketch -->
    <title>Group 18</title>
    <desc>Created with Sketch.</desc>
    <defs></defs>
    <g id="Page-1" stroke="none" stroke-width="1" fill="none" fill-rule="evenodd">
        <g id="02" transform="translate(-129.000000, -4888.000000)">
            <g id="Group-18" transform="translate(129.000000, 4888.000000)">
                <rect id="Rectangle-15" stroke="#FFFFFF" x="0.5" y="0.5" width="75" height="79" rx="10"></rect>
                <g id="analysis" transform="translate(19.000000, 20.000000)" fill="#FFFFFF" fill-rule="nonzero">
                    <path d="M37.8053254,2.62599603 C37.7082143,2.51071429 37.5692579,2.43871032 37.4190675,2.42589286 L29.01775,1.70834127 L28.8654484,0.497619048 C28.8262421,0.186154762 28.5413175,-0.0346071429 28.2306071,0.00452380952 L20.4370635,0.984380952 C20.406377,0.976388889 20.3749365,0.970357143 20.3422143,0.96756746 L9.63013492,0.0525515873 C9.32168651,0.0254087302 9.0416627,0.262607143 9.0154246,0.570452381 L8.85573413,2.44029365 L0.558388889,3.48348413 C0.251373016,3.5220873 0.026765873,3.81108333 0.0652936508,4.1183254 L4.30063492,37.8062302 C4.31986111,37.9598889 4.2869127,38.1075159 4.34971825,38.256123 C4.43778175,38.4642937 4.64738492,38.60325 4.8735,38.60325 L32.7634643,38.60325 C33.0774921,38.60325 33.331881,38.3488611 33.331881,38.0348333 L33.331881,37.2945119 L34.43275,37.3885317 C34.7411984,37.4152976 35.0212222,37.178627 35.0474603,36.870631 L37.9368929,3.04075397 C37.9497857,2.8904881 37.9025119,2.74135317 37.8053254,2.62599603 Z M4.30508333,28.7279246 L1.26425397,4.54047222 L4.30508333,4.15821032 L4.30508333,28.7279246 Z M10.0997817,1.23364286 L15.0744643,1.65850397 L10.0091548,2.29538095 L10.0997817,1.23364286 Z M27.8084603,1.20340873 L28.0988889,3.51334127 L9.43432937,3.51334127 L27.8084603,1.20340873 Z M33.9631786,36.2074405 L33.331881,36.1535317 L33.331881,19.5424802 C33.331881,19.2285278 33.0774921,18.9740635 32.7634643,18.9740635 C32.4494365,18.9740635 32.1950476,19.2284524 32.1950476,19.5424802 L32.1950476,37.4663413 L5.44191667,37.4663413 L5.44191667,4.6501746 L32.195123,4.6501746 L32.195123,16.8899444 C32.195123,17.2039722 32.4495119,17.4583611 32.7635397,17.4583611 C33.0775675,17.4583611 33.3319563,17.2039722 33.3319563,16.8899444 L33.3319563,4.08175794 C33.3319563,3.76780556 33.0775675,3.51334127 32.7635397,3.51334127 L29.2446944,3.51334127 L29.1627381,2.86168651 L36.755877,3.51025 L33.9631786,36.2074405 Z" id="Shape"></path>
                    <path d="M29.7319841,6.54489683 L26.7004286,6.54489683 C26.5103532,6.54489683 26.332869,6.63982143 26.2275397,6.79800397 L24.9409683,8.72786111 C23.5561548,7.73586508 21.8607063,7.1511627 20.031127,7.1511627 C19.7171746,7.1511627 19.4627103,7.40555159 19.4627103,7.71957937 L19.4627103,15.6015635 C19.4627103,15.9155159 19.7170992,16.1699802 20.031127,16.1699802 L27.9131111,16.1699802 C28.2271389,16.1699802 28.4815278,15.9155913 28.4815278,15.6015635 C28.4815278,13.1815516 27.4586944,10.99625 25.8230357,9.45423413 L27.0047302,7.68173016 L29.7320595,7.68173016 C30.0460119,7.68173016 30.3004762,7.42734127 30.3004762,7.11331349 C30.3004762,6.79928571 30.0459365,6.54489683 29.7319841,6.54489683 Z M27.3228294,15.0331468 L20.5995437,15.0331468 L20.5995437,8.30986111 C21.9780238,8.41632143 23.2497421,8.90790873 24.3095198,9.67507143 L23.8023254,10.4359008 C23.6439167,10.6734008 23.6903611,11.0023571 23.9091627,11.1860992 C24.1653611,11.4012817 24.5627778,11.3445079 24.7481786,11.0665198 L25.1822381,10.4153929 C26.3907738,11.6158611 27.1837976,13.2341786 27.3228294,15.0331468 Z" id="Shape"></path>
                    <path d="M29.7319841,25.3402698 L24.5902976,25.3402698 L23.6843294,23.8907659 C25.1519286,22.3700119 26.0562381,20.3020278 26.0562381,18.0267778 C26.0562381,17.71275 25.8018492,17.4583611 25.4878214,17.4583611 L18.174254,17.4583611 L18.174254,10.1447937 C18.174254,9.83084127 17.9197897,9.57637698 17.6058373,9.57637698 C12.9463135,9.57637698 9.15543651,13.367254 9.15543651,18.0267778 C9.15543651,22.6863016 12.9463135,26.4771786 17.6058373,26.4771786 C19.5754286,26.4771786 21.389627,25.7998135 22.828123,24.6659206 L23.7932024,26.2100476 C23.8970992,26.3762222 24.0792579,26.4771786 24.2752143,26.4771786 L29.7319841,26.4771786 C30.0459365,26.4771786 30.3004008,26.2227897 30.3004008,25.9087619 C30.3004008,25.5947341 30.0459365,25.3402698 29.7319841,25.3402698 Z M21.7258214,20.7570476 C21.559496,20.4906706 21.2086746,20.4098452 20.9425238,20.576246 C20.6762976,20.7425714 20.5953214,21.0933175 20.7617222,21.3595437 L22.2217063,23.6954881 C20.9619008,24.7232222 19.3546667,25.3404206 17.6059127,25.3404206 C13.5732381,25.3404206 10.2923452,22.0595278 10.2923452,18.0268532 C10.2923452,14.1853849 13.2693889,11.0261825 17.037496,10.7351508 L17.037496,18.0268532 C17.037496,18.3408056 17.2919603,18.5952698 17.6059127,18.5952698 L24.8976151,18.5952698 C24.7706468,20.238996 24.0978056,21.7320794 23.0607976,22.8931905 L21.7258214,20.7570476 Z" id="Shape"></path>
                    <path d="M12.7554087,28.3718254 L7.90498016,28.3718254 C7.59110317,28.3718254 7.33656349,28.6262143 7.33656349,28.9402421 C7.33656349,29.2542698 7.59102778,29.5086587 7.90498016,29.5086587 L12.7554087,29.5086587 C13.0693611,29.5086587 13.3238254,29.2542698 13.3238254,28.9402421 C13.3238254,28.6262143 13.0693611,28.3718254 12.7554087,28.3718254 Z" id="Shape"></path>
                    <path d="M20.031127,28.3718254 L15.1806984,28.3718254 C14.866746,28.3718254 14.6122817,28.6262143 14.6122817,28.9402421 C14.6122817,29.2542698 14.866746,29.5086587 15.1806984,29.5086587 L20.031127,29.5086587 C20.3450794,29.5086587 20.5995437,29.2542698 20.5995437,28.9402421 C20.5995437,28.6262143 20.3450794,28.3718254 20.031127,28.3718254 Z" id="Shape"></path>
                    <path d="M15.7869643,31.403381 L7.90498016,31.403381 C7.59110317,31.403381 7.33656349,31.6577698 7.33656349,31.9717976 C7.33656349,32.2858254 7.59102778,32.5402143 7.90498016,32.5402143 L15.7869643,32.5402143 C16.1009167,32.5402143 16.355381,32.2858254 16.355381,31.9717976 C16.355381,31.6577698 16.1008413,31.403381 15.7869643,31.403381 Z" id="Shape"></path>
                    <path d="M20.031127,31.403381 L18.2121786,31.403381 C17.8983016,31.403381 17.6437619,31.6577698 17.6437619,31.9717976 C17.6437619,32.2858254 17.8982262,32.5402143 18.2121786,32.5402143 L20.031127,32.5402143 C20.3450794,32.5402143 20.5995437,32.2858254 20.5995437,31.9717976 C20.5994683,31.6577698 20.3450794,31.403381 20.031127,31.403381 Z" id="Shape"></path>
                    <path d="M10.3301944,34.4348611 L7.90498016,34.4348611 C7.59110317,34.4348611 7.33656349,34.68925 7.33656349,35.0032778 C7.33656349,35.3173056 7.59102778,35.5716944 7.90498016,35.5716944 L10.3301944,35.5716944 C10.6441468,35.5716944 10.8986111,35.3173056 10.8986111,35.0032778 C10.8986111,34.68925 10.6441468,34.4348611 10.3301944,34.4348611 Z" id="Shape"></path>
                </g>
            </g>
        </g>
    </g>
</svg>