<?xml version="1.0" encoding="UTF-8"?>
<svg width="152px" height="32px" viewBox="0 0 152 32" version="1.1" xmlns="http://www.w3.org/2000/svg" xmlns:xlink="http://www.w3.org/1999/xlink">
    <!-- Generator: Sketch 51.3 (57544) - http://www.bohemiancoding.com/sketch -->
    <title>Group 13</title>
    <desc>Created with Sketch.</desc>
    <defs></defs>
    <g id="Page-1" stroke="none" stroke-width="1" fill="none" fill-rule="evenodd">
        <g id="02" transform="translate(-1201.000000, -5328.000000)">
            <g id="Group-13" transform="translate(1201.000000, 5328.000000)">
                <g id="Group-65">
                    <ellipse id="Oval" fill="#FFFFFF" cx="15.5342466" cy="15.5294118" rx="15.5342466" ry="15.5294118"></ellipse>
                    <path d="M10.4759075,9.70588235 L10.6021233,9.70588235 C11.5244692,9.70588235 12.2633168,10.4328529 12.2633168,11.3316176 L12.2633168,20.1911471 C12.2633168,21.0908824 11.5244692,21.8178529 10.6021233,21.8178529 L10.4759075,21.8178529 L10.4759075,20.6754706 L10.6021233,20.6754706 C10.8632928,20.6754706 11.0972774,20.4677647 11.0972774,20.1911471 L11.0972774,11.3316176 C11.0972774,11.0724706 10.8632928,10.8472941 10.6021233,10.8472941 L10.4759075,10.8472941 L10.4759075,9.70588235 L10.4759075,9.70588235 Z M9.43705479,10.8472941 C9.16423459,10.8472941 8.94190068,11.0724706 8.94190068,11.3316176 L8.94190068,20.1911471 C8.94190068,20.4677647 9.16423459,20.6754706 9.43705479,20.6754706 L9.57297945,20.6754706 L9.57297945,21.8178529 L9.43705479,21.8178529 C8.53315582,21.8178529 7.76712329,21.0908824 7.76712329,20.1911471 L7.76712329,11.3316176 C7.76712329,10.4328529 8.53315582,9.70588235 9.43705479,9.70588235 L9.57297945,9.70588235 L9.57297945,10.8472941 L9.43705479,10.8472941 Z M16.5925171,16.6960588 L17.9702106,21.8178529 L16.7672774,21.8178529 L15.388613,16.6960588 L16.5925171,16.6960588 Z M13.5924658,13.8745588 L13.5924658,9.70588235 L14.7575342,9.70588235 L14.7575342,13.8745588 L13.5924658,13.8745588 Z M14.7575342,15.8137941 L14.7575342,21.8178529 L13.5924658,21.8178529 L13.5924658,14.7577941 L15.1944349,14.7577941 L16.7866952,9.70588235 L17.9905993,9.70588235 L16.1653253,15.1033235 L16.3692123,15.8137941 L14.7575342,15.8137941 Z M21.9809589,16.2990882 C22.4168887,16.8173824 22.5819401,17.457 22.5819401,18.1315588 L22.5819401,20.1911471 C22.5819401,21.0908824 21.8256164,21.8178529 20.9217175,21.8178529 L20.1071404,21.8178529 C19.1847945,21.8178529 18.4469178,21.0908824 18.4469178,20.1911471 L18.4469178,18.3392647 L19.6119863,18.3392647 L19.6119863,20.1911471 C19.6119863,20.4677647 19.845,20.6754706 20.1071404,20.6754706 L20.9217175,20.6754706 C21.1838579,20.6754706 21.4178425,20.4677647 21.4178425,20.1911471 L21.4178425,18.1315588 C21.4178425,17.6996471 21.3294914,17.3007353 21.0391952,16.9726765 L20.9712329,16.8853235 L20.9712329,15.1033235 L21.9809589,16.2990882 Z M20.0683048,15.8137941 L19.0294521,14.5665882 C18.6022603,14.0492647 18.4469178,13.4077059 18.4469178,12.7341176 L18.4469178,11.3316176 C18.4469178,10.4493529 19.2032414,9.70588235 20.1071404,9.70588235 L20.9217175,9.70588235 C21.8256164,9.70588235 22.5819401,10.4328529 22.5819401,11.3316176 L22.5819401,12.6817059 L21.4178425,12.6817059 L21.4178425,11.3316176 C21.4178425,11.0724706 21.1838579,10.8472941 20.9217175,10.8472941 L20.1071404,10.8472941 C19.845,10.8472941 19.6119863,11.0724706 19.6119863,11.3316176 L19.6119863,12.7341176 C19.6119863,13.1660294 19.6993664,13.5465 19.9809247,13.893 L20.0683048,13.9958824 L20.0683048,15.8137941 Z" id="Combined-Shape" fill="#18254A"></path>
                </g>
                <path d="M41.781,13 L41.781,5.19 L45.114,5.19 C45.4880019,5.19 45.8308318,5.26699923 46.1425,5.421 C46.4541682,5.57500077 46.7218322,5.77666542 46.9455,6.026 C47.1691678,6.27533458 47.345166,6.55766509 47.4735,6.873 C47.601834,7.18833491 47.666,7.50733172 47.666,7.83 C47.666,8.17466839 47.6055006,8.50466509 47.4845,8.82 C47.3634994,9.13533491 47.1948344,9.41766542 46.9785,9.667 C46.7621656,9.91633458 46.5000015,10.1143326 46.192,10.261 C45.8839985,10.4076674 45.5430019,10.481 45.169,10.481 L43.585,10.481 L43.585,13 L41.781,13 Z M43.585,8.908 L45.059,8.908 C45.2716677,8.908 45.4549992,8.81633425 45.609,8.633 C45.7630008,8.44966575 45.84,8.18200176 45.84,7.83 C45.84,7.64666575 45.8161669,7.48900066 45.7685,7.357 C45.7208331,7.22499934 45.6566671,7.11500044 45.576,7.027 C45.4953329,6.93899956 45.4036672,6.87483353 45.301,6.8345 C45.1983328,6.79416646 45.0956672,6.774 44.993,6.774 L43.585,6.774 L43.585,8.908 Z M50.13,13.11 C49.8439986,13.11 49.5781679,13.0641671 49.3325,12.9725 C49.0868321,12.8808329 48.8760009,12.7525008 48.7,12.5875 C48.5239991,12.4224992 48.3846672,12.2281678 48.282,12.0045 C48.1793328,11.7808322 48.128,11.5370013 48.128,11.273 C48.128,10.9869986 48.1884994,10.7266678 48.3095,10.492 C48.4305006,10.2573322 48.6009989,10.0556675 48.821,9.887 C49.0410011,9.71833249 49.3013318,9.58633381 49.602,9.491 C49.9026682,9.39566619 50.2363315,9.348 50.603,9.348 C50.8450012,9.348 51.0796655,9.36816647 51.307,9.4085 C51.5343345,9.44883353 51.7323325,9.50933293 51.901,9.59 L51.901,9.326 C51.901,8.65866333 51.5160039,8.325 50.746,8.325 C50.4306651,8.325 50.1300014,8.37816614 49.844,8.4845 C49.5579986,8.59083387 49.2573349,8.75033227 48.942,8.963 L48.425,7.863 C48.8063352,7.61366542 49.2023313,7.42666729 49.613,7.302 C50.0236687,7.17733271 50.4599977,7.115 50.922,7.115 C51.794671,7.115 52.4693309,7.32033128 52.946,7.731 C53.422669,8.14166872 53.661,8.74299604 53.661,9.535 L53.661,11.02 C53.661,11.1960009 53.6884997,11.318833 53.7435,11.3885 C53.7985003,11.458167 53.895666,11.5003333 54.035,11.515 L54.035,13 C53.8809992,13.0366668 53.7416673,13.0604999 53.617,13.0715 C53.4923327,13.0825001 53.3786672,13.088 53.276,13.088 C52.9459983,13.088 52.6966675,13.023834 52.528,12.8955 C52.3593325,12.767166 52.2530002,12.5856678 52.209,12.351 L52.176,12.087 C51.919332,12.4170016 51.6131684,12.6699991 51.2575,12.846 C50.9018316,13.0220009 50.526002,13.11 50.13,13.11 Z M50.647,11.845 C50.8376676,11.845 51.0228324,11.8120003 51.2025,11.746 C51.3821676,11.6799997 51.5306661,11.5920005 51.648,11.482 C51.8166675,11.3499993 51.901,11.2106674 51.901,11.064 L51.901,10.514 C51.7469992,10.455333 51.5801676,10.4095002 51.4005,10.3765 C51.2208324,10.3434998 51.0540008,10.327 50.9,10.327 C50.5773317,10.327 50.311501,10.4003326 50.1025,10.547 C49.893499,10.6936674 49.789,10.8843322 49.789,11.119 C49.789,11.3316677 49.8696659,11.5058327 50.031,11.6415 C50.1923341,11.7771673 50.3976654,11.845 50.647,11.845 Z M54.673,7.863 C54.9956683,7.60633205 55.3421648,7.41750061 55.7125,7.2965 C56.0828352,7.1754994 56.4549981,7.115 56.829,7.115 C57.0930013,7.115 57.3441655,7.14616636 57.5825,7.2085 C57.8208345,7.27083364 58.0316658,7.36433271 58.215,7.489 C58.3983343,7.61366729 58.5449995,7.7731657 58.655,7.9675 C58.7650005,8.1618343 58.82,8.39099868 58.82,8.655 C58.82,8.94100143 58.7393341,9.20316547 58.578,9.4415 C58.4166659,9.67983453 58.1893348,9.82833304 57.896,9.887 C58.3066687,9.98966718 58.6146656,10.1711654 58.82,10.4315 C59.0253344,10.6918346 59.128,11.0053315 59.128,11.372 C59.128,11.628668 59.0675006,11.8633323 58.9465,12.076 C58.8254994,12.2886677 58.660501,12.4719992 58.4515,12.626 C58.242499,12.7800008 57.9931681,12.8991662 57.7035,12.9835 C57.4138319,13.0678338 57.1040017,13.11 56.774,13.11 C56.2899976,13.11 55.844502,13.0366674 55.4375,12.89 C55.030498,12.7433326 54.7133345,12.541668 54.486,12.285 L55.289,11.163 C55.4136673,11.3170008 55.5859989,11.4379996 55.806,11.526 C56.0260011,11.6140004 56.2643321,11.658 56.521,11.658 C56.7996681,11.658 57.0214992,11.6085005 57.1865,11.5095 C57.3515008,11.4104995 57.434,11.2583344 57.434,11.053 C57.434,10.8403323 57.3515008,10.6771672 57.1865,10.5635 C57.0214992,10.4498328 56.7153356,10.393 56.268,10.393 L55.773,10.393 L55.773,9.48 L56.246,9.48 C56.5906684,9.48 56.8491658,9.4195006 57.0215,9.2985 C57.1938342,9.1774994 57.28,9.02166762 57.28,8.831 C57.28,8.66966586 57.2195006,8.55050038 57.0985,8.4735 C56.9774994,8.39649961 56.8216676,8.358 56.631,8.358 C56.432999,8.358 56.2185012,8.40016625 55.9875,8.4845 C55.7564988,8.56883375 55.5530009,8.68799923 55.377,8.842 L54.673,7.863 Z M63.649,13.11 C63.2089978,13.11 62.8276683,13.0183342 62.505,12.835 C62.1823317,12.6516657 61.9330009,12.3950017 61.757,12.065 L61.757,15.343 L59.997,15.343 L59.997,7.225 L61.526,7.225 L61.526,8.16 C61.7386677,7.82999835 62.0044984,7.57333425 62.3235,7.39 C62.6425016,7.20666575 63.0219978,7.115 63.462,7.115 C63.8506686,7.115 64.208165,7.19199923 64.5345,7.346 C64.860835,7.50000077 65.1431655,7.71083199 65.3815,7.9785 C65.6198345,8.24616801 65.8068327,8.56149818 65.9425,8.9245 C66.0781673,9.28750181 66.146,9.67799791 66.146,10.096 C66.146,10.5286688 66.0836673,10.9283315 65.959,11.295 C65.8343327,11.6616685 65.6620011,11.978832 65.442,12.2465 C65.2219989,12.514168 64.9580015,12.7249992 64.65,12.879 C64.3419985,13.0330008 64.0083351,13.11 63.649,13.11 Z M63.055,11.625 C63.2456676,11.625 63.4198325,11.5828338 63.5775,11.4985 C63.7351675,11.4141662 63.8726661,11.302334 63.99,11.163 C64.1073339,11.023666 64.1971664,10.8605009 64.2595,10.6735 C64.3218336,10.4864991 64.353,10.2903344 64.353,10.085 C64.353,9.87233227 64.318167,9.67616757 64.2485,9.4965 C64.178833,9.31683244 64.0835006,9.16100066 63.9625,9.029 C63.8414994,8.89699934 63.6948342,8.7943337 63.5225,8.721 C63.3501658,8.6476663 63.165001,8.611 62.967,8.611 C62.7249988,8.611 62.4921678,8.68249928 62.2685,8.8255 C62.0448322,8.96850071 61.8743339,9.16099879 61.757,9.403 L61.757,10.591 C61.8743339,10.8843348 62.0521655,11.129999 62.2905,11.328 C62.5288345,11.526001 62.7836653,11.625 63.055,11.625 Z M68.665,13.11 C68.3789986,13.11 68.1131679,13.0641671 67.8675,12.9725 C67.6218321,12.8808329 67.4110009,12.7525008 67.235,12.5875 C67.0589991,12.4224992 66.9196672,12.2281678 66.817,12.0045 C66.7143328,11.7808322 66.663,11.5370013 66.663,11.273 C66.663,10.9869986 66.7234994,10.7266678 66.8445,10.492 C66.9655006,10.2573322 67.1359989,10.0556675 67.356,9.887 C67.5760011,9.71833249 67.8363318,9.58633381 68.137,9.491 C68.4376682,9.39566619 68.7713315,9.348 69.138,9.348 C69.3800012,9.348 69.6146655,9.36816647 69.842,9.4085 C70.0693345,9.44883353 70.2673325,9.50933293 70.436,9.59 L70.436,9.326 C70.436,8.65866333 70.0510039,8.325 69.281,8.325 C68.9656651,8.325 68.6650014,8.37816614 68.379,8.4845 C68.0929986,8.59083387 67.7923349,8.75033227 67.477,8.963 L66.96,7.863 C67.3413352,7.61366542 67.7373313,7.42666729 68.148,7.302 C68.5586687,7.17733271 68.9949977,7.115 69.457,7.115 C70.329671,7.115 71.0043309,7.32033128 71.481,7.731 C71.957669,8.14166872 72.196,8.74299604 72.196,9.535 L72.196,11.02 C72.196,11.1960009 72.2234997,11.318833 72.2785,11.3885 C72.3335003,11.458167 72.430666,11.5003333 72.57,11.515 L72.57,13 C72.4159992,13.0366668 72.2766673,13.0604999 72.152,13.0715 C72.0273327,13.0825001 71.9136672,13.088 71.811,13.088 C71.4809983,13.088 71.2316675,13.023834 71.063,12.8955 C70.8943325,12.767166 70.7880002,12.5856678 70.744,12.351 L70.711,12.087 C70.4543321,12.4170016 70.1481684,12.6699991 69.7925,12.846 C69.4368316,13.0220009 69.061002,13.11 68.665,13.11 Z M69.182,11.845 C69.3726676,11.845 69.5578324,11.8120003 69.7375,11.746 C69.9171676,11.6799997 70.0656661,11.5920005 70.183,11.482 C70.3516675,11.3499993 70.436,11.2106674 70.436,11.064 L70.436,10.514 C70.2819992,10.455333 70.1151676,10.4095002 69.9355,10.3765 C69.7558324,10.3434998 69.5890008,10.327 69.435,10.327 C69.1123317,10.327 68.846501,10.4003326 68.6375,10.547 C68.428499,10.6936674 68.324,10.8843322 68.324,11.119 C68.324,11.3316677 68.4046659,11.5058327 68.566,11.6415 C68.7273341,11.7771673 68.9326654,11.845 69.182,11.845 Z M76.376,6.851 C75.979998,6.93166707 75.6628345,7.09849873 75.4245,7.3515 C75.1861655,7.60450126 75.0266671,7.97299758 74.946,8.457 C75.1513344,8.20033205 75.4116651,7.9986674 75.727,7.852 C76.0423349,7.7053326 76.4089979,7.632 76.827,7.632 C77.1716684,7.632 77.4979985,7.69983266 77.806,7.8355 C78.1140015,7.97116735 78.3853322,8.15816548 78.62,8.3965 C78.8546678,8.63483453 79.0398327,8.91349841 79.1755,9.2325 C79.3111673,9.5515016 79.379,9.89066487 79.379,10.25 C79.379,10.6386686 79.3111673,11.0071649 79.1755,11.3555 C79.0398327,11.7038351 78.8436679,12.0081654 78.587,12.2685 C78.3303321,12.5288346 78.0113352,12.7341659 77.63,12.8845 C77.2486648,13.0348341 76.8160024,13.11 76.332,13.11 C75.3346617,13.11 74.5793359,12.8148363 74.066,12.2245 C73.5526641,11.6341637 73.296,10.7706723 73.296,9.634 C73.296,8.95199659 73.360166,8.36533579 73.4885,7.874 C73.616834,7.38266421 73.8074987,6.96650171 74.0605,6.6255 C74.3135013,6.2844983 74.6324981,6.01133436 75.0175,5.806 C75.4025019,5.60066564 75.8553307,5.44300055 76.376,5.333 L78.686,4.86 L78.741,6.356 L76.376,6.851 Z M75.111,10.228 C75.111,10.6533355 75.2264988,10.9943321 75.4575,11.251 C75.6885012,11.5076679 75.9873315,11.636 76.354,11.636 C76.7133351,11.636 77.0066655,11.5095013 77.234,11.2565 C77.4613345,11.0034987 77.575,10.6716687 77.575,10.261 C77.575,9.90899824 77.4595012,9.61933447 77.2285,9.392 C76.9974988,9.16466553 76.6986685,9.051 76.332,9.051 C75.9726649,9.051 75.6793345,9.1609989 75.452,9.381 C75.2246655,9.6010011 75.111,9.88333161 75.111,10.228 Z M83.031,13.11 C82.5396642,13.11 82.1015019,13.0293341 81.7165,12.868 C81.3314981,12.7066659 81.0070013,12.4885014 80.743,12.2135 C80.4789987,11.9384986 80.2791673,11.6195018 80.1435,11.2565 C80.0078327,10.8934982 79.94,10.514002 79.94,10.118 C79.94,9.72199802 80.0078327,9.34250181 80.1435,8.9795 C80.2791673,8.61649819 80.4789987,8.29750138 80.743,8.0225 C81.0070013,7.74749862 81.3314981,7.52750083 81.7165,7.3625 C82.1015019,7.19749918 82.5396642,7.115 83.031,7.115 C83.5223358,7.115 83.9586648,7.19749918 84.34,7.3625 C84.7213352,7.52750083 85.0439987,7.74749862 85.308,8.0225 C85.5720013,8.29750138 85.773666,8.61649819 85.913,8.9795 C86.052334,9.34250181 86.122,9.72199802 86.122,10.118 C86.122,10.514002 86.0541673,10.8934982 85.9185,11.2565 C85.7828327,11.6195018 85.5830013,11.9384986 85.319,12.2135 C85.0549987,12.4885014 84.7305019,12.7066659 84.3455,12.868 C83.9604981,13.0293341 83.5223358,13.11 83.031,13.11 Z M81.744,10.118 C81.744,10.5726689 81.8649988,10.9374986 82.107,11.2125 C82.3490012,11.4875014 82.6569981,11.625 83.031,11.625 C83.2143343,11.625 83.3829992,11.5883337 83.537,11.515 C83.6910008,11.4416663 83.8248328,11.3390007 83.9385,11.207 C84.0521672,11.0749993 84.1419997,10.9155009 84.208,10.7285 C84.2740003,10.5414991 84.307,10.3380011 84.307,10.118 C84.307,9.66333106 84.1860012,9.29850138 83.944,9.0235 C83.7019988,8.74849862 83.3976685,8.611 83.031,8.611 C82.8476658,8.611 82.6771675,8.6476663 82.5195,8.721 C82.3618325,8.7943337 82.2261672,8.89699934 82.1125,9.029 C81.9988328,9.16100066 81.9090003,9.32049906 81.843,9.5075 C81.7769997,9.69450094 81.744,9.8979989 81.744,10.118 Z M90.038,13 L88.289,13 L88.289,8.754 L86.551,8.754 L86.551,7.225 L91.765,7.225 L91.765,8.754 L90.038,8.754 L90.038,13 Z M96.143,7.225 L98.024,7.225 L95.769,10.019 L98.211,13 L96.187,13 L94.515,10.943 L94.284,10.943 L94.284,13 L92.546,13 L92.546,7.225 L94.284,7.225 L94.284,9.392 L94.482,9.392 L96.143,7.225 Z M100.334,13.11 C100.047999,13.11 99.7821679,13.0641671 99.5365,12.9725 C99.2908321,12.8808329 99.0800009,12.7525008 98.904,12.5875 C98.7279991,12.4224992 98.5886672,12.2281678 98.486,12.0045 C98.3833328,11.7808322 98.332,11.5370013 98.332,11.273 C98.332,10.9869986 98.3924994,10.7266678 98.5135,10.492 C98.6345006,10.2573322 98.8049989,10.0556675 99.025,9.887 C99.2450011,9.71833249 99.5053318,9.58633381 99.806,9.491 C100.106668,9.39566619 100.440331,9.348 100.807,9.348 C101.049001,9.348 101.283666,9.36816647 101.511,9.4085 C101.738334,9.44883353 101.936332,9.50933293 102.105,9.59 L102.105,9.326 C102.105,8.65866333 101.720004,8.325 100.95,8.325 C100.634665,8.325 100.334001,8.37816614 100.048,8.4845 C99.7619986,8.59083387 99.4613349,8.75033227 99.146,8.963 L98.629,7.863 C99.0103352,7.61366542 99.4063313,7.42666729 99.817,7.302 C100.227669,7.17733271 100.663998,7.115 101.126,7.115 C101.998671,7.115 102.673331,7.32033128 103.15,7.731 C103.626669,8.14166872 103.865,8.74299604 103.865,9.535 L103.865,11.02 C103.865,11.1960009 103.8925,11.318833 103.9475,11.3885 C104.0025,11.458167 104.099666,11.5003333 104.239,11.515 L104.239,13 C104.084999,13.0366668 103.945667,13.0604999 103.821,13.0715 C103.696333,13.0825001 103.582667,13.088 103.48,13.088 C103.149998,13.088 102.900668,13.023834 102.732,12.8955 C102.563332,12.767166 102.457,12.5856678 102.413,12.351 L102.38,12.087 C102.123332,12.4170016 101.817168,12.6699991 101.4615,12.846 C101.105832,13.0220009 100.730002,13.11 100.334,13.11 Z M100.851,11.845 C101.041668,11.845 101.226832,11.8120003 101.4065,11.746 C101.586168,11.6799997 101.734666,11.5920005 101.852,11.482 C102.020668,11.3499993 102.105,11.2106674 102.105,11.064 L102.105,10.514 C101.950999,10.455333 101.784168,10.4095002 101.6045,10.3765 C101.424832,10.3434998 101.258001,10.327 101.104,10.327 C100.781332,10.327 100.515501,10.4003326 100.3065,10.547 C100.097499,10.6936674 99.993,10.8843322 99.993,11.119 C99.993,11.3316677 100.073666,11.5058327 100.235,11.6415 C100.396334,11.7771673 100.601665,11.845 100.851,11.845 Z M107.374,10.107 C107.374,9.71099802 107.443666,9.33150181 107.583,8.9685 C107.722334,8.60549818 107.923999,8.28650138 108.188,8.0115 C108.452001,7.73649863 108.776498,7.51833414 109.1615,7.357 C109.546502,7.19566586 109.984664,7.115 110.476,7.115 C111.143337,7.115 111.704331,7.25616526 112.159,7.5385 C112.613669,7.82083474 112.954666,8.18933106 113.182,8.644 L111.466,9.161 C111.238666,8.7943315 110.905002,8.611 110.465,8.611 C110.098332,8.611 109.792168,8.74666531 109.5465,9.018 C109.300832,9.28933469 109.178,9.65233106 109.178,10.107 C109.178,10.3343345 109.211,10.5414991 109.277,10.7285 C109.343,10.9155009 109.434666,11.0749993 109.552,11.207 C109.669334,11.3390007 109.806833,11.4416663 109.9645,11.515 C110.122167,11.5883337 110.288999,11.625 110.465,11.625 C110.685001,11.625 110.886666,11.5718339 111.07,11.4655 C111.253334,11.3591661 111.389,11.2216675 111.477,11.053 L113.193,11.581 C112.980332,12.0283356 112.641169,12.3949986 112.1755,12.681 C111.709831,12.9670014 111.143337,13.11 110.476,13.11 C109.991998,13.11 109.557502,13.0275008 109.1725,12.8625 C108.787498,12.6974992 108.461168,12.4775014 108.1935,12.2025 C107.925832,11.9274986 107.722334,11.6085018 107.583,11.2455 C107.443666,10.8824982 107.374,10.503002 107.374,10.107 Z M115.624,13.11 C115.337999,13.11 115.072168,13.0641671 114.8265,12.9725 C114.580832,12.8808329 114.370001,12.7525008 114.194,12.5875 C114.017999,12.4224992 113.878667,12.2281678 113.776,12.0045 C113.673333,11.7808322 113.622,11.5370013 113.622,11.273 C113.622,10.9869986 113.682499,10.7266678 113.8035,10.492 C113.924501,10.2573322 114.094999,10.0556675 114.315,9.887 C114.535001,9.71833249 114.795332,9.58633381 115.096,9.491 C115.396668,9.39566619 115.730332,9.348 116.097,9.348 C116.339001,9.348 116.573666,9.36816647 116.801,9.4085 C117.028334,9.44883353 117.226332,9.50933293 117.395,9.59 L117.395,9.326 C117.395,8.65866333 117.010004,8.325 116.24,8.325 C115.924665,8.325 115.624001,8.37816614 115.338,8.4845 C115.051999,8.59083387 114.751335,8.75033227 114.436,8.963 L113.919,7.863 C114.300335,7.61366542 114.696331,7.42666729 115.107,7.302 C115.517669,7.17733271 115.953998,7.115 116.416,7.115 C117.288671,7.115 117.963331,7.32033128 118.44,7.731 C118.916669,8.14166872 119.155,8.74299604 119.155,9.535 L119.155,11.02 C119.155,11.1960009 119.1825,11.318833 119.2375,11.3885 C119.2925,11.458167 119.389666,11.5003333 119.529,11.515 L119.529,13 C119.374999,13.0366668 119.235667,13.0604999 119.111,13.0715 C118.986333,13.0825001 118.872667,13.088 118.77,13.088 C118.439998,13.088 118.190668,13.023834 118.022,12.8955 C117.853332,12.767166 117.747,12.5856678 117.703,12.351 L117.67,12.087 C117.413332,12.4170016 117.107168,12.6699991 116.7515,12.846 C116.395832,13.0220009 116.020002,13.11 115.624,13.11 Z M116.141,11.845 C116.331668,11.845 116.516832,11.8120003 116.6965,11.746 C116.876168,11.6799997 117.024666,11.5920005 117.142,11.482 C117.310668,11.3499993 117.395,11.2106674 117.395,11.064 L117.395,10.514 C117.240999,10.455333 117.074168,10.4095002 116.8945,10.3765 C116.714832,10.3434998 116.548001,10.327 116.394,10.327 C116.071332,10.327 115.805501,10.4003326 115.5965,10.547 C115.387499,10.6936674 115.283,10.8843322 115.283,11.119 C115.283,11.3316677 115.363666,11.5058327 115.525,11.6415 C115.686334,11.7771673 115.891665,11.845 116.141,11.845 Z M125.216,4.97 C125.208667,5.46133579 125.032668,5.8536652 124.688,6.147 C124.343332,6.4403348 123.892336,6.587 123.335,6.587 C122.777664,6.587 122.326668,6.4403348 121.982,6.147 C121.637332,5.8536652 121.457667,5.46133579 121.443,4.97 L122.378,4.97 C122.385333,5.22666795 122.469666,5.43199923 122.631,5.586 C122.792334,5.74000077 123.026998,5.817 123.335,5.817 C123.628335,5.817 123.853833,5.7436674 124.0115,5.597 C124.169167,5.4503326 124.259,5.24133469 124.281,4.97 L125.216,4.97 Z M122.213,10.481 L124.732,7.225 L125.997,7.225 L125.997,13 L124.237,13 L124.237,9.843 L121.751,13 L120.464,13 L120.464,7.225 L122.213,7.225 L122.213,10.481 Z M130.276,13 L128.527,13 L128.527,8.754 L126.789,8.754 L126.789,7.225 L132.003,7.225 L132.003,8.754 L130.276,8.754 L130.276,13 Z M134.401,13.11 C134.114999,13.11 133.849168,13.0641671 133.6035,12.9725 C133.357832,12.8808329 133.147001,12.7525008 132.971,12.5875 C132.794999,12.4224992 132.655667,12.2281678 132.553,12.0045 C132.450333,11.7808322 132.399,11.5370013 132.399,11.273 C132.399,10.9869986 132.459499,10.7266678 132.5805,10.492 C132.701501,10.2573322 132.871999,10.0556675 133.092,9.887 C133.312001,9.71833249 133.572332,9.58633381 133.873,9.491 C134.173668,9.39566619 134.507331,9.348 134.874,9.348 C135.116001,9.348 135.350666,9.36816647 135.578,9.4085 C135.805334,9.44883353 136.003332,9.50933293 136.172,9.59 L136.172,9.326 C136.172,8.65866333 135.787004,8.325 135.017,8.325 C134.701665,8.325 134.401001,8.37816614 134.115,8.4845 C133.828999,8.59083387 133.528335,8.75033227 133.213,8.963 L132.696,7.863 C133.077335,7.61366542 133.473331,7.42666729 133.884,7.302 C134.294669,7.17733271 134.730998,7.115 135.193,7.115 C136.065671,7.115 136.740331,7.32033128 137.217,7.731 C137.693669,8.14166872 137.932,8.74299604 137.932,9.535 L137.932,11.02 C137.932,11.1960009 137.9595,11.318833 138.0145,11.3885 C138.0695,11.458167 138.166666,11.5003333 138.306,11.515 L138.306,13 C138.151999,13.0366668 138.012667,13.0604999 137.888,13.0715 C137.763333,13.0825001 137.649667,13.088 137.547,13.088 C137.216998,13.088 136.967668,13.023834 136.799,12.8955 C136.630332,12.767166 136.524,12.5856678 136.48,12.351 L136.447,12.087 C136.190332,12.4170016 135.884168,12.6699991 135.5285,12.846 C135.172832,13.0220009 134.797002,13.11 134.401,13.11 Z M134.918,11.845 C135.108668,11.845 135.293832,11.8120003 135.4735,11.746 C135.653168,11.6799997 135.801666,11.5920005 135.919,11.482 C136.087668,11.3499993 136.172,11.2106674 136.172,11.064 L136.172,10.514 C136.017999,10.455333 135.851168,10.4095002 135.6715,10.3765 C135.491832,10.3434998 135.325001,10.327 135.171,10.327 C134.848332,10.327 134.582501,10.4003326 134.3735,10.547 C134.164499,10.6936674 134.06,10.8843322 134.06,11.119 C134.06,11.3316677 134.140666,11.5058327 134.302,11.6415 C134.463334,11.7771673 134.668665,11.845 134.918,11.845 Z M45.169,26.066 C44.5896638,26.066 44.061669,25.9523345 43.585,25.725 C43.108331,25.4976655 42.701335,25.1988352 42.364,24.8285 C42.026665,24.4581648 41.7645009,24.034669 41.5775,23.558 C41.3904991,23.081331 41.297,22.5900025 41.297,22.084 C41.297,21.5706641 41.3941657,21.0756691 41.5885,20.599 C41.7828343,20.1223309 42.0541649,19.7025018 42.4025,19.3395 C42.7508351,18.9764982 43.163331,18.6868344 43.64,18.4705 C44.116669,18.2541656 44.6373305,18.146 45.202,18.146 C45.7813362,18.146 46.309331,18.2596655 46.786,18.487 C47.262669,18.7143345 47.669665,19.0149981 48.007,19.389 C48.344335,19.7630019 48.6046658,20.188331 48.788,20.665 C48.9713342,21.141669 49.063,21.6256642 49.063,22.117 C49.063,22.6303359 48.9658343,23.1253309 48.7715,23.602 C48.5771657,24.0786691 48.3076684,24.4984982 47.963,24.8615 C47.6183316,25.2245018 47.207669,25.5159989 46.731,25.736 C46.2543309,25.9560011 45.7336695,26.066 45.169,26.066 Z M43.134,22.106 C43.134,22.4066682 43.1779996,22.6981653 43.266,22.9805 C43.3540004,23.2628347 43.4841658,23.5139989 43.6565,23.734 C43.8288342,23.9540011 44.0433321,24.1299993 44.3,24.262 C44.5566679,24.3940007 44.8499983,24.46 45.18,24.46 C45.5246684,24.46 45.8253321,24.390334 46.082,24.251 C46.338668,24.111666 46.5513325,23.9301678 46.72,23.7065 C46.8886675,23.4828322 47.0151662,23.2298347 47.0995,22.9475 C47.1838338,22.6651653 47.226,22.3773348 47.226,22.084 C47.226,21.7833318 47.1820004,21.4918347 47.094,21.2095 C47.0059996,20.9271653 46.8740009,20.6778344 46.698,20.4615 C46.5219991,20.2451656 46.3075013,20.072834 46.0545,19.9445 C45.8014987,19.816166 45.5100016,19.752 45.18,19.752 C44.8353316,19.752 44.5365013,19.8198327 44.2835,19.9555 C44.0304987,20.0911673 43.8178342,20.2689989 43.6455,20.489 C43.4731658,20.7090011 43.3448338,20.9601653 43.2605,21.2425 C43.1761662,21.5248347 43.134,21.8126652 43.134,22.106 Z M50.108,26 L50.108,18.19 L51.912,18.19 L51.912,21.556 L54.772,18.19 L56.796,18.19 L53.87,21.677 L56.994,26 L54.937,26 L52.726,22.854 L51.912,23.701 L51.912,26 L50.108,26 Z M62.263,20.478 C62.2409999,20.4486665 62.1640007,20.3936671 62.032,20.313 C61.8999993,20.2323329 61.735001,20.1480004 61.537,20.06 C61.338999,19.9719996 61.1226678,19.8950003 60.888,19.829 C60.6533322,19.7629997 60.4186678,19.73 60.184,19.73 C59.5386634,19.73 59.216,19.9463312 59.216,20.379 C59.216,20.5110007 59.250833,20.6209996 59.3205,20.709 C59.390167,20.7970004 59.4928327,20.875833 59.6285,20.9455 C59.7641673,21.015167 59.9346656,21.079333 60.14,21.138 C60.3453344,21.196667 60.5836653,21.2626663 60.855,21.336 C61.2290019,21.4386672 61.5663318,21.5504994 61.867,21.6715 C62.1676682,21.7925006 62.422499,21.9428324 62.6315,22.1225 C62.840501,22.3021676 63.0018328,22.520332 63.1155,22.777 C63.2291672,23.0336679 63.286,23.3416649 63.286,23.701 C63.286,24.1410022 63.2035008,24.5131651 63.0385,24.8175 C62.8734992,25.1218349 62.6553347,25.3674991 62.384,25.5545 C62.1126653,25.7415009 61.8010018,25.8771662 61.449,25.9615 C61.0969982,26.0458338 60.7340019,26.088 60.36,26.088 C60.0739986,26.088 59.7806682,26.0660002 59.48,26.022 C59.1793318,25.9779998 58.8860014,25.9138338 58.6,25.8295 C58.3139986,25.7451662 58.037168,25.6443339 57.7695,25.527 C57.501832,25.4096661 57.2543345,25.2740008 57.027,25.12 L57.819,23.547 C57.8483335,23.5836668 57.9436659,23.6533328 58.105,23.756 C58.2663341,23.8586672 58.4661655,23.9613328 58.7045,24.064 C58.9428345,24.1666672 59.2086652,24.2583329 59.502,24.339 C59.7953348,24.4196671 60.0923318,24.46 60.393,24.46 C61.0310032,24.46 61.35,24.2656686 61.35,23.877 C61.35,23.7303326 61.3023338,23.6093338 61.207,23.514 C61.1116662,23.4186662 60.9796675,23.3325004 60.811,23.2555 C60.6423325,23.1784996 60.4425012,23.1070003 60.2115,23.041 C59.9804988,22.9749997 59.7293347,22.9016671 59.458,22.821 C59.0986649,22.7109994 58.7870013,22.591834 58.523,22.4635 C58.2589987,22.335166 58.0408342,22.1866675 57.8685,22.018 C57.6961658,21.8493325 57.5678338,21.6550011 57.4835,21.435 C57.3991662,21.2149989 57.357,20.9583348 57.357,20.665 C57.357,20.2543313 57.4339992,19.8913349 57.588,19.576 C57.7420008,19.2606651 57.9509987,18.9948344 58.215,18.7785 C58.4790013,18.5621656 58.7851649,18.3990005 59.1335,18.289 C59.4818351,18.1789994 59.8503314,18.124 60.239,18.124 C60.5103347,18.124 60.7779987,18.1496664 61.042,18.201 C61.3060013,18.2523336 61.5589988,18.3183329 61.801,18.399 C62.0430012,18.4796671 62.268499,18.5713328 62.4775,18.674 C62.686501,18.7766672 62.8789991,18.8793328 63.055,18.982 L62.263,20.478 Z M72.856,19.774 L70.48,19.774 L70.48,26 L68.676,26 L68.676,19.774 L66.289,19.774 L66.289,18.19 L72.856,18.19 L72.856,19.774 Z M79.225,24.416 L79.225,26 L73.736,26 L73.736,18.19 L79.126,18.19 L79.126,19.774 L75.54,19.774 L75.54,21.292 L78.62,21.292 L78.62,22.755 L75.54,22.755 L75.54,24.416 L79.225,24.416 Z M79.874,22.029 C79.874,21.5596643 79.9619991,21.092169 80.138,20.6265 C80.3140009,20.160831 80.570665,19.7446685 80.908,19.378 C81.245335,19.0113315 81.6559976,18.7143345 82.14,18.487 C82.6240024,18.2596655 83.1739969,18.146 83.79,18.146 C84.523337,18.146 85.1594973,18.3036651 85.6985,18.619 C86.2375027,18.9343349 86.6389987,19.3449975 86.903,19.851 L85.517,20.819 C85.4289996,20.6136656 85.3171673,20.4431673 85.1815,20.3075 C85.0458327,20.1718327 84.8973341,20.0618338 84.736,19.9775 C84.5746659,19.8931662 84.4096675,19.8345002 84.241,19.8015 C84.0723325,19.7684998 83.9073341,19.752 83.746,19.752 C83.4013316,19.752 83.100668,19.821666 82.844,19.961 C82.5873321,20.100334 82.3746675,20.2799989 82.206,20.5 C82.0373325,20.7200011 81.9126671,20.9693319 81.832,21.248 C81.7513329,21.5266681 81.711,21.8089986 81.711,22.095 C81.711,22.4030015 81.7586662,22.6999986 81.854,22.986 C81.9493338,23.2720014 82.0868324,23.5249989 82.2665,23.745 C82.4461676,23.9650011 82.6624987,24.139166 82.9155,24.2675 C83.1685013,24.395834 83.4526651,24.46 83.768,24.46 C83.9293341,24.46 84.0961658,24.4398335 84.2685,24.3995 C84.4408342,24.3591665 84.6058325,24.2968338 84.7635,24.2125 C84.9211675,24.1281662 85.0659993,24.0181673 85.198,23.8825 C85.3300007,23.7468327 85.4363329,23.580001 85.517,23.382 L86.991,24.251 C86.8736661,24.5370014 86.6995012,24.7936655 86.4685,25.021 C86.2374988,25.2483345 85.9716682,25.4389992 85.671,25.593 C85.3703318,25.7470008 85.051335,25.8643329 84.714,25.945 C84.376665,26.0256671 84.0466683,26.066 83.724,26.066 C83.1593305,26.066 82.6405024,25.9505012 82.1675,25.7195 C81.6944976,25.4884988 81.2875017,25.1823352 80.9465,24.801 C80.6054983,24.4196648 80.3415009,23.9870024 80.1545,23.503 C79.9674991,23.0189976 79.874,22.5276692 79.874,22.029 Z M94.614,18.19 L94.614,26 L92.81,26 L92.81,22.799 L89.697,22.799 L89.697,26 L87.893,26 L87.893,18.19 L89.697,18.19 L89.697,21.215 L92.81,21.215 L92.81,18.19 L94.614,18.19 Z M97.914,21.534 L97.914,26 L96.11,26 L96.11,18.19 L97.518,18.19 L101.159,22.777 L101.159,18.19 L102.963,18.19 L102.963,26 L101.511,26 L97.914,21.534 Z M107.88,26.066 C107.300664,26.066 106.772669,25.9523345 106.296,25.725 C105.819331,25.4976655 105.412335,25.1988352 105.075,24.8285 C104.737665,24.4581648 104.475501,24.034669 104.2885,23.558 C104.101499,23.081331 104.008,22.5900025 104.008,22.084 C104.008,21.5706641 104.105166,21.0756691 104.2995,20.599 C104.493834,20.1223309 104.765165,19.7025018 105.1135,19.3395 C105.461835,18.9764982 105.874331,18.6868344 106.351,18.4705 C106.827669,18.2541656 107.348331,18.146 107.913,18.146 C108.492336,18.146 109.020331,18.2596655 109.497,18.487 C109.973669,18.7143345 110.380665,19.0149981 110.718,19.389 C111.055335,19.7630019 111.315666,20.188331 111.499,20.665 C111.682334,21.141669 111.774,21.6256642 111.774,22.117 C111.774,22.6303359 111.676834,23.1253309 111.4825,23.602 C111.288166,24.0786691 111.018668,24.4984982 110.674,24.8615 C110.329332,25.2245018 109.918669,25.5159989 109.442,25.736 C108.965331,25.9560011 108.444669,26.066 107.88,26.066 Z M105.845,22.106 C105.845,22.4066682 105.889,22.6981653 105.977,22.9805 C106.065,23.2628347 106.195166,23.5139989 106.3675,23.734 C106.539834,23.9540011 106.754332,24.1299993 107.011,24.262 C107.267668,24.3940007 107.560998,24.46 107.891,24.46 C108.235668,24.46 108.536332,24.390334 108.793,24.251 C109.049668,24.111666 109.262332,23.9301678 109.431,23.7065 C109.599668,23.4828322 109.726166,23.2298347 109.8105,22.9475 C109.894834,22.6651653 109.937,22.3773348 109.937,22.084 C109.937,21.7833318 109.893,21.4918347 109.805,21.2095 C109.717,20.9271653 109.585001,20.6778344 109.409,20.4615 C109.232999,20.2451656 109.018501,20.072834 108.7655,19.9445 C108.512499,19.816166 108.221002,19.752 107.891,19.752 C107.546332,19.752 107.247501,19.8198327 106.9945,19.9555 C106.741499,20.0911673 106.528834,20.2689989 106.3565,20.489 C106.184166,20.7090011 106.055834,20.9601653 105.9715,21.2425 C105.887166,21.5248347 105.845,21.8126652 105.845,22.106 Z M112.819,26 L112.819,18.19 L114.623,18.19 L114.623,24.416 L118.407,24.416 L118.407,26 L112.819,26 Z M122.675,26.066 C122.095664,26.066 121.567669,25.9523345 121.091,25.725 C120.614331,25.4976655 120.207335,25.1988352 119.87,24.8285 C119.532665,24.4581648 119.270501,24.034669 119.0835,23.558 C118.896499,23.081331 118.803,22.5900025 118.803,22.084 C118.803,21.5706641 118.900166,21.0756691 119.0945,20.599 C119.288834,20.1223309 119.560165,19.7025018 119.9085,19.3395 C120.256835,18.9764982 120.669331,18.6868344 121.146,18.4705 C121.622669,18.2541656 122.143331,18.146 122.708,18.146 C123.287336,18.146 123.815331,18.2596655 124.292,18.487 C124.768669,18.7143345 125.175665,19.0149981 125.513,19.389 C125.850335,19.7630019 126.110666,20.188331 126.294,20.665 C126.477334,21.141669 126.569,21.6256642 126.569,22.117 C126.569,22.6303359 126.471834,23.1253309 126.2775,23.602 C126.083166,24.0786691 125.813668,24.4984982 125.469,24.8615 C125.124332,25.2245018 124.713669,25.5159989 124.237,25.736 C123.760331,25.9560011 123.239669,26.066 122.675,26.066 Z M120.64,22.106 C120.64,22.4066682 120.684,22.6981653 120.772,22.9805 C120.86,23.2628347 120.990166,23.5139989 121.1625,23.734 C121.334834,23.9540011 121.549332,24.1299993 121.806,24.262 C122.062668,24.3940007 122.355998,24.46 122.686,24.46 C123.030668,24.46 123.331332,24.390334 123.588,24.251 C123.844668,24.111666 124.057332,23.9301678 124.226,23.7065 C124.394668,23.4828322 124.521166,23.2298347 124.6055,22.9475 C124.689834,22.6651653 124.732,22.3773348 124.732,22.084 C124.732,21.7833318 124.688,21.4918347 124.6,21.2095 C124.512,20.9271653 124.380001,20.6778344 124.204,20.4615 C124.027999,20.2451656 123.813501,20.072834 123.5605,19.9445 C123.307499,19.816166 123.016002,19.752 122.686,19.752 C122.341332,19.752 122.042501,19.8198327 121.7895,19.9555 C121.536499,20.0911673 121.323834,20.2689989 121.1515,20.489 C120.979166,20.7090011 120.850834,20.9601653 120.7665,21.2425 C120.682166,21.5248347 120.64,21.8126652 120.64,22.106 Z M132.982,25.23 C132.387997,25.7800028 131.702337,26.055 130.925,26.055 C130.411664,26.055 129.927669,25.9578343 129.473,25.7635 C129.018331,25.5691657 128.620502,25.2960018 128.2795,24.944 C127.938498,24.5919982 127.669001,24.1685025 127.471,23.6735 C127.272999,23.1784975 127.174,22.634003 127.174,22.04 C127.174,21.504664 127.272999,20.998669 127.471,20.522 C127.669001,20.045331 127.942165,19.6310018 128.2905,19.279 C128.638835,18.9269982 129.051331,18.6483344 129.528,18.443 C130.004669,18.2376656 130.517997,18.135 131.068,18.135 C131.794004,18.135 132.428331,18.2871651 132.971,18.5915 C133.513669,18.8958349 133.920665,19.3119974 134.192,19.84 L132.85,20.852 C132.673999,20.4999982 132.419168,20.2268343 132.0855,20.0325 C131.751832,19.8381657 131.390669,19.741 131.002,19.741 C130.701332,19.741 130.428168,19.8014994 130.1825,19.9225 C129.936832,20.0435006 129.726001,20.2121656 129.55,20.4285 C129.373999,20.6448344 129.238334,20.8959986 129.143,21.182 C129.047666,21.4680014 129,21.7759984 129,22.106 C129,22.443335 129.051333,22.7549986 129.154,23.041 C129.256667,23.3270014 129.399666,23.574499 129.583,23.7835 C129.766334,23.992501 129.984499,24.1556661 130.2375,24.273 C130.490501,24.3903339 130.770998,24.449 131.079,24.449 C131.783004,24.449 132.417331,24.1226699 132.982,23.47 L132.982,23.228 L131.464,23.228 L131.464,21.919 L134.478,21.919 L134.478,26 L132.982,26 L132.982,25.23 Z M135.666,26 L135.666,18.19 L137.47,18.19 L137.47,26 L135.666,26 Z M144.455,24.416 L144.455,26 L138.966,26 L138.966,18.19 L144.356,18.19 L144.356,19.774 L140.77,19.774 L140.77,21.292 L143.85,21.292 L143.85,22.755 L140.77,22.755 L140.77,24.416 L144.455,24.416 Z M150.241,20.478 C150.219,20.4486665 150.142001,20.3936671 150.01,20.313 C149.877999,20.2323329 149.713001,20.1480004 149.515,20.06 C149.316999,19.9719996 149.100668,19.8950003 148.866,19.829 C148.631332,19.7629997 148.396668,19.73 148.162,19.73 C147.516663,19.73 147.194,19.9463312 147.194,20.379 C147.194,20.5110007 147.228833,20.6209996 147.2985,20.709 C147.368167,20.7970004 147.470833,20.875833 147.6065,20.9455 C147.742167,21.015167 147.912666,21.079333 148.118,21.138 C148.323334,21.196667 148.561665,21.2626663 148.833,21.336 C149.207002,21.4386672 149.544332,21.5504994 149.845,21.6715 C150.145668,21.7925006 150.400499,21.9428324 150.6095,22.1225 C150.818501,22.3021676 150.979833,22.520332 151.0935,22.777 C151.207167,23.0336679 151.264,23.3416649 151.264,23.701 C151.264,24.1410022 151.181501,24.5131651 151.0165,24.8175 C150.851499,25.1218349 150.633335,25.3674991 150.362,25.5545 C150.090665,25.7415009 149.779002,25.8771662 149.427,25.9615 C149.074998,26.0458338 148.712002,26.088 148.338,26.088 C148.051999,26.088 147.758668,26.0660002 147.458,26.022 C147.157332,25.9779998 146.864001,25.9138338 146.578,25.8295 C146.291999,25.7451662 146.015168,25.6443339 145.7475,25.527 C145.479832,25.4096661 145.232334,25.2740008 145.005,25.12 L145.797,23.547 C145.826333,23.5836668 145.921666,23.6533328 146.083,23.756 C146.244334,23.8586672 146.444165,23.9613328 146.6825,24.064 C146.920835,24.1666672 147.186665,24.2583329 147.48,24.339 C147.773335,24.4196671 148.070332,24.46 148.371,24.46 C149.009003,24.46 149.328,24.2656686 149.328,23.877 C149.328,23.7303326 149.280334,23.6093338 149.185,23.514 C149.089666,23.4186662 148.957668,23.3325004 148.789,23.2555 C148.620332,23.1784996 148.420501,23.1070003 148.1895,23.041 C147.958499,22.9749997 147.707335,22.9016671 147.436,22.821 C147.076665,22.7109994 146.765001,22.591834 146.501,22.4635 C146.236999,22.335166 146.018834,22.1866675 145.8465,22.018 C145.674166,21.8493325 145.545834,21.6550011 145.4615,21.435 C145.377166,21.2149989 145.335,20.9583348 145.335,20.665 C145.335,20.2543313 145.411999,19.8913349 145.566,19.576 C145.720001,19.2606651 145.928999,18.9948344 146.193,18.7785 C146.457001,18.5621656 146.763165,18.3990005 147.1115,18.289 C147.459835,18.1789994 147.828331,18.124 148.217,18.124 C148.488335,18.124 148.755999,18.1496664 149.02,18.201 C149.284001,18.2523336 149.536999,18.3183329 149.779,18.399 C150.021001,18.4796671 150.246499,18.5713328 150.4555,18.674 C150.664501,18.7766672 150.856999,18.8793328 151.033,18.982 L150.241,20.478 Z" id="Разработка-сайта-OKS" fill="#FFFFFF"></path>
            </g>
        </g>
    </g>
</svg>