<?xml version="1.0" encoding="UTF-8"?>
<svg width="76px" height="80px" viewBox="0 0 76 80" version="1.1" xmlns="http://www.w3.org/2000/svg" xmlns:xlink="http://www.w3.org/1999/xlink">
    <!-- Generator: Sketch 51.3 (57544) - http://www.bohemiancoding.com/sketch -->
    <title>Group 22</title>
    <desc>Created with Sketch.</desc>
    <defs></defs>
    <g id="Page-1" stroke="none" stroke-width="1" fill="none" fill-rule="evenodd">
        <g id="02" transform="translate(-464.000000, -4888.000000)">
            <g id="Group-22" transform="translate(464.000000, 4888.000000)">
                <rect id="Rectangle-15-Copy" stroke="#FFFFFF" x="0.5" y="0.5" width="75" height="79" rx="10"></rect>
                <g id="graph" transform="translate(18.000000, 20.000000)" fill="#FFFFFF" fill-rule="nonzero">
                    <path d="M29.4191813,3.66682261 C23.8502144,1.36366472 17.4298635,3.31423002 14.0831189,8.3260039 C10.7363743,13.3377778 11.3951657,20.0155166 15.6566082,24.2767251 C18.0282261,26.651306 21.2482651,27.9830019 24.6042885,27.977154 C30.6307212,27.9706043 35.8136452,23.7087719 36.9844834,17.797193 C38.1553216,11.885614 34.9881481,5.96998051 29.4191813,3.66682261 Z M35.100039,19.6612086 C33.0327485,24.6605068 27.7212476,27.5026121 22.4150487,26.4488109 C17.1088499,25.3950097 13.2865497,20.7388694 13.2865497,15.3290448 C13.2813255,12.3260039 14.4728265,9.44460039 16.5974269,7.32226121 C20.4181676,3.49231969 26.4126316,2.89559454 30.9134503,5.89707602 C35.414347,8.8985575 37.1673294,14.6619103 35.100039,19.6612086 Z" id="Shape"></path>
                    <path d="M35.4468616,4.48693957 C29.7394152,-1.22066277 20.5823782,-1.52023392 14.514152,3.80210526 C8.44592593,9.12444444 7.54861598,18.2423392 12.4631579,24.6453801 L11.2867057,25.8218324 C10.8297076,25.6983236 10.3414425,25.8276023 10.0055361,26.1611696 L1.52693957,34.6396101 C1.19329435,34.9755166 1.06401559,35.4637817 1.18768031,35.9207797 L0.584795322,36.5236647 C0.21037037,36.8980117 0,37.405848 0,37.9352827 C0,38.4647173 0.21037037,38.9725536 0.584795322,39.3469006 L1.05520468,38.8761014 L0.586432749,39.348538 C0.960701754,39.722963 1.46846004,39.9333333 1.99789474,39.9333333 C2.52732943,39.9333333 3.03508772,39.722963 3.40935673,39.348538 L4.01239766,38.7454971 C4.46939571,38.8761793 4.96132554,38.7458869 5.29364522,38.4060819 L13.7718519,29.9277973 C14.105575,29.5918908 14.2348538,29.1036257 14.1111891,28.6466277 L15.2877193,27.4700975 C21.6906043,32.3847953 30.808577,31.4877973 36.1310721,25.4196491 C41.4535673,19.351501 41.154308,10.1944639 35.4468616,4.48693957 Z M2.46814815,38.4076413 C2.20506823,38.6591033 1.79072125,38.6591033 1.52756335,38.4076413 L1.52561404,38.405692 L1.52561404,38.4053801 C1.40077973,38.2807018 1.33068226,38.111501 1.33068226,37.9351267 C1.33068226,37.7586745 1.40077973,37.5895517 1.52561404,37.4648733 L1.99805068,36.9924366 L2.94089669,37.9352827 L2.46814815,38.4076413 Z M4.35282651,37.4651852 L3.41037037,36.522885 L2.46853801,35.5808967 L2.46783626,35.5805068 L9.06237817,28.9859649 L10.9472904,30.8707212 L4.35282651,37.4651852 Z M11.8881871,29.9298246 L10.0032749,28.0450682 L10.9462768,27.1020663 L10.9465107,27.1024561 L11.888655,28.0444444 L12.8309552,28.9869006 L11.8881871,29.9298246 Z M13.3011306,27.5749708 L12.8295517,27.1035478 L12.3581287,26.6320468 L13.3249123,25.6652632 C13.4756335,25.8296296 13.6134113,26.0015595 13.7725536,26.1607797 C13.9316959,26.319922 14.1035478,26.4576998 14.2678363,26.6083431 L13.3011306,27.5749708 Z M29.957193,28.2520858 C24.7302924,30.417154 18.7139181,29.2204288 14.7134503,25.219883 C9.25988304,19.7536062 9.25988304,10.9044834 14.7134503,5.43820663 C18.7139181,1.43773879 24.7302924,0.241013645 29.957193,2.4060039 C35.1840936,4.57107212 38.5920468,9.67150097 38.5920468,15.3290448 C38.5920468,20.9865887 35.1840156,26.0870175 29.957193,28.2520858 Z" id="Shape"></path>
                    <path d="M29.9421442,13.3179727 C29.2074854,13.3186745 28.6121637,13.9140741 28.611384,14.6487329 L28.611384,17.9755945 L27.2806238,17.9755945 L27.2806238,11.9872904 C27.279922,11.2526316 26.6845224,10.6573099 25.9498635,10.6565302 L23.9537622,10.6565302 C23.2191033,10.657232 22.6237817,11.2526316 22.6230019,11.9872904 L22.6230019,17.9755945 L21.2922417,17.9755945 L21.2922417,9.32576998 C21.29154,8.59111111 20.6961404,7.99578947 19.9614815,7.99500975 L17.9653801,7.99500975 C17.2307212,7.9957115 16.6353996,8.59111111 16.6346199,9.32576998 L16.6346199,18.6409357 C16.6346199,19.0084211 16.9324756,19.3062768 17.299961,19.3062768 L32.6034308,19.3062768 C32.9709162,19.3062768 33.2687719,19.0084211 33.2687719,18.6409357 L33.2687719,14.6487329 C33.2680702,13.9140741 32.6726706,13.3187524 31.9380117,13.3179727 L29.9421442,13.3179727 Z M19.9616374,17.9755945 L17.9655361,17.9755945 L17.9646004,9.32584795 L19.9616374,9.32584795 L19.9616374,17.9755945 Z M25.9499415,17.9755945 L23.9538402,17.9755945 L23.9529045,11.9872904 L25.9499415,11.9872904 L25.9499415,17.9755945 Z M31.9382456,17.9755945 L29.9421442,17.9755945 L29.9412086,14.6487329 L31.9382456,14.6487329 L31.9382456,17.9755945 Z" id="Shape"></path>
                    <path d="M31.2729045,20.637037 L30.6075634,20.637037 C30.240078,20.637037 29.9422222,20.9349708 29.9422222,21.3023782 C29.9422222,21.6698635 30.240078,21.9677193 30.6075634,21.9677193 L31.2729045,21.9677193 C31.6403899,21.9677193 31.9382456,21.6697856 31.9382456,21.3023782 C31.9382456,20.9349708 31.6403899,20.637037 31.2729045,20.637037 Z" id="Shape"></path>
                    <path d="M25.2846004,20.637037 L24.6192593,20.637037 C24.2517739,20.637037 23.9539181,20.9349708 23.9539181,21.3023782 C23.9539181,21.6698635 24.2517739,21.9677193 24.6192593,21.9677193 L25.2846004,21.9677193 C25.6520858,21.9677193 25.9499415,21.6697856 25.9499415,21.3023782 C25.9499415,20.9349708 25.6520858,20.637037 25.2846004,20.637037 Z" id="Shape"></path>
                    <path d="M19.2962963,20.637037 L18.6309552,20.637037 C18.2634698,20.637037 17.965614,20.9349708 17.965614,21.3023782 C17.965614,21.6698635 18.2634698,21.9677193 18.6309552,21.9677193 L19.2962963,21.9677193 C19.6637817,21.9677193 19.9616374,21.6697856 19.9616374,21.3023782 C19.9616374,20.9349708 19.6637817,20.637037 19.2962963,20.637037 Z" id="Shape"></path>
                </g>
            </g>
        </g>
    </g>
</svg>