<?xml version="1.0" encoding="UTF-8"?>
<svg width="15px" height="15px" viewBox="0 0 15 15" version="1.1" xmlns="http://www.w3.org/2000/svg" xmlns:xlink="http://www.w3.org/1999/xlink">
    <!-- Generator: Sketch 51.3 (57544) - http://www.bohemiancoding.com/sketch -->
    <title>help</title>
    <desc>Created with Sketch.</desc>
    <defs></defs>
    <g id="Page-1" stroke="none" stroke-width="1" fill="none" fill-rule="evenodd">
        <g id="01" transform="translate(-823.000000, -8.000000)" fill="#7E87A0" fill-rule="nonzero">
            <g id="Group-15">
                <g id="help" transform="translate(823.000000, 8.000000)">
                    <path d="M7.27025391,10.0552734 C6.84137695,10.0552734 6.49415039,10.4126953 6.49415039,10.8416016 C6.49415039,11.2602832 6.83115234,11.6279297 7.27025391,11.6279297 C7.70935547,11.6279297 8.05658203,11.2603125 8.05658203,10.8416016 C8.05658203,10.4126953 7.69918945,10.0552734 7.27025391,10.0552734 Z" id="Shape"></path>
                    <path d="M7.40302734,4.10162109 C6.0244043,4.10162109 5.39126953,4.91856445 5.39126953,5.47001953 C5.39126953,5.86831055 5.72824219,6.05211914 6.00398437,6.05211914 C6.55541016,6.05211914 6.33076172,5.26579102 7.37238281,5.26579102 C7.88299805,5.26579102 8.29148437,5.49046875 8.29148437,5.96021484 C8.29148437,6.51169922 7.71960937,6.82825195 7.38260742,7.11418945 C7.08647461,7.36948242 6.6984082,7.78819336 6.6984082,8.66642578 C6.6984082,9.19743164 6.84134766,9.350625 7.26005859,9.350625 C7.76044922,9.350625 7.86254883,9.12597656 7.86254883,8.93194336 C7.86254883,8.4009082 7.87280273,8.09455078 8.43445312,7.65544922 C8.71016602,7.44099609 9.57820312,6.74657227 9.57820312,5.78663086 C9.57820312,4.82668945 8.71016602,4.10162109 7.40302734,4.10162109 Z" id="Shape"></path>
                    <path d="M7.5,0 C3.35496094,0 0,3.3544043 0,7.5 L0,14.4140625 C0,14.7376758 0.262324219,15 0.5859375,15 L7.5,15 C11.6450098,15 15,11.6455957 15,7.5 C15,3.35496094 11.6455957,0 7.5,0 Z M7.5,13.828125 L1.171875,13.828125 L1.171875,7.5 C1.171875,4.00262695 4.0021582,1.171875 7.5,1.171875 C10.997373,1.171875 13.828125,4.0021582 13.828125,7.5 C13.828125,10.997373 10.9978418,13.828125 7.5,13.828125 Z" id="Shape"></path>
                </g>
            </g>
        </g>
    </g>
</svg>