<?xml version="1.0" encoding="UTF-8"?>
<svg width="33px" height="30px" viewBox="0 0 33 30" version="1.1" xmlns="http://www.w3.org/2000/svg" xmlns:xlink="http://www.w3.org/1999/xlink">
    <!-- Generator: Sketch 51.3 (57544) - http://www.bohemiancoding.com/sketch -->
    <title>Combined Shape</title>
    <desc>Created with Sketch.</desc>
    <defs></defs>
    <g id="Page-1" stroke="none" stroke-width="1" fill="none" fill-rule="evenodd">
        <g id="02" transform="translate(-809.000000, -2953.000000)" fill="#FFFFFF">
            <path d="M841.94905,2981.23959 C835.982291,2980.91232 829.88271,2982.1746 827.499015,2982.68299 C829.281386,2981.2706 833.200032,2980.31651 839.254952,2979.82074 L839.254952,2954.8134 L841.94905,2953 C841.94905,2968.94622 841.94905,2978.35941 841.94905,2981.23959 Z M837.201457,2979.20208 C834.196968,2978.69032 827.549182,2981.77706 826.03052,2982.73676 C826.326366,2981.65115 828.897902,2980.06461 833.745128,2977.97714 L833.745128,2960.22111 L837.201457,2958.2388 C837.201457,2969.33415 837.201457,2976.32191 837.201457,2979.20208 Z M809.05095,2981.23959 C809.05095,2978.35941 809.05095,2968.94622 809.05095,2953 L811.745048,2954.8134 L811.745048,2979.82074 C817.799968,2980.31651 821.718614,2981.2706 823.500985,2982.68299 C821.11729,2982.1746 815.017709,2980.91232 809.05095,2981.23959 Z M813.798543,2979.20208 C813.798543,2976.32191 813.798543,2969.33415 813.798543,2958.2388 L817.254872,2960.22111 L817.254872,2977.97714 C822.102098,2980.06461 824.673634,2981.65115 824.96948,2982.73676 C823.450818,2981.77706 816.803032,2978.69032 813.798543,2979.20208 Z M819.412981,2963.46924 C822.799227,2964.47063 824.093544,2966.47086 825.371745,2968.94458 C826.284571,2966.94714 828.371961,2965.04888 831.633916,2963.2498 C831.633916,2969.2349 831.633916,2973.76896 831.633916,2976.85197 C828.928896,2978.59598 826.810746,2980.25547 825.542077,2982.36863 C824.095704,2980.17695 822.052672,2978.33806 819.412981,2976.85197 C819.412981,2969.56185 819.412981,2965.10094 819.412981,2963.46924 Z M819,2961 C821.171772,2961.71657 823.277426,2963.854 825.316962,2967.41229 C822.984295,2964.6952 820.878641,2962.96991 819,2962.23644 C819,2961.79374 819,2961.79374 819,2961 Z M831.660309,2960.96445 C831.660309,2961.75819 831.660309,2961.75819 831.660309,2962.20089 C829.781669,2962.93436 827.76498,2964.70348 825.610242,2967.50824 C827.471848,2963.86228 829.488537,2961.68102 831.660309,2960.96445 Z" id="Combined-Shape"></path>
        </g>
    </g>
</svg>