<?xml version="1.0" encoding="UTF-8"?>
<svg width="29px" height="35px" viewBox="0 0 29 35" version="1.1" xmlns="http://www.w3.org/2000/svg" xmlns:xlink="http://www.w3.org/1999/xlink">
    <!-- Generator: Sketch 51.3 (57544) - http://www.bohemiancoding.com/sketch -->
    <title>support</title>
    <desc>Created with Sketch.</desc>
    <defs></defs>
    <g id="Page-1" stroke="none" stroke-width="1" fill="none" fill-rule="evenodd">
        <g id="02" transform="translate(-1116.000000, -2951.000000)" fill="#FFFFFF" fill-rule="nonzero">
            <g id="support" transform="translate(1116.000000, 2951.000000)">
                <path d="M18.1210469,24 L10.8473282,24 C4.87022901,24 0,28.9387755 0,35 L29,35 C28.9683751,28.9708455 24.0981461,24 18.1210469,24 Z" id="Shape"></path>
                <path d="M15.7920168,19.0852018 C16.3592437,19.0852018 16.894958,19.2735426 17.3046218,19.6188341 L19.9201681,19.6188341 C21.2121849,18.2690583 22,16.4798206 22,14.470852 C22,10.3273543 18.6281513,7 14.5,7 C10.3718487,7 7,10.3273543 7,14.470852 C7,17.264574 8.54411765,19.7130045 10.8445378,21 C11.0966387,19.9013453 12.0735294,19.0852018 13.2079832,19.0852018 L15.7920168,19.0852018 Z" id="Shape"></path>
                <path d="M3.22392211,14.6145092 C3.31988873,15.3968706 3.70375522,16.116643 4.24756606,16.6486486 C4.66342142,17.0554765 5.20723227,17.3684211 5.81502086,17.5561878 C5.78303199,17.43101 5.78303199,17.3058321 5.78303199,17.2119488 L5.78303199,11.140825 C5.78303199,11.0156472 5.78303199,10.8904694 5.81502086,10.7652916 C5.20723227,10.9217639 4.69541029,11.2347084 4.24756606,11.6728307 C4.21557719,11.7041252 4.15159944,11.7667141 4.11961057,11.7980085 L4.11961057,11.5476529 C4.11961057,10.9530583 4.18358832,10.3584637 4.27955494,9.79516358 C4.37552156,9.20056899 4.53546592,8.63726885 4.75938804,8.10526316 C4.95132128,7.54196302 5.20723227,7.00995733 5.527121,6.50924609 C5.81502086,6.00853485 6.16689847,5.50782361 6.55076495,5.06970128 C6.58275382,5.03840683 6.6147427,4.97581792 6.6147427,4.94452347 C6.90264256,4.97581792 7.19054242,4.88193457 7.38247566,4.69416785 C9.33379694,2.78520626 11.8929068,1.84637269 14.4200278,1.84637269 C16.9471488,1.84637269 19.5382476,2.78520626 21.45758,4.69416785 C21.6815021,4.91322902 21.9694019,4.97581792 22.2253129,4.94452347 C22.2573018,4.97581792 22.2573018,5.03840683 22.2892907,5.06970128 C22.6731572,5.50782361 23.0250348,6.00853485 23.3129346,6.50924609 C23.6008345,7.00995733 23.8567455,7.54196302 24.0806676,8.10526316 C24.2726008,8.6685633 24.4325452,9.23186344 24.5605007,9.82645804 C24.6564673,10.3897582 24.7204451,10.9843528 24.7204451,11.5789474 L24.7204451,11.829303 C24.6884562,11.7667141 24.6244784,11.7354196 24.5924896,11.7041252 C24.1766342,11.2972973 23.6328234,10.9843528 23.0250348,10.7965861 C23.0570236,10.9217639 23.0570236,11.0469417 23.0570236,11.1721195 L23.0570236,17.2119488 C23.0570236,17.3371266 23.0570236,17.4623044 23.0250348,17.5561878 C23.1849791,17.5248933 23.3449235,17.4623044 23.5048679,17.3997155 L23.5048679,19.371266 C23.5048679,19.5903272 23.472879,19.8093883 23.4408901,19.9658606 C23.4089013,20.1223329 23.3449235,20.2162162 23.2809458,20.3100996 C23.216968,20.3726885 23.1210014,20.4352774 23.0250348,20.4665718 C22.8970793,20.4978663 22.7691238,20.5291607 22.6091794,20.5291607 L22.5771905,20.5291607 L16.6912378,20.5291607 C16.4993046,20.2162162 16.1794159,19.997155 15.7635605,19.997155 L13.1404729,19.997155 C12.5646732,19.997155 12.1168289,20.4665718 12.1168289,20.9985775 C12.1488178,21.5618777 12.596662,22 13.1724618,22 L15.7955494,22 C16.1794159,22 16.5312935,21.7809388 16.7232267,21.4679943 L22.6731572,21.4679943 L22.8970793,21.4679943 C23.1210014,21.4679943 23.3129346,21.4054054 23.5048679,21.3428165 C23.7607789,21.2489331 23.9527121,21.1237553 24.1446453,20.9359886 C24.3045897,20.7482219 24.4325452,20.5291607 24.5285118,20.2475107 C24.5924896,19.997155 24.6564673,19.6842105 24.6564673,19.3399716 L24.6564673,16.8364154 L24.6564673,16.742532 C24.6884562,16.7112376 24.7204451,16.6799431 24.7524339,16.6486486 C25.2962448,16.116643 25.6801113,15.3968706 25.7760779,14.6145092 C25.8080668,14.5832148 25.8400556,14.5832148 25.8400556,14.5519203 C25.9360223,14.458037 26,14.3015647 26,14.1763869 L26,11.5789474 C26,10.9217639 25.9360223,10.2645804 25.8400556,9.63869132 C25.6481224,8.98150782 25.488178,8.35561878 25.2642559,7.72972973 C25.0403338,7.10384068 24.7524339,6.50924609 24.4005563,5.94594595 C24.0806676,5.3826458 23.6968011,4.85064011 23.2489569,4.34992888 C23.216968,4.28733997 23.1529903,4.25604552 23.0890125,4.22475107 C23.1529903,3.943101 23.0570236,3.59886202 22.8331015,3.37980085 C20.5299026,1.12660028 17.5229485,0 14.4840056,0 C11.4450626,0 8.43810848,1.12660028 6.10292072,3.37980085 C5.87899861,3.59886202 5.78303199,3.943101 5.84700974,4.22475107 C5.78303199,4.25604552 5.75104312,4.28733997 5.68706537,4.34992888 C5.23922114,4.85064011 4.85535466,5.3826458 4.53546592,5.94594595 C4.21557719,6.50924609 3.92767733,7.10384068 3.67176634,7.72972973 C3.44784423,8.35561878 3.25591099,8.98150782 3.15994437,9.63869132 C3.03198887,10.2645804 3,10.9217639 3,11.5789474 L3,14.1763869 C3,14.3328592 3.06397775,14.458037 3.15994437,14.5519203 C3.19193324,14.5832148 3.22392211,14.5832148 3.22392211,14.6145092 Z" id="Shape"></path>
            </g>
        </g>
    </g>
</svg>