<?xml version="1.0" encoding="UTF-8"?>
<svg width="32px" height="24px" viewBox="0 0 32 24" version="1.1" xmlns="http://www.w3.org/2000/svg" xmlns:xlink="http://www.w3.org/1999/xlink">
    <!-- Generator: Sketch 51.3 (57544) - http://www.bohemiancoding.com/sketch -->
    <title>message-closed-envelope</title>
    <desc>Created with Sketch.</desc>
    <defs></defs>
    <g id="Page-1" stroke="none" stroke-width="1" fill="none" fill-rule="evenodd">
        <g id="02" transform="translate(-88.000000, -2956.000000)" fill="#FFFFFF" fill-rule="nonzero">
            <g id="message-closed-envelope" transform="translate(88.000000, 2956.000000)">
                <path d="M28.1369399,0.0776712329 L3.78936815,0.0776712329 C1.69992689,0.0776712329 0,1.68361644 0,3.65753425 L0,20.3520822 C0,22.326 1.69992689,23.9319452 3.78936815,23.9319452 L28.1369399,23.9319452 C30.2263812,23.9319452 31.9262245,22.326 31.9262245,20.3520822 L31.9262245,3.65753425 C31.9262245,1.68361644 30.2263812,0.0776712329 28.1369399,0.0776712329 Z M28.1369399,20.7715068 L3.78936815,20.7715068 C3.48223499,20.7715068 3.21286684,20.5755616 3.21286684,20.3520822 L3.21286684,5.86512329 L14.2246266,15.0106027 C14.4503812,15.1981644 14.7374621,15.3013973 15.0330653,15.3013973 L16.8928251,15.3014795 C17.1882611,15.3014795 17.4755091,15.1981644 17.7013473,15.0106027 L28.7136084,5.86479452 L28.7136084,20.3522466 C28.7134413,20.5755616 28.4439896,20.7715068 28.1369399,20.7715068 Z M15.963154,12.1633151 L5.25284595,3.23810959 L26.6734621,3.23810959 L15.963154,12.1633151 Z" id="Shape"></path>
            </g>
        </g>
    </g>
</svg>