<?xml version="1.0" encoding="UTF-8"?>
<svg width="46px" height="28px" viewBox="0 0 46 28" version="1.1" xmlns="http://www.w3.org/2000/svg" xmlns:xlink="http://www.w3.org/1999/xlink">
    <!-- Generator: Sketch 51.3 (57544) - http://www.bohemiancoding.com/sketch -->
    <title>graduation-cap</title>
    <desc>Created with Sketch.</desc>
    <defs></defs>
    <g id="Page-1" stroke="none" stroke-width="1" fill="none" fill-rule="evenodd">
        <g id="02" transform="translate(-426.000000, -2954.000000)" fill="#FFFFFF" fill-rule="nonzero">
            <g id="graduation-cap" transform="translate(426.000000, 2954.000000)">
                <path d="M41.7620163,18.7813566 L41.7363984,14.4229866 L45.9676504,12.0773548 L22.9207154,0.0361236934 L0,12.3181794 L9.18952846,17.5451852 L9.20785366,20.6510819 L9.20972358,20.8991312 L9.29368293,20.8593026 C9.19682114,20.9895331 9.13473984,21.1234686 9.13660976,21.2574042 C9.14390244,22.7849733 15.3683008,23.9939129 23.0506748,23.952417 C30.7293089,23.9125883 36.9445447,22.6330685 36.939122,21.1090192 C36.939122,20.9750836 36.867878,20.8448531 36.7728862,20.7109175 L36.8568455,20.7507462 L36.8568455,20.5026969 L36.8403902,17.3842033 L40.825,14.9281626 L40.846878,18.7869141 C40.4083821,18.9732753 40.1033984,19.4004611 40.1069512,19.9000796 C40.1106911,20.5553078 40.6477317,21.0854925 41.3145447,21.0801202 C41.9850976,21.0764152 42.5167154,20.5406731 42.5129756,19.8872973 C42.5092358,19.3876789 42.2023821,18.964198 41.7620163,18.7813566 Z M23.045065,22.9007544 C16.2288374,22.9387305 10.7004228,22.1966202 10.695,21.2501794 C10.6895772,20.3035534 16.2105122,19.5090174 23.0269268,19.474561 C29.8450244,19.4365848 35.3715691,20.1749901 35.3753089,21.1197636 C35.3805447,22.0628699 29.8631626,22.8646307 23.045065,22.9007544 Z M36.5260569,14.8538775 C35.603439,13.892802 32.2966748,11.3552515 22.9829837,11.4078624 C13.6563902,11.4567683 10.3916992,14.0250703 9.48011382,15.0005952 L9.47469106,14.0812009 C9.47469106,14.0812009 12.120065,10.0938862 22.975878,10.0377555 C33.8260813,9.97977236 36.5208211,13.9363357 36.5208211,13.9363357 L36.5260569,14.8538775 Z M40.3444309,21.3405813 L39.8748943,28.089784 C41.3272602,25.8291818 42.5404634,26.6707712 42.5404634,26.6707712 L42.5112927,21.3296516 C40.9508455,21.9361591 40.3444309,21.3405813 40.3444309,21.3405813 Z" id="Shape"></path>
            </g>
        </g>
    </g>
</svg>