<?xml version="1.0" encoding="UTF-8"?>
<svg width="55px" height="55px" viewBox="0 0 55 55" version="1.1" xmlns="http://www.w3.org/2000/svg" xmlns:xlink="http://www.w3.org/1999/xlink">
    <!-- Generator: Sketch 51.3 (57544) - http://www.bohemiancoding.com/sketch -->
    <title>conference copy</title>
    <desc>Created with Sketch.</desc>
    <defs></defs>
    <g id="Page-1" stroke="none" stroke-width="1" fill="none" fill-rule="evenodd">
        <g id="02" transform="translate(-149.000000, -717.000000)" fill="#E9E9E9" fill-rule="nonzero">
            <g id="conference-copy" transform="translate(149.000000, 717.000000)">
                <path d="M53.9710083,2.74462578 L32.6900104,2.74462578 C30.6771933,-0.153336798 26.6961538,-0.870738046 23.7983056,1.14219335 C23.1729522,1.57659044 22.6302703,2.11927235 22.1958732,2.74462578 L0.91487526,2.74462578 C0.409698545,2.74462578 0.000114345114,3.15420998 0.000114345114,3.65938669 L0.000114345114,35.6760187 C0.000114345114,36.1811954 0.409698545,36.5907796 0.91487526,36.5907796 L13.7215281,36.5907796 L13.7215281,53.971237 C13.7215281,54.4764137 14.1311123,54.8859979 14.636289,54.8859979 L40.2495946,54.8859979 C40.7547713,54.8859979 41.1643555,54.4764137 41.1643555,53.971237 L41.1643555,36.5907796 L53.9710083,36.5907796 C54.476185,36.5907796 54.8857692,36.1811954 54.8857692,35.6760187 L54.8857692,3.65938669 C54.8857692,3.15409563 54.4762994,2.74462578 53.9710083,2.74462578 Z M32.0167464,6.40366944 C32.0167464,8.92966736 29.9689397,10.977474 27.4429418,10.977474 C24.9169439,10.977474 22.8691372,8.92966736 22.8691372,6.40366944 C22.8691372,6.31219335 22.8910915,6.22620582 22.89658,6.13655925 C23.4815696,6.31036383 24.0883992,6.40035343 24.698659,6.40366944 C26.1472973,6.40858628 27.5538565,5.91724532 28.6842723,5.01140333 C29.4517568,5.32539501 30.2727547,5.48753638 31.1019854,5.48890852 C31.3717256,5.48787942 31.641237,5.47027027 31.9088046,5.43585239 C31.9792412,5.75361746 32.0154886,6.0781289 32.0167464,6.40366944 Z M11.8920062,30.1874532 L11.8920062,28.3579314 L42.9938773,28.3579314 L42.9938773,30.1874532 L11.8920062,30.1874532 Z M27.4429418,14.6365177 C26.7896881,14.6361746 26.1861746,14.2875364 25.8594906,13.7217568 L29.0263929,13.7217568 C28.6998233,14.287422 28.0963098,14.6361746 27.4429418,14.6365177 Z M23.9293451,13.7720686 C24.2769543,15.0287214 25.2669543,16.0055717 26.5281809,16.3361435 L26.5281809,26.5284096 L21.9543763,26.5284096 L21.9543763,20.1250832 L20.1248545,20.1250832 L20.1248545,26.5284096 L18.2953326,26.5284096 L18.2953326,20.1250832 C18.3002495,16.888659 20.7168191,14.1637006 23.9293451,13.7720686 Z M36.5905509,26.5284096 L34.7610291,26.5284096 L34.7610291,20.1250832 L32.9315073,20.1250832 L32.9315073,26.5284096 L28.3577027,26.5284096 L28.3577027,16.3361435 C29.6182432,16.0060291 30.6081289,15.0304366 30.9565385,13.7748129 C34.1680353,14.1663306 36.584262,16.8898025 36.5905509,20.1250832 L36.5905509,26.5284096 Z M31.0608212,3.63743243 C30.715499,3.63388773 30.3715489,3.59215177 30.0353742,3.51302495 C30.1600104,3.3233264 30.2742412,3.12699584 30.3774948,2.92483368 C30.6300832,3.1372869 30.8592308,3.37615385 31.0608212,3.63743243 Z M27.4429418,1.82986486 C27.8955198,1.83615385 28.344553,1.91082121 28.7748337,2.05123701 C28.5474012,2.5077027 28.2457588,2.92323285 27.882027,3.28067568 C27.0329002,4.11459459 25.888763,4.57952183 24.698659,4.57414761 C24.2473389,4.5720894 23.7988773,4.50336798 23.3676819,4.37015593 C24.1345946,2.81917879 25.7127859,1.83546778 27.4429418,1.82986486 Z M1.82963617,34.7612578 L1.82963617,4.57414761 L21.3140437,4.57414761 C20.4657173,7.39629938 21.6619958,10.4320478 24.2074324,11.9169335 C19.8630042,12.1766112 16.4710707,15.7728794 16.4658108,20.1250832 L16.4658108,26.5284096 L10.9772453,26.5284096 C10.4720686,26.5284096 10.0624844,26.9379938 10.0624844,27.4431705 L10.0624844,31.1022141 C10.0624844,31.6073909 10.4720686,32.0169751 10.9772453,32.0169751 L13.7215281,32.0169751 L13.7215281,34.7612578 L1.82963617,34.7612578 Z M39.3348337,53.0564761 L15.5510499,53.0564761 L15.5510499,32.0169751 L39.3348337,32.0169751 L39.3348337,53.0564761 Z M53.0562474,34.7612578 L41.1643555,34.7612578 L41.1643555,32.0169751 L43.9086383,32.0169751 C44.413815,32.0169751 44.8233992,31.6073909 44.8233992,31.1022141 L44.8233992,27.4431705 C44.8233992,26.9379938 44.413815,26.5284096 43.9086383,26.5284096 L38.4200728,26.5284096 L38.4200728,20.1250832 C38.4149272,15.7744802 35.025738,12.1788981 30.6830249,11.9169335 C33.2284615,10.4320478 34.4247401,7.39629938 33.5764137,4.57414761 L53.0562474,4.57414761 L53.0562474,34.7612578 Z" id="Shape"></path>
            </g>
        </g>
    </g>
</svg>