<?xml version="1.0" encoding="UTF-8"?>
<svg width="51px" height="51px" viewBox="0 0 51 51" version="1.1" xmlns="http://www.w3.org/2000/svg" xmlns:xlink="http://www.w3.org/1999/xlink">
    <!-- Generator: Sketch 51.3 (57544) - http://www.bohemiancoding.com/sketch -->
    <title>management</title>
    <desc>Created with Sketch.</desc>
    <defs></defs>
    <g id="Page-1" stroke="none" stroke-width="1" fill="none" fill-rule="evenodd">
        <g id="02" transform="translate(-422.000000, -718.000000)" fill="#2e406c" fill-rule="nonzero">
            <g id="management" transform="translate(422.000000, 718.000000)">
                <path d="M48.414428,0 L41.6277869,0 C40.2223822,0 39.0829907,1.1393915 39.0829907,2.54518453 L39.0829907,5.08998084 L32.2959613,5.08998084 C31.3588953,5.08998084 30.599301,5.84957513 30.599301,6.78664108 L30.599301,23.7536322 L20.8170002,23.7536322 C20.8290387,23.6891676 20.8410773,23.6254797 20.8511741,23.5602385 C22.1272615,22.7987025 22.9249132,21.4367918 22.9641356,19.9513889 C22.9979212,18.7584064 22.0763889,17.7549342 20.8849598,17.6869746 L20.8849598,15.9141996 C20.9719481,13.3115406 18.9393731,11.1279012 16.3371025,11.028486 L12.6358278,11.028486 C10.0331689,11.1275128 8.00020557,13.3111522 8.08680556,15.9141996 L8.08680556,17.6869746 C6.89265805,17.7526041 5.96724237,18.755688 5.99753289,19.9513889 C6.03753201,21.4391219 6.83829036,22.8021975 8.11826112,23.5617918 C8.31320818,24.9536047 8.94115497,26.2487208 9.91355994,27.2630665 L9.91355994,27.325201 C9.98307294,28.8921555 8.85921507,30.2595029 7.30818259,30.494449 L4.20417575,30.8416256 C1.7972405,31.181812 0.0302906199,33.2769097 0.101356903,35.7067572 L0.101356903,38.353687 C0.0710663626,39.6270559 1.07609195,40.6852842 2.34946084,40.7206231 L26.6545367,40.7206231 C27.9279057,40.6852842 28.9329313,39.6270559 28.9026407,38.353687 L28.9026407,35.7067572 C28.9725421,33.2765214 27.2048155,31.181812 24.7974918,30.8416256 L21.6919316,30.494449 C20.1408991,30.2591146 19.0174297,28.8921555 19.087331,27.325201 L19.087331,27.2319993 C19.5871254,26.7108462 19.9941064,26.1081415 20.291187,25.4502924 L30.599301,25.4502924 L30.599301,44.1139437 C30.599301,45.0510097 31.3588953,45.810604 32.2959613,45.810604 L39.0829907,45.810604 L39.0829907,48.3554003 C39.0829907,49.7611933 40.2223822,50.9005848 41.6277869,50.9005848 L48.414428,50.9005848 C49.8202211,50.9005848 50.9596126,49.7611933 50.9596126,48.3554003 L50.9596126,41.5687591 C50.9596126,40.1633544 49.8202211,39.0239629 48.414428,39.0239629 L41.6277869,39.0239629 C40.2223822,39.0239629 39.0829907,40.1633544 39.0829907,41.5687591 L39.0829907,44.1139437 L32.2959613,44.1139437 L32.2959613,25.4502924 L39.0829907,25.4502924 L39.0829907,27.9954769 C39.0829907,29.4008817 40.2223822,30.5402732 41.6277869,30.5402732 L48.414428,30.5402732 C49.8202211,30.5402732 50.9596126,29.4008817 50.9596126,27.9954769 L50.9596126,21.2084475 C50.9596126,19.8030427 49.8202211,18.6636513 48.414428,18.6636513 L41.6277869,18.6636513 C40.2223822,18.6636513 39.0829907,19.8030427 39.0829907,21.2084475 L39.0829907,23.7536322 L32.2959613,23.7536322 L32.2959613,6.78664108 L39.0829907,6.78664108 L39.0829907,9.33182571 C39.0829907,10.7372304 40.2223822,11.8766219 41.6277869,11.8766219 L48.414428,11.8766219 C49.8202211,11.8766219 50.9596126,10.7372304 50.9596126,9.33182571 L50.9596126,2.54518453 C50.9596126,1.1393915 49.8202211,5.65110012e-15 48.414428,0 Z M12.6358278,12.7251462 L16.3371025,12.7251462 C18.0015305,12.825338 19.2741228,14.2486066 19.1882995,15.9141996 L19.1882995,16.6555418 C19.1424753,16.6555418 19.1086897,16.6403965 19.0601471,16.6403965 L18.9704404,16.6403965 C17.227956,16.6403965 16.7339867,14.0272524 16.7231131,13.9662829 C16.7114629,13.9282255 16.696706,13.8909448 16.679619,13.8552175 C16.6532118,13.7356085 16.5899123,13.6268731 16.4990406,13.544545 C16.4796235,13.515031 16.4582648,13.4866822 16.434576,13.4598867 C16.4260325,13.4528965 16.415159,13.4513433 16.4066155,13.4443531 C16.3538012,13.4070724 16.2967151,13.3760051 16.2369107,13.3511513 C16.1961348,13.3290159 16.1534174,13.3099872 16.1095349,13.2944535 C16.061769,13.284745 16.012838,13.2793083 15.9639072,13.2781433 C15.902161,13.2692114 15.8392498,13.2676581 15.7771153,13.2730949 C15.7654651,13.2730949 15.7542032,13.2730949 15.7425529,13.2730949 C15.7068257,13.284745 15.671875,13.298337 15.6380893,13.3138706 C15.57945,13.3297926 15.5223639,13.3515396 15.4683845,13.3791118 C15.4186769,13.4109558 15.372076,13.4478481 15.3293585,13.488624 C15.2971263,13.5107593 15.2664474,13.5352248 15.2377102,13.5616319 C14.4979212,14.4369518 12.1938962,16.7056377 10.4273346,16.7056377 C10.2110289,16.7056377 9.99511143,16.7250548 9.78191244,16.7631123 L9.78191244,15.9149763 C9.69608918,14.2486066 10.9698465,12.8245614 12.6358278,12.7251462 Z M9.7512336,22.881419 C9.7512336,22.862002 9.73958333,22.8476334 9.73686492,22.828993 C9.72754475,22.7738487 9.71201112,22.7202576 9.69104078,22.6686083 C9.67511874,22.6161824 9.65376008,22.5656981 9.62735291,22.5175439 C9.5997807,22.4752148 9.56832513,22.435604 9.53337443,22.3987117 C9.49881213,22.3559942 9.45997807,22.3171601 9.41726055,22.2825978 C9.3714364,22.2492005 9.32250553,22.2208516 9.27124447,22.1975512 C9.22542032,22.1738624 9.17804271,22.1544453 9.12872353,22.1393 C9.10736477,22.1330866 9.09066609,22.1179414 9.0685307,22.1136696 C8.24330686,21.7055235 7.71361022,20.8717562 7.69419314,19.9513889 C7.69419314,19.762267 7.70001827,19.5273209 8.19282253,19.3921784 C8.29340278,19.7440149 8.43941886,20.0807063 8.62737573,20.3940972 C8.87824384,20.7766127 9.38735835,20.8911732 9.77802908,20.6531205 C10.1683114,20.4150676 10.2999589,19.9102248 10.075498,19.5117873 C9.8778326,19.2224735 9.7784174,18.8772386 9.79123261,18.5269554 C9.79123261,18.5269554 9.91589004,18.4057931 10.4292763,18.4057931 C12.3744746,18.4057931 14.3476334,16.8497121 15.513432,15.7332328 C16.0101197,17.233781 17.3825155,18.2710389 18.9618969,18.3393869 L19.0620889,18.3393869 L19.1882995,18.3393869 L19.1882995,18.4360836 C19.1564556,18.8314145 19.0469436,19.2162601 18.8652001,19.5688734 C18.6714181,19.9840095 18.8426763,20.4783671 19.2519874,20.684576 C19.6612984,20.8911732 20.1607045,20.7350603 20.3793403,20.332351 C20.5304048,20.0267269 20.6531205,19.7082877 20.7459339,19.3805281 C21.2659219,19.5117873 21.2674753,19.7560535 21.2674753,19.9486705 C21.2527184,20.8663194 20.7300119,21.7000868 19.9102248,22.112893 C19.8873127,22.1179414 19.870614,22.1323099 19.8484786,22.1385234 C19.8022661,22.1536687 19.7576069,22.1723091 19.7145011,22.1944444 C19.6601334,22.2169682 19.6080958,22.2457054 19.5599415,22.2791027 C19.5195541,22.3125 19.4826617,22.3497807 19.4496528,22.3901681 C19.4127604,22.4282255 19.3797515,22.4697779 19.3514026,22.5140488 C19.3253838,22.561038 19.3044134,22.6107456 19.2884914,22.6616183 C19.2679094,22.7144326 19.252764,22.7691886 19.2426672,22.8247213 C19.2426672,22.842585 19.229852,22.8577303 19.2282986,22.8763706 C19.034905,25.2728207 17.3654285,27.1469526 15.4198419,27.1469526 L13.5534768,27.1469526 C11.6075018,27.1469526 9.9372487,25.2728207 9.74812688,22.881419 L9.7512336,22.881419 Z M15.5056652,35.7661732 C15.5052769,36.1599506 15.1860608,36.4787784 14.7922835,36.4787784 L14.1798702,36.4787784 C13.9814282,36.4748949 13.7934713,36.3902367 13.6591054,36.2446089 C13.5247396,36.0989812 13.4552266,35.9048108 13.4672652,35.7067572 C13.4676535,35.3133681 13.7864812,34.9945404 14.1798702,34.994152 L14.7922835,34.994152 C14.9907255,34.9980354 15.1786824,35.0823054 15.3134366,35.2283215 C15.4481908,35.3739491 15.5177038,35.5681196 15.5056652,35.7661732 Z M13.8311404,38.1416529 C13.9460892,38.1618466 14.0629797,38.1738852 14.1798702,38.176992 L14.7922835,38.176992 C14.9087857,38.1738852 15.0245111,38.1618466 15.1390716,38.1416529 L15.5250822,39.0239629 L13.4443531,39.0239629 L13.8311404,38.1416529 Z M11.3710024,34.5929962 L8.63591927,31.8816018 C9.01105629,31.7348091 9.36483464,31.537532 9.68676901,31.2952074 L12.0463268,32.8870158 L11.3710024,34.5929962 Z M1.79801723,38.353687 L1.79801723,35.7067572 C1.72850423,34.1409677 2.84653687,32.7728436 4.39485104,32.5289656 L6.62780978,32.2742142 L10.1756899,35.7999589 C10.4910225,36.1141265 10.9178088,36.2908215 11.3632355,36.2919865 C11.4805145,36.2927632 11.597405,36.2803363 11.7119655,36.2554825 C11.7465278,36.2488807 11.7772067,36.231017 11.8121573,36.2216968 C11.8906022,36.6244061 12.0727339,37.0003199 12.339524,37.311769 L11.5966283,39.0239629 L2.34946084,39.0239629 C2.01393453,38.9874589 1.76889165,38.6899899 1.79801723,38.353687 Z M27.2059804,35.7067572 L27.2059804,38.353687 C27.235106,38.6899899 26.990063,38.9874589 26.6545367,39.0239629 L17.3770788,39.0239629 L16.6236979,37.3024488 C16.8877696,36.990223 17.0691246,36.6170276 17.1514529,36.2166484 C17.1871801,36.2259686 17.2194124,36.2438322 17.2559165,36.2512107 C17.3704769,36.2760645 17.4873675,36.2884914 17.6046464,36.2877148 C18.0512381,36.2873263 18.4799662,36.1106314 18.7972405,35.7956871 L22.3474506,32.2761559 L24.6083699,32.530519 C26.1559073,32.7747852 27.2735517,34.1417443 27.2059804,35.7067572 Z M20.3447779,31.8722816 L17.6027047,34.5867827 L16.9242735,32.885074 L19.2950933,31.2792854 C19.6162509,31.5239401 19.9692526,31.7235471 20.3447779,31.8722816 Z M18.1506534,30.0109649 L15.4140168,31.8652915 C15.3907164,31.8835435 15.368581,31.9033488 15.3479989,31.9247076 C15.3177083,31.9472313 15.2893595,31.9720851 15.2629523,31.9984924 C15.2116914,32.0551901 15.1681972,32.1184896 15.1340232,32.1868376 C15.122373,32.2054779 15.1114994,32.2248949 15.1017909,32.2447003 L14.641219,33.2974918 L14.326663,33.2974918 L13.864926,32.2311083 C13.8233735,32.1390716 13.7658991,32.0551901 13.6952211,31.9833471 C13.6800759,31.9674251 13.6629889,31.9546098 13.6470669,31.9402412 C13.6206597,31.9130573 13.5923108,31.8878152 13.5620203,31.8645148 L10.8416941,30.0311586 C11.1546966,29.5278692 11.3760509,28.9725421 11.494883,28.3915845 C12.1395285,28.6902184 12.8416484,28.8443896 13.5519234,28.8436129 L15.4182886,28.8436129 C16.1398255,28.8428363 16.8516538,28.6820632 17.5036778,28.3729441 C17.6209567,28.9527367 17.8403692,29.5072871 18.1506534,30.0109649 Z M40.7796509,41.5687591 C40.7796509,41.1004203 41.1594481,40.7206231 41.6277869,40.7206231 L48.414428,40.7206231 C48.8831551,40.7206231 49.2629523,41.1004203 49.2629523,41.5687591 L49.2629523,48.3554003 C49.2629523,48.8241274 48.8831551,49.2039245 48.414428,49.2039245 L41.6277869,49.2039245 C41.1594481,49.2039245 40.7796509,48.8241274 40.7796509,48.3554003 L40.7796509,41.5687591 Z M40.7796509,21.2084475 C40.7796509,20.7401088 41.1594481,20.3603116 41.6277869,20.3603116 L48.414428,20.3603116 C48.8831551,20.3603116 49.2629523,20.7401088 49.2629523,21.2084475 L49.2629523,27.9954769 C49.2629523,28.4638158 48.8831551,28.8436129 48.414428,28.8436129 L41.6277869,28.8436129 C41.1594481,28.8436129 40.7796509,28.4638158 40.7796509,27.9954769 L40.7796509,21.2084475 Z M49.2629523,9.33182571 C49.2629523,9.80016447 48.8831551,10.1799617 48.414428,10.1799617 L41.6277869,10.1799617 C41.1594481,10.1799617 40.7796509,9.80016447 40.7796509,9.33182571 L40.7796509,2.54518453 C40.7796509,2.07645744 41.1594481,1.69666025 41.6277869,1.69666025 L48.414428,1.69666025 C48.8831551,1.69666025 49.2629523,2.07645744 49.2629523,2.54518453 L49.2629523,9.33182571 Z" id="Shape"></path>
                <path d="M46.7177677,5.08998084 L43.3244472,5.08998084 C42.8561083,5.08998084 42.4763112,5.46977794 42.4763112,5.93850512 C42.4763112,6.40684388 42.8561083,6.78664108 43.3244472,6.78664108 L46.7177677,6.78664108 C47.1864949,6.78664108 47.5662921,6.40684388 47.5662921,5.93850512 C47.5662921,5.46977794 47.1864949,5.08998084 46.7177677,5.08998084 Z" id="Shape"></path>
                <path d="M43.3244472,25.4502924 L46.7177677,25.4502924 C47.1864949,25.4502924 47.5662921,25.0704953 47.5662921,24.6017681 C47.5662921,24.1334293 47.1864949,23.7536322 46.7177677,23.7536322 L43.3244472,23.7536322 C42.8561083,23.7536322 42.4763112,24.1334293 42.4763112,24.6017681 C42.4763112,25.0704953 42.8561083,25.4502924 43.3244472,25.4502924 Z" id="Shape"></path>
                <path d="M43.3244472,45.810604 L46.7177677,45.810604 C47.1864949,45.810604 47.5662921,45.4308069 47.5662921,44.9620797 C47.5662921,44.4937409 47.1864949,44.1139437 46.7177677,44.1139437 L43.3244472,44.1139437 C42.8561083,44.1139437 42.4763112,44.4937409 42.4763112,44.9620797 C42.4763112,45.4308069 42.8561083,45.810604 43.3244472,45.810604 Z" id="Shape"></path>
            </g>
        </g>
    </g>
</svg>