<?xml version="1.0" encoding="UTF-8"?>
<svg width="43px" height="43px" viewBox="0 0 43 43" version="1.1" xmlns="http://www.w3.org/2000/svg" xmlns:xlink="http://www.w3.org/1999/xlink">
    <!-- Generator: Sketch 51.3 (57544) - http://www.bohemiancoding.com/sketch -->
    <title>computing-science-faculty</title>
    <desc>Created with Sketch.</desc>
    <defs></defs>
    <g id="Page-1" stroke="none" stroke-width="1" fill="none" fill-rule="evenodd">
        <g id="02" transform="translate(-800.000000, -724.000000)" fill="#2e406c" fill-rule="nonzero">
            <g id="computing-science-faculty" transform="translate(800.000000, 724.000000)">
                <path d="M41.7822796,42.9141414 L30.1680362,42.9141414 C29.5431217,42.9141414 29.0364572,42.407477 29.0364572,41.7825625 C29.0364572,41.157648 29.5431217,40.6509836 30.1680362,40.6509836 L40.6507007,40.6509836 L40.6507007,2.26315789 L18.4999013,2.26315789 L18.4999013,6.24942763 C18.4999013,6.87434211 17.9932368,7.38100658 17.3683224,7.38100658 C16.7434079,7.38100658 16.2367434,6.87434211 16.2367434,6.24942763 L16.2367434,1.13157895 C16.2367434,0.506664474 16.7434079,0 17.3683224,0 L41.7822796,0 C42.4071941,0 42.9138586,0.506664474 42.9138586,1.13157895 L42.9138586,41.7825625 C42.9138586,42.407477 42.4071941,42.9141414 41.7822796,42.9141414 Z M17.3683224,42.9141414 C17.359977,42.9141414 17.3516316,42.914 17.3432862,42.9138586 L9.25348684,42.9138586 C8.62857237,42.9138586 8.12190789,42.4071941 8.12190789,41.7822796 C8.12190789,41.1573651 8.62857237,40.6507007 9.25348684,40.6507007 L16.2367434,40.6507007 L16.2367434,35.4536414 L1.13186184,35.4536414 C0.506947368,35.4536414 0.000282894737,34.946977 0.000282894737,34.3220625 L0.000282894737,11.0931513 C0.000282894737,10.4682368 0.506947368,9.96157237 1.13186184,9.96157237 L33.6045,9.96157237 C34.2294145,9.96157237 34.7360789,10.4682368 34.7360789,11.0931513 L34.7360789,34.3220625 C34.7360789,34.946977 34.2294145,35.4536414 33.6045,35.4536414 L18.4999013,35.4536414 L18.4999013,40.6507007 L25.4830164,40.6507007 C26.1079309,40.6507007 26.6145954,41.1573651 26.6145954,41.7822796 C26.6145954,42.4071941 26.1079309,42.9138586 25.4830164,42.9138586 L17.3933586,42.9138586 C17.3848717,42.914 17.3766678,42.9141414 17.3683224,42.9141414 Z M17.3683224,33.1903421 L32.4729211,33.1904836 L32.4729211,12.2247303 L2.26344079,12.2247303 L2.26344079,33.1904836 L17.3683224,33.1904836 L17.3683224,33.1903421 Z M26.2639474,25.9711513 L8.47227303,25.9711513 C7.84735855,25.9711513 7.34069408,25.4644868 7.34069408,24.8395724 C7.34069408,24.2146579 7.84735855,23.7079934 8.47227303,23.7079934 L26.2639474,23.7079934 C26.8888618,23.7079934 27.3955263,24.2146579 27.3955263,24.8395724 C27.3955263,25.4644868 26.8888618,25.9711513 26.2639474,25.9711513 Z M22.2604211,21.7073618 L12.4756579,21.7073618 C11.8507434,21.7073618 11.3440789,21.2006974 11.3440789,20.5757829 C11.3440789,19.9508684 11.8507434,19.4442039 12.4756579,19.4442039 L22.2604211,19.4442039 C22.8853355,19.4442039 23.392,19.9508684 23.392,20.5757829 C23.392,21.2006974 22.8853355,21.7073618 22.2604211,21.7073618 Z" id="Shape"></path>
            </g>
        </g>
    </g>
</svg>