<?xml version="1.0" encoding="UTF-8"?>
<svg width="38px" height="54px" viewBox="0 0 38 54" version="1.1" xmlns="http://www.w3.org/2000/svg" xmlns:xlink="http://www.w3.org/1999/xlink">
    <!-- Generator: Sketch 51.3 (57544) - http://www.bohemiancoding.com/sketch -->
    <title>reading</title>
    <desc>Created with Sketch.</desc>
    <defs></defs>
    <g id="Page-1" stroke="none" stroke-width="1" fill="none" fill-rule="evenodd">
        <g id="02" transform="translate(-1103.000000, -718.000000)" fill="#E9E9E9" fill-rule="nonzero">
            <g id="reading" transform="translate(1103.000000, 718.000000)">
                <path d="M35.3406459,35.3087819 L35.3406459,29.7437734 L32.9921813,30.6574958 L32.9852918,30.6419943 L32.9293144,30.5403739 C32.0293711,29.1392181 30.5739603,28.1643513 28.9351161,27.8672408 L23.2839887,26.8389802 L23.2839887,26.3928839 C25.3973484,25.1656884 26.9449065,23.072136 27.4271728,20.5970765 C28.9928159,20.2732691 30.1735071,18.88417 30.1735071,17.223796 L30.1735071,8.71782436 C30.1735071,6.31424363 28.5992521,4.21810765 26.3153768,3.53604533 L25.8847819,3.10545042 C23.8816544,1.10232295 21.2188555,0 18.3864023,0 C12.5397847,0 7.78257224,4.75635127 7.78257224,10.60383 L7.78257224,17.223796 C7.78257224,18.88417 8.96326346,20.2732691 10.5289065,20.5970765 C11.012034,23.072136 12.5587309,25.1665496 14.6720907,26.3928839 L14.6720907,26.8389802 L9.02182436,27.8663796 C7.38470255,28.1634901 5.93015297,29.1366346 5.02934844,30.5369292 L4.97767705,30.6626629 L2.61543343,29.7437734 L2.61543343,35.3087819 C1.1910255,35.3087819 0.0318640227,36.4679433 0.0318640227,37.8923513 L0.0318640227,41.3371105 C0.0318640227,42.7615184 1.1910255,43.9206799 2.61543343,43.9206799 L2.61543343,47.0933031 L18.9780397,53.4574958 L35.3406459,47.0933031 L35.3406459,43.9206799 C36.7650538,43.9206799 37.9242153,42.7615184 37.9242153,41.3371105 L37.9242153,37.8923513 C37.9242153,36.4679433 36.7650538,35.3087819 35.3406459,35.3087819 Z M24.8978584,28.8834448 L28.6268102,29.5612011 C29.7248272,29.7609972 30.6971105,30.3948329 31.3455864,31.2973598 L23.0135751,34.5371558 L24.8978584,28.8834448 Z M16.4676714,27.1825949 C17.2625496,27.4254504 18.1047932,27.5580737 18.9780397,27.5580737 C19.8512861,27.5580737 20.6935297,27.4254504 21.4884079,27.1825949 L18.9780397,29.0651558 L16.4676714,27.1825949 Z M17.6673088,30.2346516 L15.9096204,31.9914788 L14.7694051,28.5716941 L15.317983,28.4726572 L17.6673088,30.2346516 Z M22.6380963,28.4735184 L23.1866742,28.5725552 L22.0464589,31.9923399 L20.2887705,30.2355127 L22.6380963,28.4735184 Z M27.5899377,18.7067649 L27.5899377,15.7408272 C28.1023456,16.0396601 28.4511275,16.5890992 28.4511275,17.223796 C28.4511275,17.8584929 28.1023456,18.407932 27.5899377,18.7067649 Z M10.3661416,18.7067649 C9.85373371,18.407932 9.50495184,17.8584929 9.50495184,17.223796 C9.50495184,16.5890992 9.85373371,16.0396601 10.3661416,15.7408272 L10.3661416,18.7067649 Z M10.3661416,12.917847 L10.3661416,13.9013258 C10.0595581,13.9814164 9.77192068,14.101983 9.50495184,14.2578584 L9.50495184,10.60383 C9.50495184,5.70710482 13.4888159,1.7223796 18.3864023,1.7223796 C20.758119,1.7223796 22.9894618,2.64643626 24.6670595,4.32403399 L25.4266289,5.08446459 L25.658289,5.14130312 C27.3031615,5.55209065 28.4511275,7.02300283 28.4511275,8.71782436 L28.4511275,14.2578584 C28.1841586,14.101983 27.8965212,13.9805552 27.5899377,13.9013258 L27.5899377,12.917847 L24.8591048,12.917847 C22.5252805,12.917847 20.2947989,11.8034674 18.8953654,9.93726912 L18.2107195,9.02268555 L16.4995354,10.7347309 C15.0906289,12.1427762 13.2184023,12.917847 11.2273314,12.917847 L10.3661416,12.917847 Z M12.0885212,18.9461756 L12.0885212,14.6006119 C14.2147989,14.4033994 16.1877847,13.4810652 17.7172578,11.9524533 L18.0522606,11.6174504 C19.7789462,13.5232635 22.2660623,14.6402266 24.8591048,14.6402266 L25.8675581,14.6402266 L25.8675581,18.9461756 C25.8675581,22.7448839 22.7767479,25.8356941 18.9780397,25.8356941 C15.1793314,25.8356941 12.0885212,22.7448839 12.0885212,18.9461756 Z M9.32926912,29.5612011 L13.058221,28.8834448 L14.9425042,34.5371558 L6.60877054,31.2964986 C7.25724646,30.3931105 8.23125212,29.7609972 9.32926912,29.5612011 Z M1.75424363,41.3371105 L1.75424363,37.8923513 C1.75424363,37.4169745 2.14091785,37.0311615 2.61543343,37.0311615 C4.03984136,37.0311615 5.19900283,38.1903229 5.19900283,39.6147309 C5.19900283,41.0391388 4.03984136,42.1983003 2.61543343,42.1983003 C2.14091785,42.1983003 1.75424363,41.8124873 1.75424363,41.3371105 Z M18.1168499,51.2735184 L4.33781303,45.9160567 L4.33781303,43.5555354 C5.85609065,42.8889745 6.92138244,41.375864 6.92138244,39.6147309 C6.92138244,37.8535977 5.85609065,36.3404873 4.33781303,35.6739263 L4.33781303,32.2618924 L18.1168499,37.6202153 L18.1168499,51.2735184 Z M15.5599773,34.778289 L18.9780397,31.3593654 L22.396102,34.7774278 L18.9780397,36.1071048 L15.5599773,34.778289 Z M33.6182663,45.9151955 L19.8392295,51.2726572 L19.8392295,37.6202153 L33.6182663,32.2618924 L33.6182663,35.6739263 C32.0999887,36.3404873 31.0346969,37.8535977 31.0346969,39.6147309 C31.0346969,41.375864 32.0999887,42.8889745 33.6182663,43.5555354 L33.6182663,45.9151955 Z M36.2018357,41.3371105 C36.2018357,41.8124873 35.8151615,42.1983003 35.3406459,42.1983003 C33.916238,42.1983003 32.7570765,41.0391388 32.7570765,39.6147309 C32.7570765,38.1903229 33.916238,37.0311615 35.3406459,37.0311615 C35.8151615,37.0311615 36.2018357,37.4169745 36.2018357,37.8923513 L36.2018357,41.3371105 Z" id="Shape"></path>
            </g>
        </g>
    </g>
</svg>