<?xml version="1.0" encoding="UTF-8"?>
<svg width="15px" height="15px" viewBox="0 0 15 15" version="1.1" xmlns="http://www.w3.org/2000/svg" xmlns:xlink="http://www.w3.org/1999/xlink">
    <!-- Generator: Sketch 51.3 (57544) - http://www.bohemiancoding.com/sketch -->
    <title>like</title>
    <desc>Created with Sketch.</desc>
    <defs></defs>
    <g id="Page-1" stroke="none" stroke-width="1" fill="none" fill-rule="evenodd">
        <g id="03" transform="translate(-460.000000, -1882.000000)" fill="#000000" fill-rule="nonzero">
            <g id="like" transform="translate(460.000000, 1882.000000)">
                <path d="M14.9743269,4.39673077 C14.7553846,1.98692308 13.0497115,0.238557692 10.9150962,0.238557692 C9.49298077,0.238557692 8.19086538,1.00384615 7.45817308,2.23038462 C6.73211538,0.987980769 5.48336538,0.238269231 4.08403846,0.238269231 C1.94971154,0.238269231 0.24375,1.98663462 0.0250961538,4.39644231 C0.00778846154,4.50288462 -0.0631730769,5.06307692 0.152596154,5.97663462 C0.463557692,7.29432692 1.18182692,8.49288462 2.22923077,9.44192308 L7.45471154,14.1839423 L12.7699038,9.44221154 C13.8173077,8.49288462 14.5355769,7.29461538 14.8465385,5.97663462 C15.0623077,5.06336538 14.9913462,4.50317308 14.9743269,4.39673077 Z M14.2849038,5.84451923 C14.0010577,7.04798077 13.3430769,8.14442308 12.3839423,9.01326923 L7.45817308,13.4079808 L2.61692308,9.01442308 C1.65605769,8.14384615 0.998365385,7.04769231 0.714230769,5.84423077 C0.51,4.97971154 0.593942308,4.49134615 0.594230769,4.48817308 L0.598557692,4.45903846 C0.786057692,2.34778846 2.25173077,0.815192308 4.08403846,0.815192308 C5.43605769,0.815192308 6.62625,1.64596154 7.19105769,2.98298077 L7.45673077,3.61269231 L7.72240385,2.98298077 C8.27826923,1.66644231 9.53134615,0.815480769 10.9153846,0.815480769 C12.7474038,0.815480769 14.2133654,2.34807692 14.4046154,4.48673077 C14.4051923,4.49134615 14.4891346,4.98 14.2849038,5.84451923 Z" id="Shape"></path>
                <path d="M4.61509615,1.99153846 C3.02451923,1.99153846 1.73048077,3.28557692 1.73048077,4.87615385 C1.73048077,5.03567308 1.85942308,5.16461538 2.01894231,5.16461538 C2.17846154,5.16461538 2.30740385,5.03567308 2.30740385,4.87615385 C2.30740385,3.60375 3.34269231,2.56846154 4.61509615,2.56846154 C4.77461538,2.56846154 4.90355769,2.43951923 4.90355769,2.28 C4.90355769,2.12048077 4.77432692,1.99153846 4.61509615,1.99153846 Z" id="Shape"></path>
            </g>
        </g>
    </g>
</svg>