<svg xmlns="http://www.w3.org/2000/svg" width="16.935" height="12.862" viewBox="0 0 16.935 12.862">
  <path id="message-closed-envelope" d="M14.925,45.945H2.01A1.974,1.974,0,0,0,0,47.875v9a1.974,1.974,0,0,0,2.01,1.93H14.925a1.974,1.974,0,0,0,2.01-1.93v-9A1.974,1.974,0,0,0,14.925,45.945Zm0,11.158H2.01c-.163,0-.306-.106-.306-.226V49.066L7.545,54a.665.665,0,0,0,.429.157H8.96A.666.666,0,0,0,9.389,54l5.841-4.931v7.812C15.23,57,15.088,57.1,14.925,57.1ZM8.467,52.462,2.786,47.649H14.148Z" transform="translate(0 -45.945)" fill="#fff" opacity="0.5"/>
</svg>
