<?xml version="1.0" encoding="UTF-8"?>
<svg width="8px" height="14px" viewBox="0 0 8 14" version="1.1" xmlns="http://www.w3.org/2000/svg" xmlns:xlink="http://www.w3.org/1999/xlink">
    <!-- Generator: Sketch 51.3 (57544) - http://www.bohemiancoding.com/sketch -->
    <title>smartphone (5)</title>
    <desc>Created with Sketch.</desc>
    <defs></defs>
    <g id="Page-1" stroke="none" stroke-width="1" fill="none" fill-rule="evenodd" opacity="0.4">
        <g id="02" transform="translate(-88.000000, -9.000000)" fill="#FFFFFF" fill-rule="nonzero">
            <g id="smartphone-(5)" transform="translate(88.000000, 9.000000)">
                <ellipse id="Oval" cx="4" cy="12.3666667" rx="1" ry="1"></ellipse>
                <path d="M6.96352941,0 L1.03647059,0 C0.464941176,0 0,0.4613 0,1.02783333 L0,12.9719333 C0,13.5387 0.464941176,14 1.03647059,14 L6.96329412,14 C7.53505882,14 8,13.5387 8,12.9721667 L8,1.02783333 C8,0.4613 7.53505882,0 6.96352941,0 Z M4.70588235,0.7 L4.94117647,0.7 C5.07105882,0.7 5.17647059,0.8043 5.17647059,0.933333333 C5.17647059,1.06236667 5.07105882,1.16666667 4.94117647,1.16666667 L4.70588235,1.16666667 C4.576,1.16666667 4.47058824,1.06236667 4.47058824,0.933333333 C4.47058824,0.8043 4.576,0.7 4.70588235,0.7 Z M3.05882353,0.7 L4,0.7 C4.12988235,0.7 4.23529412,0.8043 4.23529412,0.933333333 C4.23529412,1.06236667 4.12988235,1.16666667 4,1.16666667 L3.05882353,1.16666667 C2.92894118,1.16666667 2.82352941,1.06236667 2.82352941,0.933333333 C2.82352941,0.8043 2.92894118,0.7 3.05882353,0.7 Z M4,13.3 C3.48094118,13.3 3.05882353,12.8814 3.05882353,12.3666667 C3.05882353,11.8519333 3.48094118,11.4333333 4,11.4333333 C4.51905882,11.4333333 4.94117647,11.8519333 4.94117647,12.3666667 C4.94117647,12.8814 4.51905882,13.3 4,13.3 Z M7.52941176,10.7333333 L0.470588235,10.7333333 L0.470588235,1.86666667 L7.52941176,1.86666667 L7.52941176,10.7333333 Z" id="Shape"></path>
            </g>
        </g>
    </g>
</svg>