<svg xmlns="http://www.w3.org/2000/svg" width="46" height="52.57" viewBox="0 0 46 52.57">
  <g id="Group_409" data-name="Group 409" transform="translate(-1104 -758)">
    <path id="Path_287" data-name="Path 287" d="M127.214,417.643H96v1.643h31.214a1.648,1.648,0,0,0,1.643-1.643V416A1.648,1.648,0,0,1,127.214,417.643Z" transform="translate(1014.571 384.713)" fill="#cad1d8"/>
    <g id="Group_408" data-name="Group 408" transform="translate(0 100)">
      <path id="Path_268" data-name="Path 268" d="M99.286,0A3.3,3.3,0,0,0,96,3.286v46a3.3,3.3,0,0,0,3.286,3.286h32.857a3.3,3.3,0,0,0,3.286-3.286V13.143L122.286,0Z" transform="translate(1014.571 658)" fill="#e2e5e7"/>
      <path id="Path_269" data-name="Path 269" d="M355.286,13.143h9.857L352,0V9.857A3.3,3.3,0,0,0,355.286,13.143Z" transform="translate(784.857 658)" fill="#b0b7bd"/>
      <path id="Path_270" data-name="Path 270" d="M393.857,137.857,384,128h9.857Z" transform="translate(756.143 543.143)" fill="#cad1d8"/>
      <path id="Path_271" data-name="Path 271" d="M71.429,258.071a1.648,1.648,0,0,1-1.643,1.643H33.643A1.648,1.648,0,0,1,32,258.071V241.643A1.648,1.648,0,0,1,33.643,240H69.786a1.648,1.648,0,0,1,1.643,1.643Z" transform="translate(1072 442.642)" fill="#de863a"/>
      <path id="Path_288" data-name="Path 288" d="M3.66-7.56a2.867,2.867,0,0,1,1.08.2,2.567,2.567,0,0,1,.852.552,2.6,2.6,0,0,1,.564.822,2.5,2.5,0,0,1,.2,1.008,2.5,2.5,0,0,1-.2,1.008,2.6,2.6,0,0,1-.564.822A2.567,2.567,0,0,1,4.74-2.6a2.867,2.867,0,0,1-1.08.2H2.46V0H.72V-7.56Zm0,3.48a.94.94,0,0,0,.684-.27.855.855,0,0,0,.276-.63.855.855,0,0,0-.276-.63.94.94,0,0,0-.684-.27H2.46v1.8Zm7.08-3.48a2.867,2.867,0,0,1,1.08.2,2.567,2.567,0,0,1,.852.552,2.6,2.6,0,0,1,.564.822,2.5,2.5,0,0,1,.2,1.008,2.5,2.5,0,0,1-.2,1.008,2.6,2.6,0,0,1-.564.822,2.567,2.567,0,0,1-.852.552,2.867,2.867,0,0,1-1.08.2H9.54V0H7.8V-7.56Zm0,3.48a.94.94,0,0,0,.684-.27.854.854,0,0,0,.276-.63.854.854,0,0,0-.276-.63.94.94,0,0,0-.684-.27H9.54v1.8ZM18.18,0H16.44V-5.88H14.28V-7.56h6.06v1.68H18.18Zm4.68-7.56L24.3-5.1l1.44-2.46h1.92L25.38-3.84,27.78,0H25.86L24.3-2.58,22.74,0H20.82l2.4-3.84L20.94-7.56Z" transform="translate(1110 697)" fill="#fff"/>
    </g>
  </g>
</svg>
