<?xml version="1.0" encoding="UTF-8"?>
<svg width="15px" height="17px" viewBox="0 0 15 17" version="1.1" xmlns="http://www.w3.org/2000/svg" xmlns:xlink="http://www.w3.org/1999/xlink">
    <!-- Generator: Sketch 51.3 (57544) - http://www.bohemiancoding.com/sketch -->
    <title>print-button</title>
    <desc>Created with Sketch.</desc>
    <defs></defs>
    <g id="Page-1" stroke="none" stroke-width="1" fill="none" fill-rule="evenodd">
        <g id="03" transform="translate(-581.000000, -1881.000000)" fill="#000000" fill-rule="nonzero">
            <g id="print-button" transform="translate(581.000000, 1881.000000)">
                <path d="M12.6854305,3.34165563 L12.3585762,3.34165563 L12.3585762,0.385629139 C12.3585762,0.172682119 12.185894,0 11.9729139,0 L3.03986755,0 C2.82675497,0 2.65423841,0.172682119 2.65423841,0.385629139 L2.65423841,3.34162252 L2.32718543,3.34162252 C1.0515894,3.34162252 0.0135761589,4.37950331 0.0135761589,5.65523179 L0.0135761589,10.4319868 C0.0135761589,11.7077483 1.0515894,12.7455629 2.32718543,12.7455629 L2.65423841,12.7455629 L2.65423841,15.7527815 C2.65423841,15.9657616 2.82675497,16.1384106 3.03986755,16.1384106 L11.9729139,16.1384106 C12.185894,16.1384106 12.358543,15.9657285 12.358543,15.7527815 L12.358543,12.7455629 L12.6853974,12.7455629 C13.9609934,12.7455629 14.9990066,11.7077483 14.9990066,10.4319868 L14.9990066,5.6552649 C14.9990397,4.37950331 13.9610265,3.34165563 12.6854305,3.34165563 Z M3.42546358,0.771225166 L11.587351,0.771225166 L11.587351,3.34165563 L3.42546358,3.34165563 L3.42546358,0.771225166 Z M11.587351,15.3672848 L3.42546358,15.3672848 L3.42546358,10.6114238 L11.587351,10.6114238 L11.587351,15.3672848 Z M14.2278808,10.4319868 C14.2278808,11.2825497 13.5359603,11.974404 12.6854305,11.974404 L12.3585762,11.974404 L12.3585762,10.6114238 L13.1925497,10.6114238 C13.4056623,10.6114238 13.5781457,10.4387748 13.5781457,10.2257947 C13.5781457,10.0128808 13.4056623,9.84019868 13.1925497,9.84019868 L11.972947,9.84019868 L3.03986755,9.84019868 L1.9344702,9.84019868 C1.72152318,9.84019868 1.54884106,10.0128808 1.54884106,10.2257947 C1.54884106,10.4388079 1.72152318,10.6114238 1.9344702,10.6114238 L2.65423841,10.6114238 L2.65423841,11.974404 L2.32718543,11.974404 C1.47668874,11.974404 0.784768212,11.2824834 0.784768212,10.4319868 L0.784768212,5.6552649 C0.784768212,4.80476821 1.47668874,4.11288079 2.32718543,4.11288079 L3.03983444,4.11288079 L11.9728477,4.11288079 L12.6854305,4.11288079 C13.535894,4.11288079 14.2278146,4.80480132 14.2278146,5.6552649 L14.2278146,10.4319868 L14.2278808,10.4319868 Z" id="Shape"></path>
                <path d="M11.9729139,5.6505298 C11.6824834,5.6505298 11.4466556,5.88625828 11.4466556,6.17678808 C11.4466556,6.46731788 11.6823841,6.70304636 11.9729139,6.70304636 C12.2634768,6.70304636 12.4992384,6.46735099 12.4992384,6.17678808 C12.4991722,5.88625828 12.2634768,5.6505298 11.9729139,5.6505298 Z" id="Shape"></path>
                <path d="M4.32509934,11.9448344 L10.6875497,11.9448344 C10.9005298,11.9448344 11.0731788,11.7722185 11.0731788,11.5592053 C11.0731788,11.3462914 10.9004967,11.1736093 10.6875497,11.1736093 L4.32509934,11.1736093 C4.11215232,11.1736093 3.9394702,11.3462914 3.9394702,11.5592053 C3.9394702,11.7722185 4.11215232,11.9448344 4.32509934,11.9448344 Z" id="Shape"></path>
                <path d="M4.32509934,13.3750331 L10.6875497,13.3750331 C10.9005298,13.3750331 11.0731788,13.2022848 11.0731788,12.989404 C11.0731788,12.7764238 10.9004967,12.6038079 10.6875497,12.6038079 L4.32509934,12.6038079 C4.11215232,12.6038079 3.9394702,12.7764238 3.9394702,12.989404 C3.9394702,13.2023841 4.11215232,13.3750331 4.32509934,13.3750331 Z" id="Shape"></path>
            </g>
        </g>
    </g>
</svg>