<?xml version="1.0" encoding="UTF-8"?>
<svg width="41px" height="31px" viewBox="0 0 41 31" version="1.1" xmlns="http://www.w3.org/2000/svg" xmlns:xlink="http://www.w3.org/1999/xlink">
    <!-- Generator: Sketch 51.3 (57544) - http://www.bohemiancoding.com/sketch -->
    <title>Group 5</title>
    <desc>Created with Sketch.</desc>
    <defs></defs>
    <g id="Page-1" stroke="none" stroke-width="1" fill="none" fill-rule="evenodd">
        <g id="02" transform="translate(-1186.000000, -1473.000000)" fill="#E9E9E9" fill-rule="nonzero">
            <g id="Group-19" transform="translate(1059.000000, 1360.000000)">
                <g id="Group-5" transform="translate(127.000000, 113.000000)">
                    <path d="M35.9948062,0 L5.01365319,0 C2.24808476,0 0,2.23355084 0,4.9812398 L0,26.0187602 C0,28.7664492 2.24808476,31 5.01365319,31 L35.9863229,31 C38.7518913,31 40.9999761,28.7664492 40.9999761,26.0187602 L40.9999761,4.9896683 C41.0084594,2.24197934 38.7603746,0 35.9948062,0 Z M38.717958,26.0187602 C38.717958,27.5106036 37.4963572,28.7243067 35.9948062,28.7243067 L5.01365319,28.7243067 C3.51210223,28.7243067 2.29050146,27.5106036 2.29050146,26.0187602 L2.29050146,4.9896683 C2.29050146,3.4978249 3.51210223,2.28412181 5.01365319,2.28412181 L35.9863229,2.28412181 C37.4878738,2.28412181 38.7094746,3.4978249 38.7094746,4.9896683 L38.7094746,26.0187602 L38.717958,26.0187602 Z" id="Shape"></path>
                    <path d="M25.5531873,15.5122556 L35.5484498,6.51605917 C36.0135424,6.09171028 36.0558236,5.37031717 35.6330121,4.89504641 C35.2102007,4.42826264 34.4914212,4.38582775 34.0178724,4.81017664 L20.2342194,17.2266252 L17.5451386,14.8163235 C17.5366824,14.8078365 17.5282262,14.7993495 17.5282262,14.7908625 C17.4690326,14.7314537 17.409839,14.6805318 17.3421891,14.62961 L6.39982903,4.80168966 C5.92628022,4.37734077 5.20750077,4.41977566 4.78468933,4.89504641 C4.36187788,5.37031717 4.40415903,6.09171028 4.87770784,6.51605917 L14.9913575,15.5886384 L4.91998899,25.0516187 C4.46335263,25.4844546 4.43798394,26.2058477 4.86925162,26.6726315 C5.09756979,26.9102668 5.40199403,27.0375715 5.70641827,27.0375715 C5.98547382,27.0375715 6.26452937,26.9357278 6.48439132,26.7320403 L16.707972,17.1332684 L19.481615,19.6199529 C19.701477,19.8151534 19.9720763,19.9085101 20.2426756,19.9085101 C20.513275,19.9085101 20.7923305,19.8066664 21.0037362,19.6114659 L23.8534854,17.0483986 L34.0178724,26.7405273 C34.2377344,26.9527017 34.5252461,27.0545455 34.8043017,27.0545455 C35.1087259,27.0545455 35.4046939,26.9357278 35.6330121,26.6980924 C36.0642798,26.2397956 36.0473673,25.5099155 35.590731,25.0770796 L25.5531873,15.5122556 Z" id="Shape"></path>
                </g>
            </g>
        </g>
    </g>
</svg>