<?xml version="1.0" encoding="UTF-8"?>
<svg width="60px" height="35px" viewBox="0 0 60 35" version="1.1" xmlns="http://www.w3.org/2000/svg" xmlns:xlink="http://www.w3.org/1999/xlink">
    <!-- Generator: Sketch 51.3 (57544) - http://www.bohemiancoding.com/sketch -->
    <title>graduation-cap</title>
    <desc>Created with Sketch.</desc>
    <defs></defs>
    <g id="Page-1" stroke="none" stroke-width="1" fill="none" fill-rule="evenodd">
        <g id="02" transform="translate(-1176.000000, -1664.000000)" fill="#E9E9E9" fill-rule="nonzero">
            <g id="Group-19" transform="translate(1059.000000, 1360.000000)">
                <g id="graduation-cap" transform="translate(117.000000, 304.000000)">
                    <path d="M54.5105298,23.3867219 L54.4770916,17.9491802 L60,15.0227487 L29.917625,0 L0,15.3232037 L11.9947768,21.8444634 L12.0186961,25.7194081 L12.0211368,26.0288767 L12.1307261,25.9791861 C12.0042957,26.1416629 11.9232631,26.3087621 11.9257038,26.4758612 C11.9352227,28.3816703 20.0597168,29.8899542 30.0872565,29.8381835 C40.1099147,29.7884929 48.2224491,28.1921525 48.215371,26.2907348 C48.215371,26.1236356 48.1223787,25.9611588 47.9983891,25.7940596 L48.1079784,25.8437502 L48.1079784,25.5342816 L48.0864999,21.6436208 L53.2874745,18.5794423 L53.3160312,23.3936554 C52.7436775,23.6261614 52.3455926,24.1591223 52.35023,24.7824508 C52.3551115,25.5999194 53.0560923,26.2613826 53.9264605,26.2546802 C54.8017101,26.2500578 55.4956128,25.581661 55.4907313,24.7665036 C55.4858498,24.143175 55.0853242,23.6148365 54.5105298,23.3867219 Z M30.0799343,28.5261198 C21.1829457,28.5734992 13.9668954,27.6476357 13.9598173,26.4668476 C13.9527391,25.2858284 21.1590265,24.2945581 30.0562591,24.25157 C38.9556883,24.2041905 46.1692979,25.1254317 46.1741794,26.3041397 C46.1810135,27.4807676 38.9793635,28.4810515 30.0799343,28.5261198 Z M47.6762113,18.4867635 C46.4719498,17.287717 42.1557437,14.121846 29.9989017,14.1874839 C17.8252185,14.2484994 13.5639291,17.4527361 12.3740679,18.6698099 L12.3669898,17.5227652 C12.3669898,17.5227652 15.8199059,12.5481553 29.9896269,12.4781262 C44.1520256,12.4057859 47.6693772,17.34203 47.6693772,17.34203 L47.6762113,18.4867635 Z M52.6602041,26.5796338 L52.0473341,35 C53.9430575,32.1796523 55.5266102,33.2296268 55.5266102,33.2296268 L55.4885346,26.5659977 C53.4517364,27.322682 52.6602041,26.5796338 52.6602041,26.5796338 Z" id="Shape"></path>
                </g>
            </g>
        </g>
    </g>
</svg>