<?xml version="1.0" encoding="UTF-8"?>
<svg width="43px" height="39px" viewBox="0 0 43 39" version="1.1" xmlns="http://www.w3.org/2000/svg" xmlns:xlink="http://www.w3.org/1999/xlink">
    <!-- Generator: Sketch 51.3 (57544) - http://www.bohemiancoding.com/sketch -->
    <title>telegram-logo</title>
    <desc>Created with Sketch.</desc>
    <defs></defs>
    <g id="Page-1" stroke="none" stroke-width="1" fill="none" fill-rule="evenodd">
        <g id="02" transform="translate(-1184.000000, -1857.000000)" fill="#E9E9E9" fill-rule="nonzero">
            <g id="Group-19" transform="translate(1059.000000, 1360.000000)">
                <g id="telegram-logo" transform="translate(125.000000, 497.000000)">
                    <path d="M34.6163227,39 C34.2804428,39 33.9468323,38.8992085 33.6606536,38.7024581 L22.8487246,31.2659806 L17.0498033,35.4969211 C16.5950037,35.8285205 16.0088025,35.9120531 15.4806994,35.7205953 C14.9532772,35.5286773 14.5527177,35.0857011 14.4097418,34.5364106 L11.498026,23.347637 L1.09414573,19.3139072 C0.439179895,19.0598574 0.00480546735,18.424503 3.96037217e-05,17.7134399 C-0.00472625991,17.0023768 0.421024224,16.3610392 1.07281281,16.0980149 L40.6322043,0.137064359 C40.8117185,0.0597448753 41.0016722,0.0151020781 41.1932145,0.00313596756 C41.2617522,-0.00100614764 41.3305168,-0.00100614764 41.3988275,0.00290585005 C41.7955289,0.0268380712 42.185195,0.190681739 42.4893025,0.493056149 C42.5208479,0.52435213 42.5508048,0.556338464 42.579173,0.589705504 C42.831083,0.881494508 42.96952,1.23725618 42.9956187,1.59969126 C43.0019732,1.69081779 43.0015193,1.78309492 42.9935762,1.87537204 C42.9881295,1.94118565 42.9788247,2.00676914 42.9656619,2.07189239 L36.288233,37.5972037 C36.1808876,38.1678951 35.797803,38.645619 35.2685652,38.8681427 C35.0586402,38.9565078 34.8369141,39 34.6163227,39 Z M23.7980392,27.7479441 L33.4289418,34.3718766 L38.624641,6.7292407 L19.8591664,25.0387706 L23.75265,27.7168782 C23.7683093,27.7267732 23.7832877,27.7373587 23.7980392,27.7479441 Z M15.7807219,26.2749619 L17.0702284,31.2293919 L19.8484999,29.2022867 L16.2105574,26.6999889 C16.0414827,26.5840097 15.8966912,26.4394959 15.7807219,26.2749619 Z M6.38538908,17.6694874 L13.5291917,20.4389517 C14.0409547,20.637313 14.4272166,21.0736158 14.5670153,21.61071 L15.4729832,25.0921579 C15.5145143,24.6906028 15.6940285,24.3127498 15.985654,24.0280945 L33.8664935,6.58196549 L6.38538908,17.6694874 Z" id="Shape"></path>
                </g>
            </g>
        </g>
    </g>
</svg>