<?xml version="1.0" encoding="UTF-8"?>
<svg width="43px" height="38px" viewBox="0 0 43 38" version="1.1" xmlns="http://www.w3.org/2000/svg" xmlns:xlink="http://www.w3.org/1999/xlink">
    <!-- Generator: Sketch 51.3 (57544) - http://www.bohemiancoding.com/sketch -->
    <title>bar-chart</title>
    <desc>Created with Sketch.</desc>
    <defs></defs>
    <g id="Page-1" stroke="none" stroke-width="1" fill="none" fill-rule="evenodd">
        <g id="02" transform="translate(-1185.000000, -2243.000000)" fill="#E9E9E9" fill-rule="nonzero">
            <g id="Group-19" transform="translate(1059.000000, 1360.000000)">
                <g id="bar-chart" transform="translate(126.000000, 883.000000)">
                    <path d="M41.984125,36.3478261 L1.015875,36.3478261 C0.454775391,36.3478261 0,36.7176393 0,37.173913 C0,37.6300502 0.454775391,38 1.015875,38 L41.984125,38 C42.5450566,38 43,37.6300502 43,37.173913 C43,36.7177076 42.5452246,36.3478261 41.984125,36.3478261 Z" id="Shape"></path>
                    <path d="M40.3213391,4.94192202 L33.1236574,4.94192202 C32.5577428,4.94192202 32.098758,5.41072266 32.098758,5.98873991 L32.098758,13.1059938 L26.9507905,13.1059938 L26.9507905,1.04681789 C26.9507905,0.468800637 26.4918056,0 25.925891,0 L18.7280399,0 C18.1621252,0 17.7031404,0.468800637 17.7031404,1.04681789 L17.7031404,20.8548348 L12.5551729,20.8548348 L12.5551729,11.9566231 C12.5551729,11.3784327 12.0961881,10.9098052 11.5302734,10.9098052 L4.33259175,10.9098052 C3.76650766,10.9098052 3.30769231,11.3784327 3.30769231,11.9566231 L3.30769231,31.9966604 C3.30769231,32.5748507 3.76667712,33.0434783 4.33259175,33.0434783 L11.5302734,33.0434783 L18.7279551,33.0434783 L25.9258063,33.0434783 L33.1235727,33.0434783 L40.3212544,33.0434783 C40.8873385,33.0434783 41.3461538,32.5746776 41.3461538,31.9966604 L41.3461538,5.98873991 C41.3462386,5.41072266 40.8874232,4.94192202 40.3213391,4.94192202 Z M10.5054587,30.9498425 L5.35749119,30.9498425 L5.35749119,13.003441 L10.5054587,13.003441 L10.5054587,30.9498425 Z M17.7033099,30.9498425 L12.5553423,30.9498425 L12.5553423,22.9484706 L17.7033099,22.9484706 L17.7033099,30.9498425 Z M24.9010763,14.1528117 L24.9010763,30.9498425 L19.753024,30.9498425 L19.753024,2.09363578 L24.9010763,2.09363578 L24.9010763,14.1528117 Z M32.0989275,30.9498425 L26.9509599,30.9498425 L26.9509599,15.1996296 L32.0989275,15.1996296 L32.0989275,30.9498425 Z M39.2966092,30.9498425 L34.1487263,30.9498425 L34.1487263,14.1528117 L34.1487263,7.0355578 L39.2966939,7.0355578 L39.2966939,30.9498425 L39.2966092,30.9498425 Z" id="Shape"></path>
                </g>
            </g>
        </g>
    </g>
</svg>