<?xml version="1.0" encoding="UTF-8"?>
<svg width="44px" height="44px" viewBox="0 0 44 44" version="1.1" xmlns="http://www.w3.org/2000/svg" xmlns:xlink="http://www.w3.org/1999/xlink">
    <!-- Generator: Sketch 51.3 (57544) - http://www.bohemiancoding.com/sketch -->
    <title>customer</title>
    <desc>Created with Sketch.</desc>
    <defs></defs>
    <g id="Page-1" stroke="none" stroke-width="1" fill="none" fill-rule="evenodd">
        <g id="02" transform="translate(-1184.000000, -2437.000000)" fill="#E9E9E9" fill-rule="nonzero">
            <g id="Group-19" transform="translate(1059.000000, 1360.000000)">
                <g id="customer" transform="translate(125.000000, 1077.000000)">
                    <path d="M42.623625,21.7067813 C41.1524609,20.4942891 38.8271641,20.3903047 37.301,22.0281875 L33.5122734,26.0953516 C33.0224297,24.5210625 31.552125,23.3747422 29.8189375,23.3747422 L23.0578047,23.3747422 C22.5447578,23.3747422 22.3729688,23.1788047 21.4817969,22.49225 C18.084,19.5301563 12.9805156,19.5396094 9.59303125,22.5206094 L7.10789063,24.7084062 C5.99078906,24.1171562 4.68634375,24.1025469 3.56314063,24.6637187 L0.712765625,26.0884766 C0.07596875,26.4073047 -0.181757813,27.1815156 0.136125,27.8183125 L7.87007031,43.2861172 C8.18889844,43.9229141 8.96310938,44.1806406 9.59990625,43.8627578 L12.4502813,42.4371406 C13.8552734,41.7351172 14.6372188,40.3016797 14.5865156,38.8426328 L29.8188516,38.8426328 C32.6434453,38.8426328 35.3425703,37.4935 37.0371719,35.2335156 L43.2251875,26.9823125 C44.4256484,25.3830156 44.2357266,23.0378672 42.623625,21.7067813 Z M11.297,40.1315234 L9.59982031,40.9805 L3.01829687,27.8183125 L4.71633594,26.9693359 C5.35313281,26.6513672 6.12648437,26.9083203 6.4453125,27.5459766 L11.8736406,38.4026328 C12.1916094,39.0393437 11.9337969,39.8126953 11.297,40.1315234 Z M41.1627734,25.4354375 L34.9748437,33.6866406 C33.7640703,35.3013203 31.8365781,36.2645937 29.8189375,36.2645937 L13.6868359,36.2645937 L8.85654687,26.6032422 L11.2961406,24.4558359 C13.7237031,22.320375 17.3844687,22.320375 19.8120312,24.4558359 C21.2419453,25.7147344 22.1313125,25.9527812 23.0577187,25.9527812 L29.8188516,25.9527812 C30.5295547,25.9527812 31.1078281,26.5311406 31.1078281,27.2417578 C31.1078281,27.952375 30.5294687,28.5307344 29.8188516,28.5307344 L23.2356094,28.5307344 C22.5240469,28.5307344 21.9466328,29.1082344 21.9466328,29.8197109 C21.9466328,30.5311875 22.5241328,31.1086875 23.2356094,31.1086875 L30.6825234,31.1086875 C31.7523594,31.1086875 32.7836094,30.6600937 33.5122734,29.8772891 L39.1872422,23.7855234 C39.7063047,23.2286484 40.502,23.2750547 40.990125,23.7021641 C41.5005078,24.1489531 41.5555937,24.9129375 41.1627734,25.4354375 Z" id="Shape"></path>
                    <path d="M27.1033984,8.79716406 C27.9858906,7.87170313 28.529875,6.62053906 28.529875,5.24296094 C28.529875,2.40547656 26.2372344,0.0011171875 23.3739687,0.0011171875 C20.5321875,0.0011171875 18.132125,2.40117969 18.132125,5.24296094 C18.132125,6.57834375 18.6554844,7.83896094 19.6058672,8.80747656 C17.2487734,10.1291094 15.5541719,12.6658125 15.5541719,15.6407969 L15.5541719,16.9297734 C15.5541719,17.64125 16.1316719,18.21875 16.8431484,18.21875 L29.8189375,18.21875 C30.5304141,18.21875 31.1079141,17.64125 31.1079141,16.9297734 L31.1079141,15.6407969 C31.1078281,12.72425 29.5036328,10.1480156 27.1033984,8.79716406 Z M23.3739688,2.57915625 C24.7712266,2.57915625 25.9519219,3.79938281 25.9519219,5.24304688 C25.9519219,6.66436719 24.7952891,7.821 23.3739688,7.821 C21.9303047,7.821 20.7100781,6.64030469 20.7100781,5.24304688 C20.7100781,3.82430469 21.9552266,2.57915625 23.3739688,2.57915625 Z M18.132125,15.6407969 C18.132125,12.7990156 20.5321875,10.3989531 23.3739688,10.3989531 C26.2166094,10.3989531 28.529875,12.7500313 28.529875,15.6407969 L18.132125,15.6407969 Z" id="Shape"></path>
                </g>
            </g>
        </g>
    </g>
</svg>