<svg xmlns="http://www.w3.org/2000/svg" width="20.921" height="20.921" viewBox="0 0 20.921 20.921">
  <g id="magnifying-glass" transform="translate(0 -0.003)">
    <path id="Path_1" data-name="Path 1" d="M20.456,18.183l-4.312-4.312A8.61,8.61,0,0,0,17.7,8.854,8.694,8.694,0,0,0,17,5.416,8.668,8.668,0,0,0,12.29.7,8.821,8.821,0,0,0,5.413.7,8.668,8.668,0,0,0,.7,5.416a8.821,8.821,0,0,0,0,6.877,8.67,8.67,0,0,0,4.715,4.715,8.7,8.7,0,0,0,3.439.7,8.611,8.611,0,0,0,5.017-1.559l4.312,4.3a1.494,1.494,0,0,0,1.131.478,1.609,1.609,0,0,0,1.144-2.741Zm-7.625-5.35a5.424,5.424,0,0,1-3.979,1.654,5.425,5.425,0,0,1-3.979-1.654A5.424,5.424,0,0,1,3.219,8.854,5.425,5.425,0,0,1,4.872,4.875,5.424,5.424,0,0,1,8.851,3.222a5.426,5.426,0,0,1,3.979,1.653,5.424,5.424,0,0,1,1.653,3.979A5.424,5.424,0,0,1,12.831,12.833Z" transform="translate(0)" fill="#3d3e47"/>
  </g>
</svg>
