<?xml version="1.0" encoding="UTF-8"?>
<svg width="24px" height="31px" viewBox="0 0 24 31" version="1.1" xmlns="http://www.w3.org/2000/svg" xmlns:xlink="http://www.w3.org/1999/xlink">
    <!-- Generator: Sketch 51.3 (57544) - http://www.bohemiancoding.com/sketch -->
    <title>online-education-by-email</title>
    <desc>Created with Sketch.</desc>
    <defs></defs>
    <g id="Page-1" stroke="none" stroke-width="1" fill="none" fill-rule="evenodd">
        <g id="02" transform="translate(-148.000000, -3281.000000)" fill="#A7ACB9" fill-rule="nonzero">
            <g id="Group-16" transform="translate(126.000000, 3186.000000)">
                <g id="Group-14" transform="translate(1.000000, 77.000000)">
                    <g id="online-education-by-email" transform="translate(21.000000, 18.218597)">
                        <path d="M22.9897684,20.4114323 L22.9897684,20.0076215 L22.9897684,19.401553 L22.9897684,19.3757129 L21.4931941,16.5722936 L23.0654486,16.5722936 L23.0654486,14.942447 L19.3017162,10.3415334 C18.8042936,10.8137814 18.2268059,11.181416 17.5834649,11.417031 L18.1999478,13.403354 L16.732385,14.063217 C15.4115628,14.6576183 14.1987602,14.8998108 12.5461272,14.8998108 C9.21439478,14.8998108 6.51073409,12.9717455 5.40528548,10.1077586 L5.15549755,10.1077586 L1.55678956,15.7781403 C0.941324633,16.2786949 0.539040783,17.0329918 0.539040783,17.8863817 C0.539040783,19.3808809 1.74839804,20.5960326 3.2399217,20.6109494 C2.23634584,21.0141729 1.52394127,21.9929657 1.52394127,23.1387406 C1.52394127,23.971106 1.9063752,24.7079413 2.49588254,25.2087308 C1.10580098,25.3322936 0.00873083197,26.4901272 0.00873083197,27.9118042 C0.00873083197,29.4158564 1.23222186,30.6392692 2.73619576,30.6392692 L3.34226427,30.6392692 L19.984522,30.6392692 L21.1967374,30.6392692 L22.4594584,30.6392692 L22.4594584,29.427093 L21.1967374,29.427093 L21.1967374,26.3965155 L22.4594584,26.3965155 L22.4594584,25.8662055 L23.0654878,25.8662055 L23.9747863,25.8662055 L23.9747863,24.6539511 L23.0654878,24.6539511 L23.0654878,21.6236085 L23.9747863,21.6236085 L23.9747863,20.4115889 L23.0654878,20.4115889 L22.9897684,20.4115889 L22.9897684,20.4114323 Z M1.75133442,17.8863034 C1.75133442,17.321031 2.06560522,16.8328874 2.52552039,16.5722936 L20.5905905,16.5722936 L20.5905905,19.4014747 L3.26658401,19.4014747 C2.43112561,19.4015139 1.75133442,18.7215661 1.75133442,17.8863034 Z M19.984522,29.427093 L3.34230343,29.427093 L2.73623491,29.427093 C1.90077651,29.427093 1.22094617,28.7476542 1.22094617,27.9118042 C1.22094617,27.0759935 1.90073736,26.3965155 2.73623491,26.3965155 L3.34230343,26.3965155 L19.984522,26.3965155 L19.984522,29.427093 Z M21.8533899,24.6539511 L4.85759217,24.6539511 L4.25152365,24.6539511 C3.41606525,24.6539511 2.73623491,23.9745122 2.73623491,23.1387406 C2.73623491,22.3030865 3.4160261,21.6234519 4.25152365,21.6234519 L4.85759217,21.6234519 L21.8533899,21.6234519 L21.8533899,24.6539511 Z" id="Shape"></path>
                        <path d="M16.2686721,3.55258728 C15.7986166,3.2891354 14.8581533,3.08264927 14.0318956,3.08264927 C11.3248287,3.08264927 9.6332398,5.16904405 9.6332398,7.46196411 C9.6332398,9.00328874 10.5163458,9.90522675 11.738584,9.90522675 C12.7347602,9.90522675 13.5804763,9.41649592 14.1632496,8.45810114 L14.2007961,8.45810114 C14.2940163,9.45419902 14.9339902,9.90522675 15.8169396,9.90522675 C17.8474649,9.90522675 19.3884763,8.17632626 19.3884763,5.43179119 C19.3885155,2.27416639 17.0199935,0 13.7115954,0 C9.4639478,0 6.6823752,3.32707341 6.6823752,7.16069168 C6.6823752,10.8458467 9.42636215,13.0814486 12.5461664,13.0814486 C13.8809266,13.0814486 14.8581925,12.9126656 15.98631,12.4053768 L15.6479217,11.3157847 C14.8955432,11.7092985 13.8808091,11.9165677 12.9219837,11.9165677 C10.1223622,11.9165677 8.11027732,10.1308581 8.11027732,6.9920261 C8.11027732,3.40208809 10.6297292,1.14651876 13.5053442,1.14651876 C16.4183883,1.14651876 17.9971811,3.04463295 17.9971811,5.48860033 C17.9971811,7.65008809 16.9827602,8.68435889 16.1743948,8.66470473 C15.6479217,8.64638173 15.5162153,8.13913214 15.7044176,7.02988581 L16.2686721,3.55258728 Z M14.0498662,6.4285155 C13.8808874,7.51830343 13.1478499,8.40129201 12.4524372,8.40129201 C11.8324698,8.40129201 11.5124437,7.95092985 11.5124437,7.23719413 C11.5124437,5.78924633 12.490062,4.56759543 13.7308581,4.56759543 C13.9753214,4.56759543 14.1632887,4.60541599 14.3133181,4.6422186 L14.0498662,6.4285155 Z" id="Shape"></path>
                    </g>
                </g>
            </g>
        </g>
    </g>
</svg>