<?xml version="1.0" encoding="UTF-8"?>
<svg width="27px" height="24px" viewBox="0 0 27 24" version="1.1" xmlns="http://www.w3.org/2000/svg" xmlns:xlink="http://www.w3.org/1999/xlink">
    <!-- Generator: Sketch 51.3 (57544) - http://www.bohemiancoding.com/sketch -->
    <title>portfolio</title>
    <desc>Created with Sketch.</desc>
    <defs></defs>
    <g id="Page-1" stroke="none" stroke-width="1" fill="none" fill-rule="evenodd">
        <g id="02" transform="translate(-149.000000, -3397.000000)" fill="#A7ACB9" fill-rule="nonzero">
            <g id="Group-16" transform="translate(126.000000, 3186.000000)">
                <g id="Group-12" transform="translate(1.000000, 188.000000)">
                    <g id="portfolio" transform="translate(22.000000, 23.000000)">
                        <path d="M26.2139282,3.16426848 C26.2122803,3.16426848 26.2106323,3.1640625 26.2089844,3.1640625 L19.0371094,3.1640625 L19.0371094,2.37304688 C19.0371094,1.0645752 17.9725342,0 16.6640625,0 L10.3359375,0 C9.02746582,0 7.96289062,1.0645752 7.96289062,2.37304688 L7.96289062,3.1640625 L0.791015625,3.1640625 C0.350601223,3.1640625 0,3.52496338 0,3.95507812 L0,21.3574219 C0,22.6658936 1.0645752,23.7304688 2.37304688,23.7304688 L24.6269531,23.7304688 C25.9354248,23.7304688 27,22.6658936 27,21.3574219 L27,3.9717636 C27,3.97073364 27,3.96970369 27,3.96867368 C26.9697189,3.44915771 26.6502228,3.16715242 26.2139282,3.16426848 Z M9.54492188,2.37304688 C9.54492188,1.93695833 9.89984895,1.58203125 10.3359375,1.58203125 L16.6640625,1.58203125 C17.100151,1.58203125 17.4550781,1.93695833 17.4550781,2.37304688 L17.4550781,3.1640625 L9.54492188,3.1640625 L9.54492188,2.37304688 Z M25.1114502,4.74609375 L22.6549759,12.1153107 C22.5472412,12.4389267 22.2456665,12.65625 21.904747,12.65625 L17.4550781,12.65625 L17.4550781,11.8652344 C17.4550781,11.4283219 17.100975,11.0742188 16.6640625,11.0742188 L10.3359375,11.0742188 C9.89902498,11.0742188 9.54492188,11.4283219 9.54492188,11.8652344 L9.54492188,12.65625 L5.095253,12.65625 C4.7543335,12.65625 4.45275879,12.4389267 4.3450241,12.1153107 L1.8885498,4.74609375 L25.1114502,4.74609375 Z M15.8730469,12.65625 L15.8730469,14.2382812 L11.1269531,14.2382812 L11.1269531,12.65625 L15.8730469,12.65625 Z M25.4179688,21.3574219 C25.4179688,21.7935104 25.0630417,22.1484375 24.6269531,22.1484375 L2.37304688,22.1484375 C1.93695833,22.1484375 1.58203125,21.7935104 1.58203125,21.3574219 L1.58203125,8.82950593 L2.84415437,12.6156693 C3.16756438,13.5863114 4.0722885,14.2382813 5.095253,14.2382813 L9.54492188,14.2382813 L9.54492188,15.0292969 C9.54492188,15.4662094 9.89902498,15.8203125 10.3359375,15.8203125 L16.6640625,15.8203125 C17.100975,15.8203125 17.4550781,15.4662094 17.4550781,15.0292969 L17.4550781,14.2382813 L21.904747,14.2382813 C22.9277115,14.2382813 23.8324356,13.5863114 24.1558456,12.6156693 L25.4179688,8.82950593 L25.4179688,21.3574219 Z" id="Shape"></path>
                    </g>
                </g>
            </g>
        </g>
    </g>
</svg>