<?xml version="1.0" encoding="UTF-8"?>
<svg width="21px" height="13px" viewBox="0 0 21 13" version="1.1" xmlns="http://www.w3.org/2000/svg" xmlns:xlink="http://www.w3.org/1999/xlink">
    <!-- Generator: Sketch 51.3 (57544) - http://www.bohemiancoding.com/sketch -->
    <title>view (3)</title>
    <desc>Created with Sketch.</desc>
    <defs></defs>
    <g id="Page-1" stroke="none" stroke-width="1" fill="none" fill-rule="evenodd">
        <g id="02" transform="translate(-314.000000, -1782.000000)" fill="#9C9C9C" fill-rule="nonzero">
            <g id="Group-21" transform="translate(87.000000, 1429.000000)">
                <g id="view-(3)" transform="translate(227.000000, 353.000000)">
                    <path d="M17.8717,3.34635 C13.71055,-0.8148 6.9405,-0.8148 2.77935,3.34635 L0,6.12535 L2.8483,8.97365 C4.9287,11.05405 7.6615,12.0946 10.39465,12.0946 C13.1278,12.0946 15.86025,11.0544 17.941,8.97365 L20.72035,6.1943 L17.8717,3.34635 Z M17.44575,8.47875 C13.5576,12.36655 7.23135,12.36655 3.3432,8.47875 L0.9898,6.12535 L3.27425,3.8409 C7.1624,-0.0469 13.48865,-0.0469 17.3768,3.8409 L19.7302,6.1943 L17.44575,8.47875 Z" id="Shape"></path>
                    <path d="M10.0002,3.3495 C8.6492,3.3495 7.5502,4.4485 7.5502,5.7995 C7.5502,5.9927 7.707,6.1495 7.9002,6.1495 C8.0934,6.1495 8.2502,5.9927 8.2502,5.7995 C8.2502,4.83455 9.03525,4.0495 10.0002,4.0495 C10.1934,4.0495 10.3502,3.8927 10.3502,3.6995 C10.3502,3.5063 10.19375,3.3495 10.0002,3.3495 Z" id="Shape"></path>
                    <path d="M10.3502,1.5995 C7.8414,1.5995 5.8002,3.6407 5.8002,6.1495 C5.8002,8.6583 7.8414,10.6995 10.3502,10.6995 C12.859,10.6995 14.9002,8.6583 14.9002,6.1495 C14.9002,3.6407 12.85935,1.5995 10.3502,1.5995 Z M10.3502,9.9995 C8.22745,9.9995 6.5002,8.27225 6.5002,6.1495 C6.5002,4.02675 8.22745,2.2995 10.3502,2.2995 C12.47295,2.2995 14.2002,4.02675 14.2002,6.1495 C14.2002,8.27225 12.4733,9.9995 10.3502,9.9995 Z" id="Shape"></path>
                </g>
            </g>
        </g>
    </g>
</svg>