<?xml version="1.0" encoding="UTF-8"?>
<svg width="25px" height="22px" viewBox="0 0 25 22" version="1.1" xmlns="http://www.w3.org/2000/svg" xmlns:xlink="http://www.w3.org/1999/xlink">
    <!-- Generator: Sketch 51.3 (57544) - http://www.bohemiancoding.com/sketch -->
    <title>telegram (3)</title>
    <desc>Created with Sketch.</desc>
    <defs></defs>
    <g id="Page-1" stroke="none" stroke-width="1" fill="none" fill-rule="evenodd" opacity="1">
        <g id="02" transform="translate(-1167.000000, -4917.000000)" fill="#FFFFFF" fill-rule="nonzero">
            <g id="telegram-(3)" transform="translate(1167.000000, 4917.000000)">
                <path d="M0.441583333,10.4704167 L6.20208333,12.6204167 L8.43175,19.791 C8.57441667,20.25025 9.136,20.42 9.50875,20.11525 L12.71975,17.4975833 C13.0563333,17.2233333 13.53575,17.2096667 13.8875,17.465 L19.679,21.66975 C20.07775,21.9595833 20.6426667,21.7410833 20.7426667,21.25925 L24.98525,0.851666667 C25.0944167,0.325333333 24.57725,-0.11375 24.0760833,0.0800833333 L0.434833333,9.20016667 C-0.148583333,9.42516667 -0.1435,10.2511667 0.441583333,10.4704167 Z M8.07241667,11.4759167 L19.3305833,4.542 C19.5329167,4.41775 19.7410833,4.69133333 19.5673333,4.8525 L10.2760833,13.4891667 C9.9495,13.7931667 9.73883333,14.2 9.67916667,14.6415833 L9.36266667,16.9870833 C9.32075,17.30025 8.88083333,17.3313333 8.79441667,17.02825 L7.57716667,12.7511667 C7.43775,12.2633333 7.64091667,11.74225 8.07241667,11.4759167 Z" id="XMLID_497_"></path>
            </g>
        </g>
    </g>
</svg>