<svg xmlns="http://www.w3.org/2000/svg" width="25.806" height="25.806" viewBox="0 0 25.806 25.806">
  <g id="Group_897" data-name="Group 897" transform="translate(-2.175)">
    <g id="Rectangle_758" data-name="Rectangle 758" transform="translate(2.175)" fill="#fff" stroke="#9e9e9e" stroke-width="1">
      <rect width="25.806" height="25.806" rx="3" stroke="none"/>
      <rect x="0.5" y="0.5" width="24.806" height="24.806" rx="2.5" fill="none"/>
    </g>
    <g id="telegram-logo" transform="translate(8.175 6.112)">
      <path id="Path_871" data-name="Path 871" d="M13.764.815a1.21,1.21,0,0,0-.972-.469,1.667,1.667,0,0,0-.775.208L.838,6.415a1.317,1.317,0,0,0,.131,2.5L2.4,9.478a2.436,2.436,0,0,0,.9.163c.052,0,.1-.007.152-.009-.019.025-.043.045-.061.071a1.592,1.592,0,0,0-.038,1.52c0,.01.007.018.011.027.423.936.892,1.993.949,2.14A.962.962,0,0,0,5.2,14c.6,0,.782-.29,1.769-1.9a1.622,1.622,0,0,0,.277-.74l.316.127,1.583.645.741.3a.984.984,0,0,0,.143.072.951.951,0,0,0,.35.067c.72,0,.892-.624.985-.958.046-.165.109-.394.177-.647l2.414-8.871A1.436,1.436,0,0,0,13.764.815ZM6.171,11.6A16.129,16.129,0,0,1,5.2,13.061s0,0,0,0c-.088-.236-.973-2.2-.973-2.2-.163-.393-.134-.73.147-.73a.591.591,0,0,1,.222.052l.687.357a1.9,1.9,0,0,0,.378.2l.035.013.065.033C6.286,11.067,6.454,11.169,6.171,11.6ZM13.044,1.86l-2.413,8.871c-.136.5-.25.909-.252.909s0-.011,0-.012-.394-.164-.875-.361l-1.584-.645c-.481-.195-1.27-.51-1.753-.7l-.08-.032-.3-.154a.577.577,0,0,1-.024-.909l4.9-5.247c.2-.21.271-.318.228-.318a1.128,1.128,0,0,0-.325.213l-6.2,4.891A1.807,1.807,0,0,1,3.3,8.7a1.523,1.523,0,0,1-.554-.1L1.318,8.036c-.483-.191-.5-.544-.042-.786l11.18-5.862a.748.748,0,0,1,.336-.1C13.032,1.289,13.142,1.5,13.044,1.86Z" transform="translate(0 -0.346)" fill="#9e9e9e"/>
    </g>
  </g>
</svg>
