<?xml version="1.0" encoding="UTF-8"?>
<svg width="17px" height="14px" viewBox="0 0 17 14" version="1.1" xmlns="http://www.w3.org/2000/svg" xmlns:xlink="http://www.w3.org/1999/xlink">
    <!-- Generator: Sketch 51.3 (57544) - http://www.bohemiancoding.com/sketch -->
    <title>telegram (4)</title>
    <desc>Created with Sketch.</desc>
    <defs></defs>
    <g id="Page-1" stroke="none" stroke-width="1" fill="none" fill-rule="evenodd">
        <g id="03" transform="translate(-709.000000, -1882.000000)" fill="#000000" fill-rule="nonzero">
            <g id="telegram-(4)" transform="translate(709.333333, 1882.000000)">
                <path d="M0.282613333,6.70106667 L3.96933333,8.07706667 L5.39632,12.66624 C5.48762667,12.96016 5.84704,13.0688 6.0856,12.87376 L8.14064,11.1984533 C8.35605333,11.0229333 8.66288,11.0141867 8.888,11.1776 L12.59456,13.86864 C12.84976,14.0541333 13.2113067,13.9142933 13.2753067,13.60592 L15.99056,0.545066667 C16.0604267,0.208213333 15.72944,-0.0728 15.4086933,0.0512533333 L0.278293333,5.88810667 C-0.0950933333,6.03210667 -0.09184,6.56074667 0.282613333,6.70106667 Z M5.16634667,7.34458667 L12.3715733,2.90688 C12.5010667,2.82736 12.6342933,3.00245333 12.5230933,3.1056 L6.57669333,8.63306667 C6.36768,8.82762667 6.23285333,9.088 6.19466667,9.37061333 L5.99210667,10.8717333 C5.96528,11.07216 5.68373333,11.0920533 5.62842667,10.89808 L4.84938667,8.16074667 C4.76016,7.84853333 4.89018667,7.51504 5.16634667,7.34458667 Z" id="XMLID_497_"></path>
            </g>
        </g>
    </g>
</svg>