<?xml version="1.0" encoding="UTF-8"?>
<svg width="19px" height="11px" viewBox="0 0 19 11" version="1.1" xmlns="http://www.w3.org/2000/svg" xmlns:xlink="http://www.w3.org/1999/xlink">
    <!-- Generator: Sketch 51.3 (57544) - http://www.bohemiancoding.com/sketch -->
    <title>view (2)</title>
    <desc>Created with Sketch.</desc>
    <defs></defs>
    <g id="Page-1" stroke="none" stroke-width="1" fill="none" fill-rule="evenodd" opacity="0.4">
        <g id="02" transform="translate(-1015.000000, -11.000000)" fill="#FFFFFF" fill-rule="nonzero">
            <g id="view-(2)" transform="translate(1015.000000, 11.000000)">
                <path d="M16.1696333,3.02765 C14.34595,1.20396667 11.9212333,0.1995 9.34198333,0.1995 C6.76273333,0.1995 4.33833333,1.20365 2.51465,3.02765 L0,5.54198333 L2.57703333,8.11901667 C4.40071667,9.9427 6.82543333,10.9471667 9.40468333,10.9471667 C11.9839333,10.9471667 14.40865,9.94301667 16.2323333,8.11901667 L18.7469833,5.60436667 L16.1696333,3.02765 Z M15.78425,7.67125 C14.0802667,9.37523333 11.8145167,10.3138333 9.40468333,10.3138333 C6.99485,10.3138333 4.7291,9.37555 3.02511667,7.67125 L0.89585,5.54198333 L2.96273333,3.4751 C4.66671667,1.77111667 6.93246667,0.832516667 9.3423,0.832516667 C11.7521333,0.832516667 14.0178833,1.7708 15.7218667,3.4751 L17.8511333,5.60436667 L15.78425,7.67125 Z" id="Shape"></path>
                <path d="M9.36446667,1.44716667 C7.0946,1.44716667 5.2478,3.14132528 5.2478,5.22358333 C5.2478,7.30584138 7.0946,9 9.36446667,9 C11.6343333,9 13.4811333,7.30584138 13.4811333,5.22358333 C13.4811333,3.14132528 11.63465,1.44716667 9.36446667,1.44716667 Z M9.36446667,3.77111538 C8.49141667,3.77111538 7.78113333,4.42269251 7.78113333,5.22358333 C7.78113333,5.38393579 7.63926667,5.51407692 7.46446667,5.51407692 C7.28966667,5.51407692 7.1478,5.38393579 7.1478,5.22358333 C7.1478,4.10227808 8.14213333,3.19012821 9.36446667,3.19012821 C9.53926667,3.19012821 9.68113333,3.32026933 9.68113333,3.48062179 C9.68113333,3.64097426 9.53958333,3.77111538 9.36446667,3.77111538 Z" id="Shape"></path>
            </g>
        </g>
    </g>
</svg>