<?xml version="1.0" encoding="UTF-8"?>
<svg width="15px" height="15px" viewBox="0 0 15 15" version="1.1" xmlns="http://www.w3.org/2000/svg" xmlns:xlink="http://www.w3.org/1999/xlink">
    <!-- Generator: Sketch 51.3 (57544) - http://www.bohemiancoding.com/sketch -->
    <title>uzbekistan (2)</title>
    <desc>Created with Sketch.</desc>
    <defs>
        <circle id="path-1" cx="7.5" cy="7.5" r="7.5"></circle>
    </defs>
    <g id="Page-1" stroke="none" stroke-width="1" fill="none" fill-rule="evenodd">
        <g id="02" transform="translate(-1307.000000, -9.000000)">
            <g id="uzbekistan-(2)" transform="translate(1307.000000, 9.000000)">
                <mask id="mask-2" fill="white">
                    <use xlink:href="#path-1"></use>
                </mask>
                <use id="Mask" fill="#D8D8D8" xlink:href="#path-1"></use>
                <g mask="url(#mask-2)" fill-rule="nonzero">
                    <path d="M11.71875,0 L3.28125,0 C1.4690625,0 0,1.46905963 0,3.28124359 L0,5 L15,5 L15,3.28124359 C15,1.46905963 13.5309375,0 11.71875,0 Z" id="Shape" fill="#82AFFF"></path>
                    <path d="M0,11.7187564 C0,13.5309404 1.4690625,15 3.28125,15 L11.71875,15 C13.5309375,15 15,13.5309404 15,11.7187564 L15,10 L0,10 L0,11.7187564 Z" id="Shape" fill="#73AF00"></path>
                    <rect id="Rectangle-path" fill="#F5F5F5" x="0" y="5" width="15" height="5"></rect>
                    <g id="Group" transform="translate(0.000000, 5.000000)" fill="#FF4B55">
                        <rect id="Rectangle-path" x="0" y="0.0151485149" width="15" height="1"></rect>
                        <rect id="Rectangle-path" x="0" y="5.35277228" width="15" height="1"></rect>
                    </g>
                    <g id="Group" transform="translate(1.000000, 1.000000)" fill="#F5F5F5">
                        <path d="M2.65089527,3.66326667 C1.81219257,3.66326667 1.13238851,2.91973333 1.13238851,2.00356667 C1.13238851,1.08403333 1.81219257,0.3372 2.65089527,0.3372 C2.65408784,0.3372 2.65728041,0.337233333 2.66047297,0.337266667 C2.70982095,0.338 2.72715203,0.266066667 2.68364189,0.2405 C2.42537838,0.0887666667 2.13062838,0.00286666667 1.81727027,0.0053 C0.813739865,0.0131666667 -0.00139864865,0.924833333 0.00921283784,2.02496667 C0.0197331081,3.1138 0.831679054,3.99513333 1.83034459,3.99513333 C2.13941554,3.99513333 2.43,3.90943333 2.68501014,3.75976667 C2.72839865,3.7343 2.71085473,3.66233333 2.66165878,3.66316667 C2.65807095,3.66323333 2.65448311,3.66326667 2.65089527,3.66326667 Z" id="Shape"></path>
                        <path d="M3.83995946,3.2043 L3.772125,3.42723333 L3.55776689,3.42906667 C3.53000676,3.4293 3.51851351,3.46813333 3.54083108,3.4862 L3.71329054,3.6258 L3.64861824,3.84986667 C3.64025676,3.87886667 3.67038851,3.90286667 3.69294932,3.88516667 L3.86735473,3.7485 L4.04176014,3.88516667 C4.06435135,3.90286667 4.09448311,3.87886667 4.08609122,3.84986667 L4.02141892,3.6258 L4.19384797,3.4862 C4.21616554,3.46813333 4.2046723,3.4293 4.17691216,3.42906667 L3.96255405,3.42723333 L3.89471959,3.2043 C3.88599324,3.17543333 3.84874662,3.17543333 3.83995946,3.2043 Z" id="Shape"></path>
                        <path d="M5.02373311,3.2043 L4.95592905,3.42723333 L4.74157095,3.42906667 C4.71381081,3.4293 4.70231757,3.46813333 4.72463514,3.4862 L4.89709459,3.6258 L4.8324223,3.84986667 C4.82406081,3.87886667 4.85416216,3.90286667 4.87675338,3.88516667 L5.05115878,3.7485 L5.22556419,3.88516667 C5.24815541,3.90286667 5.27828716,3.87886667 5.26989527,3.84986667 L5.20522297,3.6258 L5.37768243,3.4862 C5.4,3.46813333 5.38850676,3.4293 5.36074662,3.42906667 L5.14638851,3.42723333 L5.07855405,3.2043 C5.06976689,3.17543333 5.03252027,3.17543333 5.02373311,3.2043 Z" id="Shape"></path>
                        <path d="M7.42576014,3.2043 L7.35795608,3.42723333 L7.14359797,3.42906667 C7.11583784,3.4293 7.10434459,3.46813333 7.12666216,3.4862 L7.29912162,3.6258 L7.23444932,3.84986667 C7.22608784,3.87886667 7.25618919,3.90286667 7.27878041,3.88516667 L7.45318581,3.7485 L7.62759122,3.88516667 C7.65018243,3.90286667 7.68028378,3.87886667 7.6719223,3.84986667 L7.60725,3.6258 L7.77970946,3.4862 C7.80202703,3.46813333 7.79053378,3.4293 7.76277365,3.42906667 L7.54841554,3.42723333 L7.48058108,3.2043 C7.47179392,3.17543333 7.4345473,3.17543333 7.42576014,3.2043 Z" id="Shape"></path>
                        <path d="M8.60390878,3.2043 L8.53607432,3.42723333 L8.32171622,3.42906667 C8.29395608,3.4293 8.28246284,3.46813333 8.30478041,3.4862 L8.47723986,3.6258 L8.41256757,3.84986667 C8.40420608,3.87886667 8.43433784,3.90286667 8.45689865,3.88516667 L8.63130405,3.7485 L8.80570946,3.88516667 C8.82830068,3.90286667 8.85840203,3.87886667 8.85004054,3.84986667 L8.78536824,3.6258 L8.9578277,3.4862 C8.98014527,3.46813333 8.96865203,3.4293 8.94089189,3.42906667 L8.72653378,3.42723333 L8.65869932,3.2043 C8.64991216,3.17543333 8.61266554,3.17543333 8.60390878,3.2043 Z" id="Shape"></path>
                        <path d="M5.02373311,1.659 L4.95592905,1.88193333 L4.74157095,1.88376667 C4.71381081,1.884 4.70231757,1.92283333 4.72463514,1.9409 L4.89709459,2.0805 L4.8324223,2.30456667 C4.82406081,2.33356667 4.85416216,2.35756667 4.87675338,2.3399 L5.05115878,2.20323333 L5.22556419,2.3399 C5.24815541,2.3576 5.27828716,2.3336 5.26989527,2.3046 L5.20522297,2.08053333 L5.37768243,1.94093333 C5.4,1.92286667 5.38850676,1.88403333 5.36074662,1.8838 L5.14638851,1.88196667 L5.07855405,1.65903333 C5.06976689,1.63013333 5.03252027,1.63013333 5.02373311,1.659 Z" id="Shape"></path>
                        <path d="M6.23228716,1.659 L6.1644527,1.88193333 L5.95009459,1.88376667 C5.92233446,1.884 5.91084122,1.92283333 5.93315878,1.9409 L6.10561824,2.0805 L6.04094595,2.30456667 C6.03258446,2.33356667 6.06268581,2.35756667 6.08527703,2.3399 L6.25968243,2.20323333 L6.43408784,2.3399 C6.45667905,2.3576 6.48681081,2.3336 6.47841892,2.3046 L6.41374662,2.08053333 L6.58620608,1.94093333 C6.60852365,1.92286667 6.59703041,1.88403333 6.56927027,1.8838 L6.35491216,1.88196667 L6.2870777,1.65903333 C6.27829054,1.63013333 6.24104392,1.63013333 6.23228716,1.659 Z" id="Shape"></path>
                        <path d="M7.42576014,1.659 L7.35795608,1.88193333 L7.14359797,1.88376667 C7.11583784,1.884 7.10434459,1.92283333 7.12666216,1.9409 L7.29912162,2.0805 L7.23444932,2.30456667 C7.22608784,2.33356667 7.25618919,2.35756667 7.27878041,2.3399 L7.45318581,2.20323333 L7.62759122,2.3399 C7.65018243,2.3576 7.68028378,2.3336 7.6719223,2.3046 L7.60725,2.08053333 L7.77970946,1.94093333 C7.80202703,1.92286667 7.79053378,1.88403333 7.76277365,1.8838 L7.54841554,1.88196667 L7.48058108,1.65903333 C7.47179392,1.63013333 7.4345473,1.63013333 7.42576014,1.659 Z" id="Shape"></path>
                        <path d="M8.60390878,1.659 L8.53607432,1.88193333 L8.32171622,1.88376667 C8.29395608,1.884 8.28246284,1.92283333 8.30478041,1.9409 L8.47723986,2.0805 L8.41256757,2.30456667 C8.40420608,2.33356667 8.43433784,2.35756667 8.45689865,2.3399 L8.63130405,2.20323333 L8.80570946,2.3399 C8.82830068,2.3576 8.85840203,2.3336 8.85004054,2.3046 L8.78536824,2.08053333 L8.9578277,1.94093333 C8.98014527,1.92286667 8.96865203,1.88403333 8.94089189,1.8838 L8.72653378,1.88196667 L8.65869932,1.65903333 C8.64991216,1.63013333 8.61266554,1.63013333 8.60390878,1.659 Z" id="Shape"></path>
                        <path d="M6.23228716,3.2043 L6.1644527,3.42723333 L5.95009459,3.42906667 C5.92233446,3.4293 5.91084122,3.46813333 5.93315878,3.4862 L6.10561824,3.6258 L6.04094595,3.84986667 C6.03258446,3.87886667 6.06268581,3.90286667 6.08527703,3.88516667 L6.25968243,3.7485 L6.43408784,3.88516667 C6.45667905,3.90286667 6.48681081,3.87886667 6.47841892,3.84986667 L6.41374662,3.6258 L6.58620608,3.4862 C6.60852365,3.46813333 6.59703041,3.4293 6.56927027,3.42906667 L6.35491216,3.42723333 L6.2870777,3.2043 C6.27829054,3.17543333 6.24104392,3.17543333 6.23228716,3.2043 Z" id="Shape"></path>
                        <path d="M6.23228716,0.113733333 L6.1644527,0.336666667 L5.95009459,0.3385 C5.92233446,0.338733333 5.91084122,0.377566667 5.93315878,0.395633333 L6.10561824,0.535233333 L6.04094595,0.7593 C6.03258446,0.7883 6.06268581,0.8123 6.08527703,0.7946 L6.25968243,0.657933333 L6.43408784,0.7946 C6.45667905,0.8123 6.48681081,0.7883 6.47841892,0.7593 L6.41374662,0.535233333 L6.58620608,0.395633333 C6.60852365,0.377566667 6.59703041,0.338733333 6.56927027,0.3385 L6.35491216,0.336666667 L6.2870777,0.113733333 C6.27829054,0.0848666667 6.24104392,0.0848666667 6.23228716,0.113733333 Z" id="Shape"></path>
                        <path d="M7.42576014,3.2043 L7.35795608,3.42723333 L7.14359797,3.42906667 C7.11583784,3.4293 7.10434459,3.46813333 7.12666216,3.4862 L7.29912162,3.6258 L7.23444932,3.84986667 C7.22608784,3.87886667 7.25618919,3.90286667 7.27878041,3.88516667 L7.45318581,3.7485 L7.62759122,3.88516667 C7.65018243,3.90286667 7.68028378,3.87886667 7.6719223,3.84986667 L7.60725,3.6258 L7.77970946,3.4862 C7.80202703,3.46813333 7.79053378,3.4293 7.76277365,3.42906667 L7.54841554,3.42723333 L7.48058108,3.2043 C7.47179392,3.17543333 7.4345473,3.17543333 7.42576014,3.2043 Z" id="Shape"></path>
                        <path d="M8.60390878,3.2043 L8.53607432,3.42723333 L8.32171622,3.42906667 C8.29395608,3.4293 8.28246284,3.46813333 8.30478041,3.4862 L8.47723986,3.6258 L8.41256757,3.84986667 C8.40420608,3.87886667 8.43433784,3.90286667 8.45689865,3.88516667 L8.63130405,3.7485 L8.80570946,3.88516667 C8.82830068,3.90286667 8.85840203,3.87886667 8.85004054,3.84986667 L8.78536824,3.6258 L8.9578277,3.4862 C8.98014527,3.46813333 8.96865203,3.4293 8.94089189,3.42906667 L8.72653378,3.42723333 L8.65869932,3.2043 C8.64991216,3.17543333 8.61266554,3.17543333 8.60390878,3.2043 Z" id="Shape"></path>
                        <path d="M7.42576014,0.113733333 L7.35795608,0.336666667 L7.14359797,0.3385 C7.11583784,0.338733333 7.10434459,0.377566667 7.12666216,0.395633333 L7.29912162,0.535233333 L7.23444932,0.7593 C7.22608784,0.7883 7.25618919,0.8123 7.27878041,0.7946 L7.45318581,0.657933333 L7.62759122,0.7946 C7.65018243,0.8123 7.68028378,0.7883 7.6719223,0.7593 L7.60725,0.535233333 L7.77970946,0.395633333 C7.80202703,0.377566667 7.79053378,0.338733333 7.76277365,0.3385 L7.54841554,0.336666667 L7.48058108,0.113733333 C7.47179392,0.0848666667 7.4345473,0.0848666667 7.42576014,0.113733333 Z" id="Shape"></path>
                        <path d="M8.60390878,0.113733333 L8.53607432,0.336666667 L8.32171622,0.3385 C8.29395608,0.338733333 8.28246284,0.377566667 8.30478041,0.395633333 L8.47723986,0.535233333 L8.41256757,0.7593 C8.40420608,0.7883 8.43433784,0.8123 8.45689865,0.7946 L8.63130405,0.657933333 L8.80570946,0.7946 C8.82830068,0.8123 8.85840203,0.7883 8.85004054,0.7593 L8.78536824,0.535233333 L8.9578277,0.395633333 C8.98014527,0.377566667 8.96865203,0.338733333 8.94089189,0.3385 L8.72653378,0.336666667 L8.65869932,0.113733333 C8.64991216,0.0848666667 8.61266554,0.0848666667 8.60390878,0.113733333 Z" id="Shape"></path>
                    </g>
                </g>
            </g>
        </g>
    </g>
</svg>