<?xml version="1.0" encoding="UTF-8"?>
<svg width="18px" height="15px" viewBox="0 0 18 15" version="1.1" xmlns="http://www.w3.org/2000/svg" xmlns:xlink="http://www.w3.org/1999/xlink">
    <!-- Generator: Sketch 51.3 (57544) - http://www.bohemiancoding.com/sketch -->
    <title>comments</title>
    <desc>Created with Sketch.</desc>
    <defs></defs>
    <g id="Page-1" stroke="none" stroke-width="1" fill="none" fill-rule="evenodd" opacity="0.4">
        <g id="02" transform="translate(-920.000000, -9.000000)" fill="#FFFFFF" fill-rule="nonzero">
            <g id="comments" transform="translate(920.000000, 9.000000)">
                <path d="M10.6144805,9.61882031 C11.7018633,9.16045313 12.5600273,8.53653516 13.1889023,7.74682031 C13.8178828,6.95728125 14.1323906,6.09746484 14.1323906,5.16733594 C14.1323906,4.23717187 13.8178828,3.37739062 13.1889023,2.58771094 C12.5600273,1.79813672 11.7018633,1.17414844 10.6144805,0.715675781 C9.52709766,0.257273437 8.34440625,0.0281601562 7.06623047,0.0281601562 C5.78816016,0.0281601562 4.60546875,0.257414062 3.51801562,0.715816406 C2.43070312,1.17421875 1.57250391,1.79820703 0.94359375,2.58781641 C0.314542969,3.37739063 0,4.23713672 0,5.16733594 C0,5.96355469 0.237796875,6.71333203 0.712828125,7.41582422 C1.18785937,8.11842188 1.84032422,8.71073438 2.67001172,9.19244531 C2.60314453,9.35317969 2.53455469,9.50020313 2.46427734,9.63421875 C2.39396484,9.76802344 2.31039844,9.89673047 2.21329687,10.0206211 C2.11626563,10.1445469 2.04106641,10.2415078 1.98748828,10.3115391 C1.93394531,10.3817813 1.84696875,10.4806055 1.72648828,10.607625 C1.60597266,10.7347852 1.52898047,10.8184219 1.49561719,10.8584648 C1.49561719,10.85175 1.48215234,10.8669023 1.45543359,10.9037109 C1.42860937,10.9405195 1.4135625,10.9571484 1.4101875,10.9540195 C1.40688281,10.9503984 1.39345312,10.9671328 1.37007422,11.0039414 C1.34666016,11.0407852 1.33491797,11.0591719 1.33491797,11.0591719 L1.30978125,11.1091992 C1.29979687,11.129168 1.29304687,11.1491719 1.28974219,11.1693867 C1.28636719,11.1893203 1.28467969,11.2112227 1.28467969,11.2345664 C1.28467969,11.2579102 1.28798437,11.2795664 1.29473437,11.2997461 C1.30819922,11.3866172 1.34666016,11.4567539 1.4101875,11.510543 C1.47378516,11.5639805 1.54226953,11.5906641 1.61599219,11.5906641 L1.64612109,11.5906641 C1.98063281,11.5438359 2.26842188,11.4903281 2.50927734,11.4300352 C3.53977734,11.1623555 4.46997656,10.7340469 5.29969922,10.14525 C5.90185547,10.2523359 6.49079297,10.3058437 7.06623047,10.3058437 C8.34430078,10.3062656 9.52713281,10.0772227 10.6144805,9.61882031 Z M4.99865625,8.78087109 L4.55695312,9.09186328 C4.36957031,9.21891797 4.16225391,9.34959375 3.9346875,9.48350391 L4.28607422,8.64024609 L3.31245703,8.07816797 C2.66994141,7.70354297 2.17149609,7.261875 1.81683984,6.75330469 C1.46214844,6.24476953 1.28489063,5.716125 1.28489063,5.16737109 C1.28489063,4.48474219 1.54764844,3.84570703 2.07288281,3.25016016 C2.59804688,2.65461328 3.30570703,2.18288672 4.1956875,1.83480469 C5.08559766,1.48693359 6.04251562,1.31283984 7.06630078,1.31283984 C8.09008594,1.31283984 9.04707422,1.48693359 9.93694922,1.83480469 C10.8268594,2.18285156 11.5345195,2.65461328 12.0599648,3.25016016 C12.5851992,3.84567187 12.8477461,4.48470703 12.8477461,5.16737109 C12.8477461,5.84989453 12.5851992,6.48889453 12.0599648,7.08444141 C11.5345547,7.68016406 10.8268945,8.15178516 9.93694922,8.49969141 C9.04707422,8.84763281 8.09019141,9.02162109 7.06630078,9.02162109 C6.56455078,9.02162109 6.05264063,8.9746875 5.53064063,8.88110156 L4.99865625,8.78087109 Z" id="Shape"></path>
                <path d="M17.273918,9.98985938 C17.7491602,9.29039063 17.9866055,8.53948828 17.9866055,7.73641406 C17.9866055,6.91337109 17.735625,6.14373047 17.2339453,5.42784375 C16.7320195,4.71199219 16.0493906,4.11633984 15.1862695,3.64123828 C15.340043,4.14305859 15.417,4.65159375 15.417,5.16694922 C15.417,6.06353906 15.193125,6.91337109 14.7444961,7.71644531 C14.2961836,8.51927344 13.6537734,9.22851563 12.8173711,9.84424219 C12.0411211,10.4063203 11.1578203,10.837793 10.1673984,11.1390117 C9.17725781,11.4400195 8.14334766,11.5906992 7.06598437,11.5906992 C6.8653125,11.5906992 6.57084375,11.5774453 6.18278906,11.5507266 C7.52772656,12.4338164 9.10698047,12.8755898 10.9203047,12.8755898 C11.4958477,12.8755898 12.0846445,12.8219414 12.6869414,12.7148906 C13.5166289,13.3039336 14.4468633,13.7319961 15.477293,13.9998164 C15.7181836,14.0602148 16.0059375,14.1136172 16.3405195,14.1604102 C16.4207812,14.1672656 16.4945391,14.1436758 16.5614062,14.0902734 C16.6283086,14.036625 16.6718672,13.9632188 16.6918359,13.8696328 C16.688707,13.8294492 16.6918359,13.8074063 16.7019258,13.804207 C16.7118047,13.801043 16.7101172,13.7791758 16.6968633,13.7390977 C16.6836445,13.6988789 16.6768945,13.6788047 16.6768945,13.6788047 L16.6518633,13.6287422 C16.6449023,13.6155234 16.633582,13.5969961 16.6167422,13.5736523 C16.6000078,13.5504492 16.5866836,13.5335742 16.5765586,13.5234844 C16.5667148,13.5135 16.5517734,13.4966602 16.5315586,13.4734219 C16.5115898,13.4502188 16.498125,13.4350313 16.491375,13.4283164 C16.4579414,13.3881328 16.3810195,13.3045313 16.2606094,13.1773359 C16.1400586,13.0503164 16.0532227,12.9516328 15.9996797,12.8813906 C15.9461367,12.8111133 15.870832,12.7141523 15.7738359,12.5902266 C15.676875,12.4665469 15.5931328,12.3376992 15.5228555,12.2038242 C15.4526133,12.0700195 15.3840234,11.92275 15.3171211,11.7622617 C16.1465977,11.2800586 16.799168,10.6895742 17.273918,9.98985938 Z" id="Shape"></path>
            </g>
        </g>
    </g>
</svg>