<?xml version="1.0" encoding="UTF-8"?>
<svg width="16px" height="18px" viewBox="0 0 16 18" version="1.1" xmlns="http://www.w3.org/2000/svg" xmlns:xlink="http://www.w3.org/1999/xlink">
    <!-- Generator: Sketch 51.3 (57544) - http://www.bohemiancoding.com/sketch -->
    <title>music-player</title>
    <desc>Created with Sketch.</desc>
    <defs></defs>
    <g id="Page-1" stroke="none" stroke-width="1" fill="none" fill-rule="evenodd">
        <g id="02" transform="translate(-687.000000, -7.000000)" fill="#1EB4C7" fill-rule="nonzero">
            <g id="music-player" transform="translate(687.000000, 7.000000)">
                <path d="M15.8933333,0.0775432526 C15.8255686,0.0186851211 15.7361569,-0.00809688581 15.6458039,0.00249134948 L5.92031373,1.2515917 C5.76407843,1.27183391 5.64705882,1.40356401 5.64705882,1.56020761 L5.64705882,3.43401384 L5.64705882,4.74570934 L5.64705882,12.6507612 C5.07419608,11.9671972 4.16407843,11.5224913 3.1372549,11.5224913 C1.40737255,11.5224913 0,12.7796886 0,14.3252595 C0,15.8708304 1.40737255,17.1280277 3.1372549,17.1280277 C4.86713725,17.1280277 6.2745098,15.8708304 6.2745098,14.3252595 C6.2745098,14.2530104 6.26854902,14.1820069 6.26227451,14.1113149 C6.26635294,14.0910727 6.2745098,14.072699 6.2745098,14.0515225 L6.2745098,5.01944637 L15.372549,3.85069204 L15.372549,9.53626298 C14.7996863,8.85301038 13.8895686,8.4083045 12.8627451,8.4083045 C11.1328627,8.4083045 9.7254902,9.66550173 9.7254902,11.2110727 C9.7254902,12.7566436 11.1328627,14.0138408 12.8627451,14.0138408 C14.5769412,14.0138408 15.9727059,12.7787543 15.9978039,11.2524913 C15.9978039,11.2484429 16,11.2450173 16,11.2409689 L16,3.49629758 L16,2.18491349 L16,0.311418685 C16,0.221730104 15.961098,0.136401384 15.8933333,0.0775432526 Z" id="Shape"></path>
            </g>
        </g>
    </g>
</svg>