<?xml version="1.0" encoding="UTF-8"?>
<svg width="26px" height="22px" viewBox="0 0 26 22" version="1.1" xmlns="http://www.w3.org/2000/svg" xmlns:xlink="http://www.w3.org/1999/xlink">
    <!-- Generator: Sketch 51.3 (57544) - http://www.bohemiancoding.com/sketch -->
    <title>twitter (1)</title>
    <desc>Created with Sketch.</desc>
    <defs></defs>
    <g id="Page-1" stroke="none" stroke-width="1" fill="none" fill-rule="evenodd" opacity="1">
        <g id="02" transform="translate(-1058.000000, -4917.000000)" fill="#FFFFFF" fill-rule="nonzero">
            <g id="twitter-(1)" transform="translate(1058.000000, 4917.000000)">
                <path d="M25.9494191,2.54480702 C24.9945653,2.96820663 23.968655,3.25440936 22.8917583,3.38309162 C23.9908538,2.72422222 24.8350175,1.68092788 25.2325692,0.437692008 C24.20377,1.04785575 23.0645341,1.4908694 21.851809,1.72958285 C20.8807368,0.694904483 19.4970604,0.0484522417 17.9657973,0.0484522417 C15.0256686,0.0484522417 12.6420312,2.4319883 12.6420312,5.37206628 C12.6420312,5.78933333 12.689115,6.19565302 12.7798869,6.58534893 C8.35532554,6.36325926 4.43246784,4.24382846 1.80672125,1.02281871 C1.34845224,1.80910331 1.08586745,2.72361404 1.08586745,3.69929825 C1.08586745,5.54636257 2.0257193,7.17589864 3.45424951,8.13060039 C2.58155166,8.10292788 1.76065107,7.86345419 1.04293957,7.46468616 C1.04243275,7.48688499 1.04243275,7.50918519 1.04243275,7.53163743 C1.04243275,10.1110604 2.87758674,12.2627251 5.31297076,12.7519103 C4.86630799,12.8734971 4.39592593,12.9387758 3.91038986,12.9387758 C3.56732164,12.9387758 3.23383236,12.9053255 2.90870565,12.8430877 C3.58622612,14.9580585 5.5522924,16.4974815 7.88195322,16.540308 C6.05992593,17.9683314 3.76437427,18.8193372 1.27004678,18.8193372 C0.840311891,18.8193372 0.416557505,18.7941988 5.06822612e-05,18.7447836 C2.35606628,20.2554698 5.15448733,21.1368343 8.16095906,21.1368343 C17.9533294,21.1368343 23.3082651,13.0245302 23.3082651,5.98932554 C23.3082651,5.75851852 23.3029942,5.52892788 23.292807,5.30055361 C24.3331111,4.55 25.2357115,3.61237817 25.9494191,2.54480702 Z" id="Shape"></path>
            </g>
        </g>
    </g>
</svg>