<?xml version="1.0" encoding="UTF-8"?>
<svg width="15px" height="13px" viewBox="0 0 15 13" version="1.1" xmlns="http://www.w3.org/2000/svg" xmlns:xlink="http://www.w3.org/1999/xlink">
    <!-- Generator: Sketch 51.3 (57544) - http://www.bohemiancoding.com/sketch -->
    <title>twitter-logo-silhouette</title>
    <desc>Created with Sketch.</desc>
    <defs></defs>
    <g id="Page-1" stroke="none" stroke-width="1" fill="none" fill-rule="evenodd">
        <g id="03" transform="translate(-749.000000, -1883.000000)" fill="#010002" fill-rule="nonzero">
            <g id="twitter-logo-silhouette" transform="translate(749.000000, 1883.000000)">
                <path d="M15,1.45240196 C14.4479167,1.69703431 13.8555392,1.86294118 13.2331373,1.9370098 C13.868652,1.55644608 14.3551225,0.952818627 14.5856863,0.235759804 C13.9895588,0.588186275 13.3315441,0.844093137 12.6304167,0.982818627 C12.0689706,0.383872549 11.2703676,0.0108088235 10.3845833,0.0108088235 C8.68522059,0.0108088235 7.30735294,1.38867647 7.30735294,3.08710784 C7.30735294,3.3279902 7.33453431,3.5632598 7.38703431,3.78823529 C4.83002451,3.65980392 2.56264706,2.43473039 1.04512255,0.573186275 C0.779852941,1.02686275 0.628946078,1.5554902 0.628946078,2.11977941 C0.628946078,3.18740196 1.17259804,4.12941176 1.99745098,4.68053922 C1.49316176,4.66367647 1.01887255,4.52495098 0.603651961,4.29436275 L0.603651961,4.33279412 C0.603651961,5.82313725 1.66470588,7.06696078 3.07161765,7.35004902 C2.81384804,7.41941176 2.54203431,7.45784314 2.26083333,7.45784314 C2.06213235,7.45784314 1.86997549,7.43816176 1.68156863,7.40066176 C2.07335784,8.62387255 3.20941176,9.51338235 4.55541667,9.53776961 C3.50279412,10.3626225 2.17553922,10.8528431 0.733946078,10.8528431 C0.485563725,10.8528431 0.240906863,10.8378431 2.45098039e-05,10.8106618 C1.36196078,11.6851961 2.97884804,12.195098 4.71664216,12.195098 C10.3771324,12.195098 13.47125,7.50659314 13.47125,3.4404902 L13.4609314,3.04213235 C14.0654902,2.61093137 14.5885049,2.06916667 15,1.45240196 Z" id="Shape"></path>
            </g>
        </g>
    </g>
</svg>