<svg xmlns="http://www.w3.org/2000/svg" width="25.806" height="25.806" viewBox="0 0 25.806 25.806">
  <g id="Group_895" data-name="Group 895" transform="translate(0)">
    <g id="Rectangle_760" data-name="Rectangle 760" transform="translate(0)" fill="#fff" stroke="#9e9e9e" stroke-width="1">
      <rect width="25.806" height="25.806" rx="3" stroke="none"/>
      <rect x="0.5" y="0.5" width="24.806" height="24.806" rx="2.5" fill="none"/>
    </g>
    <path id="twitter" d="M14.047,1.536c-.884.041-.864.037-.964.046L13.606.087s-1.634.6-2.048.708A3.278,3.278,0,0,0,7.7.485,2.673,2.673,0,0,0,6.414,3.234,7.13,7.13,0,0,1,1.794.633L1.407.168,1.117.7A3.214,3.214,0,0,0,.775,2.863a3.108,3.108,0,0,0,.3.845L.744,3.579.7,4.134a2.964,2.964,0,0,0,.5,1.762,3.133,3.133,0,0,0,.392.483l-.172-.026.21.637A3.094,3.094,0,0,0,3.227,8.832c-.742.315-1.341.516-2.326.84l-.9.3.832.455a8.736,8.736,0,0,0,2.547.927c2.463.386,5.236.072,7.1-1.61a6.685,6.685,0,0,0,1.981-5.527,1.31,1.31,0,0,1,.245-.853c.349-.465,1.338-1.822,1.34-1.825Zm-2,1.332a2.133,2.133,0,0,0-.408,1.388,5.818,5.818,0,0,1-1.71,4.874c-1.452,1.308-3.794,1.821-6.425,1.408a6.371,6.371,0,0,1-1.377-.409A21.828,21.828,0,0,0,4.623,9.1l1.438-.68-1.587-.1A2.245,2.245,0,0,1,2.691,7.306a2.847,2.847,0,0,0,.6-.1l1.514-.422L3.282,6.41a2.274,2.274,0,0,1-1.389-.966,2.328,2.328,0,0,1-.3-.664,3.811,3.811,0,0,0,.619.1l1.413.14L2.506,4.145a2.356,2.356,0,0,1-.893-2.483,8.189,8.189,0,0,0,5.77,2.484,4.873,4.873,0,0,0-.084-.7,1.89,1.89,0,0,1,.831-2.262,2.458,2.458,0,0,1,2.9.24.736.736,0,0,0,.676.181,5.688,5.688,0,0,0,.557-.169l-.355,1.014h.453l-.311.417Zm0,0" transform="translate(5.879 7.511)" fill="#9e9e9e"/>
  </g>
</svg>
