<svg xmlns="http://www.w3.org/2000/svg" width="46" height="52.57" viewBox="0 0 46 52.57">
  <g id="Group_405" data-name="Group 405" transform="translate(-1104 -658)">
    <path id="Path_268" data-name="Path 268" d="M99.286,0A3.3,3.3,0,0,0,96,3.286v46a3.3,3.3,0,0,0,3.286,3.286h32.857a3.3,3.3,0,0,0,3.286-3.286V13.143L122.286,0Z" transform="translate(1014.571 658)" fill="#e2e5e7"/>
    <path id="Path_269" data-name="Path 269" d="M355.286,13.143h9.857L352,0V9.857A3.3,3.3,0,0,0,355.286,13.143Z" transform="translate(784.857 658)" fill="#b0b7bd"/>
    <path id="Path_270" data-name="Path 270" d="M393.857,137.857,384,128h9.857Z" transform="translate(756.143 543.143)" fill="#cad1d8"/>
    <path id="Path_271" data-name="Path 271" d="M71.429,258.071a1.648,1.648,0,0,1-1.643,1.643H33.643A1.648,1.648,0,0,1,32,258.071V241.643A1.648,1.648,0,0,1,33.643,240H69.786a1.648,1.648,0,0,1,1.643,1.643Z" transform="translate(1072 442.642)" fill="#e8c229"/>
    <path id="Path_284" data-name="Path 284" d="M2.58-1.68H6V0H.36V-1.44L3.6-5.88H.48V-7.56H5.82v1.44ZM9.3,0H7.56V-7.56H9.3Zm4.86-7.56a2.867,2.867,0,0,1,1.08.2,2.567,2.567,0,0,1,.852.552,2.6,2.6,0,0,1,.564.822,2.5,2.5,0,0,1,.2,1.008,2.5,2.5,0,0,1-.2,1.008,2.6,2.6,0,0,1-.564.822,2.567,2.567,0,0,1-.852.552,2.867,2.867,0,0,1-1.08.2h-1.2V0H11.22V-7.56Zm0,3.48a.94.94,0,0,0,.684-.27.855.855,0,0,0,.276-.63.855.855,0,0,0-.276-.63.94.94,0,0,0-.684-.27h-1.2v1.8Z" transform="translate(1116 697)" fill="#fff"/>
  </g>
</svg>
