<?xml version="1.0" encoding="UTF-8"?>
<svg width="57px" height="57px" viewBox="0 0 57 57" version="1.1" xmlns="http://www.w3.org/2000/svg" xmlns:xlink="http://www.w3.org/1999/xlink">
    <!-- Generator: Sketch 51.3 (57544) - http://www.bohemiancoding.com/sketch -->
    <title>@2xproject</title>
    <desc>Created with Sketch.</desc>
    <defs></defs>
    <g id="Page-1" stroke="none" stroke-width="1" fill="none" fill-rule="evenodd">
        <g id="index-copy" transform="translate(-947.000000, -862.000000)" fill="#0F2C74" fill-rule="nonzero" stroke="#FFFFFF" stroke-width="2">
            <g id="Group-4-Copy-2" transform="translate(911.000000, 826.000000)">
                <g id="project" transform="translate(37.000000, 37.000000)">
                    <path d="M17.5745856,13 L33.4254144,13 C34.2951269,13 35,12.3285156 35,11.5 C35,10.6714844 34.2951269,10 33.4254144,10 L17.5745856,10 C16.7048731,10 16,10.6714844 16,11.5 C16,12.3285156 16.7048731,13 17.5745856,13 Z" id="Shape"></path>
                    <path d="M46.7498689,4.63844305 L42.1112224,9.27688599 L42.1112224,1.61132812 C42.1112224,0.721321133 41.3898696,0 40.4998236,0 L11.2797917,0 C10.8534424,0 10.4405215,0.171623203 10.1400628,0.47206876 L0.47208947,10.1396179 C0.166595111,10.4450989 0,10.8605194 0,11.2792969 L0,46.9433594 C0,51.3858414 3.61431716,55 8.05699408,55 L40.4998236,55 C44.9425005,55 48.5568177,51.3858414 48.5568177,46.9433594 L48.5568177,43.7207031 C48.5568177,42.8306961 47.8354649,42.109375 46.9454189,42.109375 L42.1112224,42.109375 L42.1112224,22.9496765 L53.586564,11.4748382 C55.4711453,9.5899201 55.4711453,6.52336115 53.586564,4.63844305 C51.6973668,2.74932861 48.6394858,2.74932861 46.7498689,4.63844305 Z M9.6683929,5.50159457 L9.6683929,9.66796875 L5.50183593,9.66796875 L9.6683929,5.50159457 Z M12.8911905,43.7207031 L12.8911905,46.9433594 C12.8911905,49.6087646 10.7225163,51.7773438 8.05699408,51.7773438 C5.39147187,51.7773438 3.22279763,49.6087646 3.22279763,46.9433594 C3.22279763,46.3521195 3.22279763,14.1901779 3.22279763,12.890625 L11.2797917,12.890625 C12.1698378,12.890625 12.8911905,12.1693039 12.8911905,11.2792969 L12.8911905,3.22265625 L38.8884248,3.22265625 L38.8884248,12.4995422 L35.2745272,16.1132812 L8.05699408,16.1132812 C7.16694804,16.1132812 6.44559527,16.8346024 6.44559527,17.7246094 C6.44559527,18.6146164 7.16694804,19.3359375 8.05699408,19.3359375 L32.0517296,19.3359375 L28.828932,22.5585938 L8.05699408,22.5585938 C7.16694804,22.5585938 6.44559527,23.2799149 6.44559527,24.1699219 C6.44559527,25.0599289 7.16694804,25.78125 8.05699408,25.78125 L25.6061343,25.78125 L23.8801751,27.5071335 C23.7035088,27.6842118 23.5700648,27.8994751 23.4911734,28.1369782 L23.2020448,29.0039063 L8.05699408,29.0039063 C7.16694804,29.0039063 6.44559527,29.7252274 6.44559527,30.6152344 C6.44559527,31.5052414 7.16694804,32.2265625 8.05699408,32.2265625 L22.1277789,32.2265625 L21.3325704,34.6125031 L20.4953983,35.4492188 L8.05699408,35.4492188 C7.16694804,35.4492188 6.44559527,36.1705399 6.44559527,37.0605469 C6.44559527,37.9505539 7.16694804,38.671875 8.05699408,38.671875 L20.9393723,38.671875 C21.4576217,38.671875 21.8793549,38.6231995 22.3023471,38.1998062 L23.611189,36.8910217 L30.086998,34.7325134 C30.3240919,34.6536255 30.5397843,34.5201873 30.7168703,34.3435287 L38.8884248,26.1723328 L38.8884248,42.109375 L14.5025893,42.109375 C13.6125433,42.109375 12.8911905,42.8306961 12.8911905,43.7207031 Z M30.3593412,30.1431656 L28.7068181,31.7956161 L25.2884706,32.9352951 L26.4281995,29.5170975 L28.0803029,27.8646469 L30.3593412,30.1431656 Z M45.33402,45.3320312 L45.33402,46.9433594 C45.33402,49.6087646 43.1653458,51.7773438 40.4998236,51.7773438 L14.4988127,51.7773438 C15.5122315,50.4299545 16.1139882,48.7552643 16.1139882,46.9433594 L16.1139882,45.3320312 L45.33402,45.3320312 Z M47.8887586,12.6145173 L32.6383794,27.8646469 L30.3593412,25.5857087 L45.6097203,10.3359985 L47.8887586,12.6145173 Z M51.3075258,9.19589999 L50.1673773,10.3359985 L47.8887586,8.0574798 L49.0284875,6.91738126 C49.657101,6.28921509 50.679332,6.28921509 51.3075258,6.91738126 C51.9357196,7.54554754 51.9357196,8.56773371 51.3075258,9.19589999 Z" id="Shape"></path>
                </g>
            </g>
        </g>
    </g>
</svg>