<?xml version="1.0" encoding="UTF-8"?>
<svg width="99px" height="38px" viewBox="0 0 99 38" version="1.1" xmlns="http://www.w3.org/2000/svg" xmlns:xlink="http://www.w3.org/1999/xlink">
    <!-- Generator: Sketch 51.3 (57544) - http://www.bohemiancoding.com/sketch -->
    <title>@2xFill 1</title>
    <desc>Created with Sketch.</desc>
    <defs></defs>
    <g id="Page-1" stroke="none" stroke-width="1" fill="none" fill-rule="evenodd">
        <g id="index-copy" transform="translate(-131.000000, -75.000000)" fill="#FFFFFF">
            <path d="M146.339093,76.8424242 C149.544276,76.8424242 152.062635,77.3030303 154.352052,78.6848485 C156.412527,79.8363636 158.24406,81.6787879 159.617711,83.9818182 C160.991361,86.2848485 161.678186,89.2787879 161.678186,92.9636364 C161.678186,97.3393939 160.304536,101.024242 157.786177,104.018182 C155.038877,107.012121 151.146868,108.624242 146.110151,108.624242 C141.531317,108.624242 137.639309,107.012121 135.12095,104.018182 C132.37365,101.254545 131,97.3393939 131,92.7333333 C131,87.8969697 132.37365,84.2121212 135.12095,81.2181818 C137.868251,78.2242424 141.760259,76.8424242 146.339093,76.8424242 Z M148.857451,104.248485 C148.857451,96.6484848 148.857451,89.0484848 148.857451,81.2181818 C148.857451,79.6060606 147.941685,78.9151515 146.339093,78.9151515 C145.652268,78.9151515 144.965443,79.1454545 144.507559,79.6060606 C144.049676,79.8363636 143.820734,80.2969697 143.820734,80.9878788 C143.820734,88.5878788 143.820734,96.4181818 143.820734,104.018182 C143.820734,104.939394 144.049676,105.4 144.507559,105.860606 C144.965443,106.321212 145.652268,106.551515 146.339093,106.551515 C147.025918,106.551515 147.712743,106.321212 148.170626,105.860606 C148.62851,105.4 148.857451,104.939394 148.857451,104.248485 Z M165.209503,79.6060606 C164.522678,79.6060606 163.606911,79.6060606 162.920086,79.6060606 C164.064795,78.4545455 165.209503,77.3030303 166.354212,76.1515152 C167.041037,75.6909091 167.49892,75.230303 167.956803,75.230303 C168.414687,75 169.788337,75 172.077754,75 C173.909287,75 175.053996,75 175.282937,75 C175.740821,75.230303 175.969762,75.230303 175.969762,75.4606061 C175.969762,75.6909091 175.740821,75.9212121 175.053996,76.1515152 C171.848812,77.3030303 168.643629,78.4545455 165.209503,79.6060606 Z M200.237581,90.6606061 C203.900648,91.3515152 206.647948,92.2727273 208.021598,93.6545455 C209.395248,94.8060606 210.082073,96.4181818 210.082073,98.4909091 C210.082073,101.715152 208.937365,104.248485 206.190065,105.860606 C203.671706,107.472727 199.550756,108.163636 194.056156,108.163636 C189.019438,108.163636 183.982721,108.163636 179.174946,108.163636 C178.488121,108.163636 178.259179,107.933333 178.259179,107.70303 C178.259179,107.242424 178.259179,106.781818 178.259179,106.551515 C178.259179,106.090909 178.488121,105.860606 178.946004,105.630303 C180.090713,105.4 180.777538,104.939394 180.777538,104.248485 C180.777538,96.4181818 180.777538,88.8181818 180.777538,81.2181818 C180.777538,80.7575758 180.548596,80.5272727 180.548596,80.5272727 C180.319654,80.2969697 179.861771,80.0666667 178.946004,79.8363636 C178.717063,79.8363636 178.259179,79.6060606 178.259179,79.6060606 C178.259179,79.3757576 178.259179,79.1454545 178.259179,78.4545455 C178.259179,77.9939394 178.259179,77.7636364 178.488121,77.5333333 C178.717063,77.3030303 179.174946,77.3030303 179.632829,77.3030303 C185.356371,77.3030303 190.850972,77.3030303 196.574514,77.3030303 C200.466523,77.3030303 203.671706,77.9939394 205.961123,79.1454545 C208.021598,80.5272727 209.166307,82.1393939 209.166307,84.2121212 C209.166307,85.8242424 208.25054,87.2060606 206.647948,88.3575758 C204.816415,89.5090909 202.75594,90.2 200.237581,90.6606061 Z M193.827214,79.3757576 C193.36933,79.3757576 192.682505,79.3757576 192.224622,79.3757576 C192.224622,82.830303 192.224622,86.0545455 192.224622,89.5090909 C192.682505,89.5090909 193.36933,89.5090909 193.827214,89.5090909 C194.742981,89.5090909 195.658747,89.2787879 196.345572,89.0484848 C196.803456,88.5878788 197.261339,87.8969697 197.261339,87.2060606 C197.261339,86.2848485 197.490281,85.1333333 197.490281,83.7515152 C197.490281,81.9090909 197.032397,80.7575758 196.574514,80.2969697 C195.887689,79.6060606 194.971922,79.3757576 193.827214,79.3757576 Z M193.827214,91.5818182 C193.36933,91.5818182 192.682505,91.5818182 192.224622,91.5818182 C192.224622,96.4181818 192.224622,101.254545 192.224622,106.090909 C194.056156,106.090909 195.429806,105.860606 195.887689,105.4 C196.574514,105.169697 197.032397,104.478788 197.032397,103.557576 C197.261339,102.636364 197.261339,101.024242 197.261339,98.7212121 C197.261339,98.2606061 197.261339,97.3393939 197.261339,95.7272727 C197.261339,94.1151515 197.032397,93.1939394 196.803456,92.7333333 C196.574514,92.5030303 196.345572,92.2727273 195.887689,92.0424242 C195.429806,91.8121212 194.742981,91.5818182 193.827214,91.5818182 Z M213.974082,77.3030303 C218.781857,77.3030303 223.818575,77.3030303 228.62635,77.3030303 C229.084233,77.3030303 229.542117,77.3030303 229.771058,77.5333333 C230,77.5333333 230,77.7636364 230,78.2242424 C230,78.9151515 230,79.3757576 229.771058,79.3757576 C229.542117,79.6060606 229.313175,79.8363636 228.62635,79.8363636 C228.168467,80.0666667 227.710583,80.0666667 227.710583,80.2969697 C227.481641,80.2969697 227.481641,80.7575758 227.481641,81.2181818 C227.481641,88.3575758 227.481641,95.2666667 227.481641,102.406061 C227.481641,105.169697 226.107991,107.70303 223.589633,109.775758 C221.071274,112.078788 217.179266,113 211.913607,113 C210.768898,113 210.082073,113 210.082073,112.769697 C209.853132,112.769697 209.62419,112.539394 209.62419,112.309091 C209.62419,112.078788 209.62419,111.848485 209.62419,111.618182 C209.62419,111.157576 209.62419,110.927273 209.853132,110.927273 C209.853132,110.927273 210.311015,110.69697 210.768898,110.69697 C214.203024,110.466667 216.034557,108.854545 216.034557,105.630303 C216.034557,97.8 216.034557,89.969697 216.034557,82.1393939 C216.034557,81.2181818 215.805616,80.5272727 215.576674,80.2969697 C215.347732,80.0666667 214.660907,79.8363636 213.974082,79.8363636 C213.287257,79.6060606 212.829374,79.3757576 212.829374,78.9151515 C212.829374,77.9939394 212.829374,77.5333333 213.058315,77.5333333 C213.058315,77.3030303 213.516199,77.3030303 213.974082,77.3030303 Z" id="Fill-1"></path>
        </g>
    </g>
</svg>