<?xml version="1.0" encoding="UTF-8"?>
<svg width="62px" height="62px" viewBox="0 0 62 62" version="1.1" xmlns="http://www.w3.org/2000/svg" xmlns:xlink="http://www.w3.org/1999/xlink">
    <!-- Generator: Sketch 51.3 (57544) - http://www.bohemiancoding.com/sketch -->
    <title>@2xcommunity</title>
    <desc>Created with Sketch.</desc>
    <defs></defs>
    <g id="Page-1" stroke="none" stroke-width="1" fill="none" fill-rule="evenodd">
        <g id="index-copy" transform="translate(-551.000000, -863.000000)" fill="#FFFFFF" fill-rule="nonzero" stroke="#0E2B74">
            <g id="Group-4-Copy" transform="translate(520.000000, 826.000000)">
                <g id="community" transform="translate(32.000000, 38.000000)">
                    <path d="M30.5,0 C24.1486937,0 19,5.14869375 19,11.5 C19.0073313,17.8482875 24.1517125,22.9926687 30.5,23 C36.8513062,23 42,17.8513062 42,11.5 C42,5.14869375 36.8513062,0 30.5,0 Z M33.95,20.02265 C31.7386937,20.9258313 29.2613063,20.9258313 27.05,20.02265 L27.05,16.2173 C27.05115,14.8830125 28.1324375,13.8014375 29.4668687,13.8 L31.533275,13.8 C32.8675625,13.8014375 33.94885,14.8830125 33.95,16.2173 L33.95,20.02265 Z M28.2,9.2 C28.2,7.92968125 29.2296813,6.9 30.5,6.9 C31.7703188,6.9 32.8,7.92968125 32.8,9.2 C32.8,10.4703188 31.7703188,11.5 30.5,11.5 C29.2304,11.4985625 28.2014375,10.4696 28.2,9.2 Z M36.25,18.67025 L36.25,16.2173 C36.2454,14.5682 35.3775813,13.0420063 33.9627938,12.1948875 C35.6351813,10.2824375 35.4405438,7.37624375 33.5280938,5.70385625 C31.6156438,4.03146875 28.70945,4.22610625 27.0370625,6.13855625 C25.5206438,7.8726125 25.5206438,10.4608313 27.0370625,12.1948875 C25.622275,13.0420063 24.7544563,14.5683438 24.7498563,16.2173 L24.7498563,18.67025 C20.7855187,15.4988375 20.1428125,9.71419375 23.314225,5.75 C25.0605,3.5673 27.7047813,2.2977 30.5,2.3 C35.5768188,2.2956875 39.6956875,6.4078 39.7,11.484475 C39.7023,14.2796938 38.4327,16.9241188 36.25,18.67025 Z" id="Shape"></path>
                    <path d="M30.5,37 C24.1486937,37 19,42.1486938 19,48.5 C19,54.8513063 24.1486937,60 30.5,60 C36.8513062,60 42,54.8513063 42,48.5 C41.9926687,42.1517125 36.8482875,37.0073313 30.5,37 Z M33.95,57.02265 C31.7386937,57.9258313 29.2613063,57.9258313 27.05,57.02265 L27.05,53.2173 C27.05115,51.8830125 28.1324375,50.8014375 29.4668687,50.8 L31.533275,50.8 C32.8677062,50.8014375 33.94885,51.8830125 33.95,53.2173 L33.95,57.02265 Z M28.2,46.2 C28.2,44.9296813 29.2296813,43.9 30.5,43.9 C31.7703188,43.9 32.8,44.9296813 32.8,46.2 C32.8,47.4703187 31.7703188,48.5 30.5,48.5 C29.2304,48.4985625 28.2014375,47.4696 28.2,46.2 Z M37.68175,54.2385 C37.2586938,54.766925 36.778425,55.2471938 36.25,55.67025 L36.25,53.2173 C36.2454,51.5682 35.3775813,50.0420063 33.9627938,49.1948875 C35.6351813,47.2824375 35.4405438,44.3762437 33.5280938,42.7038563 C31.6156438,41.0314687 28.70945,41.2261063 27.0370625,43.1385563 C25.5206437,44.8726125 25.5206437,47.4608312 27.0370625,49.1948875 C25.622275,50.0420062 24.7544563,51.5683438 24.7498563,53.2173 L24.7498563,55.67025 C20.7835062,52.4946687 20.142525,46.70485 23.3181062,42.7385 C26.4936875,38.77215 32.2835063,38.1311687 36.2498563,41.30675 C40.21635,44.482475 40.8573313,50.27215 37.68175,54.2385 Z" id="Shape"></path>
                    <path d="M48.5,19 C42.1517125,19.0073313 37.0073313,24.1517125 37,30.5 C37,36.8513062 42.1486938,42 48.5,42 C54.8513063,42 60,36.8513062 60,30.5 C60,24.1486937 54.8513063,19 48.5,19 Z M51.95,39.02265 C49.7386938,39.9258312 47.2613062,39.9258312 45.05,39.02265 L45.05,35.2173 C45.05115,33.8830125 46.1324375,32.8014375 47.4668688,32.8 L49.533275,32.8 C50.8677062,32.8014375 51.94885,33.8830125 51.9501437,35.2173 L51.9501437,39.02265 L51.95,39.02265 Z M46.2,28.2 C46.2,26.9296813 47.2296813,25.9 48.5,25.9 C49.7703188,25.9 50.8,26.9296813 50.8,28.2 C50.8,29.4703188 49.7703188,30.5 48.5,30.5 C47.2304,30.4985625 46.2014375,29.4696 46.2,28.2 Z M54.25,37.67025 L54.25,35.2173 C54.2454,33.5682 53.3775813,32.0420063 51.9627938,31.1948875 C53.6351813,29.2824375 53.4405438,26.3762438 51.5280938,24.7038562 C49.6156438,23.0314687 46.70945,23.2261062 45.0370625,25.1385562 C43.5206437,26.8726125 43.5206437,29.4608312 45.0370625,31.1948875 C43.622275,32.0420063 42.7544562,33.5683437 42.7498562,35.2173 L42.7498562,37.67025 C38.7878187,34.4925125 38.1518687,28.7045625 41.3296062,24.742525 C44.5073437,20.7804875 50.2952937,20.1445375 54.2573313,23.322275 C56.4347125,25.06855 57.70115,27.70895 57.7,30.5 C57.6991375,33.2901875 56.4296813,35.9284312 54.25,37.67025 Z" id="Shape"></path>
                    <path d="M11.5,19 C5.14869375,19 0,24.1486937 0,30.5 C0,36.8513062 5.14869375,42 11.5,42 C17.8482875,41.9926687 22.9926687,36.8482875 23,30.5 C23,24.1486937 17.8513062,19 11.5,19 Z M14.95,39.02265 C12.7386938,39.9258312 10.2613063,39.9258312 8.05,39.02265 L8.05,35.2173 C8.05115,33.8830125 9.1324375,32.8014375 10.4668688,32.8 L12.533275,32.8 C13.8677063,32.8014375 14.94885,33.8830125 14.9501438,35.2173 L14.9501438,39.02265 L14.95,39.02265 Z M9.2,28.2 C9.2,26.9296813 10.2296813,25.9 11.5,25.9 C12.7703188,25.9 13.8,26.9296813 13.8,28.2 C13.8,29.4703188 12.7703188,30.5 11.5,30.5 C10.2304,30.4985625 9.2014375,29.4696 9.2,28.2 Z M18.68175,36.2385 C18.2586937,36.766925 17.778425,37.2471938 17.25,37.67025 L17.25,35.2173 C17.2454,33.5682 16.3775812,32.0420063 14.9627937,31.1948875 C16.6351812,29.2824375 16.4405437,26.3762438 14.5280937,24.7038563 C12.6156437,23.0314687 9.70945,23.2261063 8.0370625,25.1385563 C6.52064375,26.8726125 6.52064375,29.4608313 8.0370625,31.1948875 C6.622275,32.0420063 5.75445625,33.5683438 5.74985625,35.2173 L5.74985625,37.67025 C1.78350625,34.4946688 1.142525,28.70485 4.31810625,24.7385 C7.4936875,20.77215 13.2835062,20.1311688 17.2498562,23.30675 C21.21635,26.482475 21.8573312,32.27215 18.68175,36.2385 Z" id="Shape"></path>
                </g>
            </g>
        </g>
    </g>
</svg>