<?xml version="1.0" encoding="UTF-8"?>
<svg width="70px" height="57px" viewBox="0 0 70 57" version="1.1" xmlns="http://www.w3.org/2000/svg" xmlns:xlink="http://www.w3.org/1999/xlink">
    <!-- Generator: Sketch 51.3 (57544) - http://www.bohemiancoding.com/sketch -->
    <title>@2xnetwork (1)</title>
    <desc>Created with Sketch.</desc>
    <defs>
        <linearGradient x1="-169.43784%" y1="-311.421131%" x2="197.809103%" y2="377.008929%" id="linearGradient-1">
            <stop stop-color="#183784" offset="0%"></stop>
            <stop stop-color="#173683" offset="100%"></stop>
        </linearGradient>
    </defs>
    <g id="Page-1" stroke="none" stroke-width="1" fill="none" fill-rule="evenodd">
        <g id="index-copy" transform="translate(-166.000000, -862.000000)" fill="url(#linearGradient-1)" fill-rule="nonzero" stroke="#FFFFFF">
            <g id="Group-4" transform="translate(130.000000, 826.000000)">
                <g id="network-(1)" transform="translate(37.000000, 37.000000)">
                    <path d="M34.5,14 C26.7894737,14 22,17.724605 22,23.758465 C22,24.4441027 22.5891447,25 23.3157895,25 L45.6842105,25 C46.4108553,25 47,24.4441027 47,23.758465 C47,17.7370203 42.2105263,14 34.5,14 Z M24.7236842,22.51693 C25.5921053,16.9424379 32.3421053,16.48307 34.5,16.48307 C36.6578947,16.48307 43.4078947,16.9424379 44.2763158,22.51693 L24.7236842,22.51693 Z" id="Shape"></path>
                    <path d="M34.5,0 C30.9101184,0 28,2.91011842 28,6.5 C28.0075263,10.0868026 30.9131974,12.9924737 34.5,13 C38.0898816,13 41,10.0898816 41,6.5 C41,2.91011842 38.0898816,0 34.5,0 Z M34.5,10.2631579 C32.4217105,10.2631579 30.7368421,8.57828947 30.7368421,6.5 C30.7368421,4.42171053 32.4217105,2.73684211 34.5,2.73684211 C36.5782895,2.73684211 38.2631579,4.42171053 38.2631579,6.5 C38.2631579,8.57828947 36.5782895,10.2631579 34.5,10.2631579 Z" id="Shape"></path>
                    <path d="M12.5,44 C4.78947368,44 0,47.724605 0,53.758465 C0,54.4441027 0.589144737,55 1.31578947,55 L23.6842105,55 C24.4108553,55 25,54.4441027 25,53.758465 C25,47.7370203 20.2105263,44 12.5,44 Z M2.72368421,52.51693 C3.59210526,46.9424379 10.3289474,46.48307 12.5,46.48307 C14.6710526,46.48307 21.4078947,46.9424379 22.2763158,52.51693 L2.72368421,52.51693 Z" id="Shape"></path>
                    <path d="M12.5,30 C8.91011842,30 6,32.9101184 6,36.5 C6.00752632,40.0868026 8.91319737,42.9924737 12.5,43 C16.0898816,43 19,40.0898816 19,36.5 C19,32.9101184 16.0898816,30 12.5,30 Z M12.5,40.2631579 C10.4217105,40.2631579 8.73684211,38.5782895 8.73684211,36.5 C8.73684211,34.4217105 10.4217105,32.7368421 12.5,32.7368421 C14.5782895,32.7368421 16.2631579,34.4217105 16.2631579,36.5 C16.2631579,38.5782895 14.5782895,40.2631579 12.5,40.2631579 Z" id="Shape"></path>
                    <path d="M55.5,44 C47.7894737,44 43,47.724605 43,53.758465 C43,54.4441027 43.5891447,55 44.3157895,55 L66.6842105,55 C67.4108553,55 68,54.4441027 68,53.758465 C68,47.7370203 63.2105263,44 55.5,44 Z M45.7236842,52.51693 C46.5921053,46.9424379 53.3289474,46.48307 55.5,46.48307 C57.6710526,46.48307 64.4078947,46.9424379 65.2763158,52.51693 L45.7236842,52.51693 Z" id="Shape"></path>
                    <path d="M56.5,30 C52.9101184,30 50,32.9101184 50,36.5 C50.0075263,40.0868026 52.9131974,42.9924737 56.5,43 C60.0898816,43 63,40.0898816 63,36.5 C63,32.9101184 60.0898816,30 56.5,30 Z M56.5,40.2631579 C54.4217105,40.2631579 52.7368421,38.5782895 52.7368421,36.5 C52.7368421,34.4217105 54.4217105,32.7368421 56.5,32.7368421 C58.5782895,32.7368421 60.2631579,34.4217105 60.2631579,36.5 C60.2631579,38.5782895 58.5782895,40.2631579 56.5,40.2631579 Z" id="Shape"></path>
                    <path d="M40.6684588,41.6085812 L34.91916,35.7113805 L34.91916,27.4074465 C34.91916,26.6301841 34.3018343,26 33.5404313,26 C32.7790284,26 32.1617026,26.6301841 32.1617026,27.4074465 L32.1617026,35.7113805 L26.4124038,41.5804322 C25.8679783,42.1284567 25.861774,43.0232408 26.3986165,43.5790062 C26.935459,44.1347716 27.8119858,44.1411051 28.3564113,43.5930807 L33.5404313,38.2870075 L38.7244513,43.5930807 C39.302828,44.0987058 40.1731505,44.0299168 40.6684588,43.4394931 C41.1105137,42.9125803 41.1105137,42.1354939 40.6684588,41.6085812 Z" id="Shape"></path>
                </g>
            </g>
        </g>
    </g>
</svg>