<?xml version="1.0" encoding="UTF-8"?>
<svg width="46px" height="46px" viewBox="0 0 46 46" version="1.1" xmlns="http://www.w3.org/2000/svg" xmlns:xlink="http://www.w3.org/1999/xlink">
    <!-- Generator: Sketch 51.3 (57544) - http://www.bohemiancoding.com/sketch -->
    <title>@2xGroup 3</title>
    <desc>Created with Sketch.</desc>
    <defs>
        <linearGradient x1="52.3947483%" y1="0%" x2="120.46224%" y2="62.0764307%" id="linearGradient-1">
            <stop stop-color="#183784" offset="0%"></stop>
            <stop stop-color="#173683" offset="21.0948335%"></stop>
            <stop stop-color="#031E60" offset="100%"></stop>
        </linearGradient>
    </defs>
    <g id="Page-1" stroke="none" stroke-width="1" fill="none" fill-rule="evenodd">
        <g id="index-copy" transform="translate(-822.000000, -2159.000000)">
            <g id="Group-11" transform="translate(129.000000, 2049.000000)">
                <g id="Group-25" transform="translate(0.000000, 105.000000)">
                    <g id="Group-3" transform="translate(693.000000, 5.000000)">
                        <circle id="Oval" fill="url(#linearGradient-1)" cx="23" cy="23" r="23"></circle>
                        <path d="M17.821733,17.9600988 C18.9324617,15.1186996 21.1797502,13.698 24.5635984,13.698 C26.500916,13.698 28.0507701,14.214618 29.2131607,15.2220232 C30.3497204,16.2294284 30.9180002,17.5209735 30.9180002,19.0449967 C30.9180002,20.1040637 30.7630148,21.0081453 30.3497204,21.7314105 C29.936426,22.4546758 29.7297788,22.8938011 29.0581753,23.4104191 C28.3865719,23.9270372 28.2315864,24.0561917 27.4308285,24.495317 C27.043365,24.7277951 26.7850559,24.8569496 26.6817323,24.9344424 C25.6226653,25.5802149 25.0543855,26.1743256 25.0543855,27.1817308 C25.0543855,27.8275034 24.8477383,28.0083197 24.2277966,28.0083197 L23.1945606,28.0083197 C22.5746189,28.0083197 22.3679717,27.8275034 22.3679717,27.1817308 C22.3679717,24.9861042 23.2720533,23.9270372 24.8477383,22.8679702 C24.8219074,22.8679702 25.8551435,22.2221976 25.9068053,22.1963667 C26.0101289,22.118874 26.6817323,21.6539178 26.8108868,21.4731015 C26.9400413,21.2922852 27.3791667,20.8273289 27.4824903,20.4915272 C27.5858139,20.1815564 27.7149684,19.6907693 27.7149684,19.1741512 C27.7149684,17.5984662 26.5525778,16.5393992 24.4861057,16.5393992 C22.4971262,16.5393992 21.4380592,17.3401572 20.714794,18.967504 C20.4306541,19.6132765 20.2240068,19.7166002 19.6040652,19.5099529 L18.3641819,19.0708276 C17.7700712,18.8900113 17.5892548,18.5025478 17.821733,17.9600988 Z M23.6336859,29.4290193 L23.8403331,29.4290193 C25.0802164,29.4290193 25.4935108,29.8423137 25.4935108,31.082197 L25.4935108,31.3146751 C25.4935108,32.5803893 25.0802164,32.9678529 23.8403331,32.9678529 L23.6336859,32.9678529 C22.3938026,32.9678529 21.9805082,32.5803893 21.9805082,31.3146751 L21.9805082,31.082197 C21.9805082,29.8423137 22.3938026,29.4290193 23.6336859,29.4290193 Z" id="?" fill="#FFFFFF"></path>
                    </g>
                </g>
            </g>
        </g>
    </g>
</svg>