<?xml version="1.0" encoding="UTF-8"?>
<svg width="32px" height="33px" viewBox="0 0 32 33" version="1.1" xmlns="http://www.w3.org/2000/svg" xmlns:xlink="http://www.w3.org/1999/xlink">
    <!-- Generator: Sketch 51.3 (57544) - http://www.bohemiancoding.com/sketch -->
    <title>@2xGroup 3</title>
    <desc>Created with Sketch.</desc>
    <defs>
        <radialGradient cx="52.3947483%" cy="0%" fx="52.3947483%" fy="0%" r="92.9280041%" gradientTransform="translate(0.523947,0.000000),scale(1.000000,0.981216),rotate(42.905668),translate(-0.523947,-0.000000)" id="radialGradient-1">
            <stop stop-color="#183784" offset="0%"></stop>
            <stop stop-color="#173683" offset="21.0948335%"></stop>
            <stop stop-color="#031E60" offset="100%"></stop>
        </radialGradient>
    </defs>
    <g id="Page-1" stroke="none" stroke-width="1" fill="none" fill-rule="evenodd">
        <g id="index-copy" transform="translate(-947.000000, -75.000000)">
            <g id="Group-8" transform="translate(652.000000, 73.000000)">
                <g id="Group-2" transform="translate(0.000000, 0.250000)">
                    <g id="Group-3" transform="translate(295.408602, 2.454545)">
                        <ellipse id="Oval" fill="url(#radialGradient-1)" cx="15.5924219" cy="15.8909091" rx="15.5924219" ry="15.8909091"></ellipse>
                        <g id="search-(2)" transform="translate(8.135177, 8.290909)" fill="#FFFFFF" fill-rule="nonzero">
                            <path d="M14.6877255,13.8447916 L11.0110484,10.0822807 C11.9563867,8.97655444 12.4743431,7.58532458 12.4743431,6.136994 C12.4743431,2.75310887 9.67629372,0 6.23717156,0 C2.7980494,0 0,2.75310887 0,6.136994 C0,9.52087912 2.7980494,12.273988 6.23717156,12.273988 C7.52826607,12.273988 8.75861596,11.8908261 9.8105285,11.1634589 L13.5151372,14.9545202 C13.6699818,15.112748 13.8782491,15.2 14.1014313,15.2 C14.3126816,15.2 14.5130847,15.1207527 14.6652174,14.9766668 C14.9884656,14.6706176 14.9987705,14.1631148 14.6877255,13.8447916 Z M6.23717156,1.60095496 C8.77922574,1.60095496 10.8472549,3.6357687 10.8472549,6.136994 C10.8472549,8.63821929 8.77922574,10.673033 6.23717156,10.673033 C3.69511738,10.673033 1.62708823,8.63821929 1.62708823,6.136994 C1.62708823,3.6357687 3.69511738,1.60095496 6.23717156,1.60095496 Z" id="Shape"></path>
                        </g>
                    </g>
                </g>
            </g>
        </g>
    </g>
</svg>